<svg xmlns="http://www.w3.org/2000/svg" width="1920" height="1080"><path d="M239,1293L-142,1326L471,1301Z" fill="#80838f" stroke="#80838f" stroke-width="1.51"/><path d="M-4,-259L703,-220L983,-254Z" fill="#cceac5" stroke="#cceac5" stroke-width="1.51"/><path d="M715,1305L471,1301L1049,1336Z" fill="#497092" stroke="#497092" stroke-width="1.51"/><path d="M471,1301L-142,1326L1049,1336Z" fill="#697a8e" stroke="#697a8e" stroke-width="1.51"/><path d="M983,-254L1150,-237L1285,-233Z" fill="#a6ceca" stroke="#a6ceca" stroke-width="1.51"/><path d="M983,-254L1285,-233L1651,-250Z" fill="#a2c2c8" stroke="#a2c2c8" stroke-width="1.51"/><path d="M-4,-259L983,-254L1810,-263Z" fill="#aedbcc" stroke="#aedbcc" stroke-width="1.51"/><path d="M983,-254L1651,-250L1810,-263Z" fill="#9fb1c2" stroke="#9fb1c2" stroke-width="1.51"/><path d="M1481,1288L1358,1292L1884,1334Z" fill="#1b3f87" stroke="#1b3f87" stroke-width="1.51"/><path d="M1358,1292L1049,1336L1884,1334Z" fill="#1c4a8a" stroke="#1c4a8a" stroke-width="1.51"/><path d="M1608,1270L1481,1288L1884,1334Z" fill="#1c3a86" stroke="#1c3a86" stroke-width="1.51"/><path d="M1985,385L1924,559L2067,594Z" fill="#3c6f9e" stroke="#3c6f9e" stroke-width="1.51"/><path d="M2039,944L1927,1195L2108,1185Z" fill="#1e3385" stroke="#1e3385" stroke-width="1.51"/><path d="M2111,692L1914,671L2119,822Z" fill="#235b96" stroke="#235b96" stroke-width="1.51"/><path d="M2039,944L2108,1185L2119,822Z" fill="#1a3c85" stroke="#1a3c85" stroke-width="1.51"/><path d="M1953,117L2100,255L2123,112Z" fill="#717e92" stroke="#717e92" stroke-width="1.51"/><path d="M2031,-71L1953,117L2123,112Z" fill="#7f8394" stroke="#7f8394" stroke-width="1.51"/><path d="M2100,255L1985,385L2124,431Z" fill="#4e7293" stroke="#4e7293" stroke-width="1.51"/><path d="M1985,385L2067,594L2124,431Z" fill="#3f6e96" stroke="#3f6e96" stroke-width="1.51"/><path d="M2067,594L2111,692L2124,431Z" fill="#2f6592" stroke="#2f6592" stroke-width="1.51"/><path d="M2111,692L2119,822L2124,431Z" fill="#275e90" stroke="#275e90" stroke-width="1.51"/><path d="M2123,112L2100,255L2124,431Z" fill="#5c758d" stroke="#5c758d" stroke-width="1.51"/><path d="M1910,-249L2031,-71L2127,-157Z" fill="#8e899c" stroke="#8e899c" stroke-width="1.51"/><path d="M2031,-71L2123,112L2127,-157Z" fill="#84838d" stroke="#84838d" stroke-width="1.51"/><path d="M2123,112L2124,431L2127,-157Z" fill="#727d8b" stroke="#727d8b" stroke-width="1.51"/><path d="M1914,955L1927,1195L2039,944Z" fill="#213d8f" stroke="#213d8f" stroke-width="1.51"/><path d="M1914,671L1890,877L2119,822Z" fill="#25589b" stroke="#25589b" stroke-width="1.51"/><path d="M1890,877L2039,944L2119,822Z" fill="#204b92" stroke="#204b92" stroke-width="1.51"/><path d="M1927,1195L2052,1317L2108,1185Z" fill="#182978" stroke="#182978" stroke-width="1.51"/><path d="M2067,594L1914,671L2111,692Z" fill="#2c6299" stroke="#2c6299" stroke-width="1.51"/><path d="M1918,282L1985,385L2100,255Z" fill="#5b7999" stroke="#5b7999" stroke-width="1.51"/><path d="M1953,117L1918,282L2100,255Z" fill="#6c7e99" stroke="#6c7e99" stroke-width="1.51"/><path d="M1924,559L1914,671L2067,594Z" fill="#3369a0" stroke="#3369a0" stroke-width="1.51"/><path d="M1767,1281L1608,1270L1884,1334Z" fill="#1c3483" stroke="#1c3483" stroke-width="1.51"/><path d="M1885,-71L1953,117L2031,-71Z" fill="#8a899c" stroke="#8a899c" stroke-width="1.51"/><path d="M1910,-249L1885,-71L2031,-71Z" fill="#938da2" stroke="#938da2" stroke-width="1.51"/><path d="M1890,877L1914,955L2039,944Z" fill="#234996" stroke="#234996" stroke-width="1.51"/><path d="M1927,1195L1884,1334L2052,1317Z" fill="#182978" stroke="#182978" stroke-width="1.51"/><path d="M1786,722L1890,877L1914,671Z" fill="#2b61a9" stroke="#2b61a9" stroke-width="1.51"/><path d="M1914,955L1791,1195L1927,1195Z" fill="#253894" stroke="#253894" stroke-width="1.51"/><path d="M1885,-71L1794,101L1953,117Z" fill="#8a8ba4" stroke="#8a8ba4" stroke-width="1.51"/><path d="M1812,337L1924,559L1985,385Z" fill="#4e77a5" stroke="#4e77a5" stroke-width="1.51"/><path d="M1918,282L1812,337L1985,385Z" fill="#5b7ba4" stroke="#5b7ba4" stroke-width="1.51"/><path d="M1760,973L1791,1195L1914,955Z" fill="#26439b" stroke="#26439b" stroke-width="1.51"/><path d="M1812,337L1765,533L1924,559Z" fill="#4979ac" stroke="#4979ac" stroke-width="1.51"/><path d="M1794,101L1918,282L1953,117Z" fill="#7b86a4" stroke="#7b86a4" stroke-width="1.51"/><path d="M1791,1195L1767,1281L1884,1334Z" fill="#1e3185" stroke="#1e3185" stroke-width="1.51"/><path d="M1756,-37L1794,101L1885,-71Z" fill="#9091a8" stroke="#9091a8" stroke-width="1.51"/><path d="M1786,722L1827,894L1890,877Z" fill="#2a5aa6" stroke="#2a5aa6" stroke-width="1.51"/><path d="M1810,-263L1885,-71L1910,-249Z" fill="#9a91af" stroke="#9a91af" stroke-width="1.51"/><path d="M1730,188L1812,337L1918,282Z" fill="#6b85aa" stroke="#6b85aa" stroke-width="1.51"/><path d="M1794,101L1730,188L1918,282Z" fill="#7989a9" stroke="#7989a9" stroke-width="1.51"/><path d="M1765,533L1914,671L1924,559Z" fill="#3a6fab" stroke="#3a6fab" stroke-width="1.51"/><path d="M1791,1195L1884,1334L1927,1195Z" fill="#1f2f86" stroke="#1f2f86" stroke-width="1.51"/><path d="M1765,533L1786,722L1914,671Z" fill="#366ead" stroke="#366ead" stroke-width="1.51"/><path d="M1890,877L1827,894L1914,955Z" fill="#264e9e" stroke="#264e9e" stroke-width="1.51"/><path d="M1827,894L1760,973L1914,955Z" fill="#264da0" stroke="#264da0" stroke-width="1.51"/><path d="M1810,-263L1756,-37L1885,-71Z" fill="#9994ac" stroke="#9994ac" stroke-width="1.51"/><path d="M1675,-91L1756,-37L1810,-263Z" fill="#9a99ae" stroke="#9a99ae" stroke-width="1.51"/><path d="M1285,-233L1518,-203L1651,-250Z" fill="#9eb0c0" stroke="#9eb0c0" stroke-width="1.51"/><path d="M1765,533L1658,545L1786,722Z" fill="#3777b0" stroke="#3777b0" stroke-width="1.51"/><path d="M1760,973L1606,1168L1791,1195Z" fill="#26439b" stroke="#26439b" stroke-width="1.51"/><path d="M1651,-250L1675,-91L1810,-263Z" fill="#9c9db6" stroke="#9c9db6" stroke-width="1.51"/><path d="M1679,394L1765,533L1812,337Z" fill="#5181ae" stroke="#5181ae" stroke-width="1.51"/><path d="M1786,722L1606,867L1827,894Z" fill="#2861aa" stroke="#2861aa" stroke-width="1.51"/><path d="M1606,867L1760,973L1827,894Z" fill="#2657a5" stroke="#2657a5" stroke-width="1.51"/><path d="M1642,964L1606,1168L1760,973Z" fill="#264ea0" stroke="#264ea0" stroke-width="1.51"/><path d="M1610,724L1606,867L1786,722Z" fill="#276daf" stroke="#276daf" stroke-width="1.51"/><path d="M1730,188L1679,394L1812,337Z" fill="#6388ac" stroke="#6388ac" stroke-width="1.51"/><path d="M1663,194L1679,394L1730,188Z" fill="#6c8ead" stroke="#6c8ead" stroke-width="1.51"/><path d="M1606,867L1642,964L1760,973Z" fill="#2558a6" stroke="#2558a6" stroke-width="1.51"/><path d="M1658,545L1610,724L1786,722Z" fill="#3176b1" stroke="#3176b1" stroke-width="1.51"/><path d="M1663,194L1730,188L1794,101Z" fill="#7e92ab" stroke="#7e92ab" stroke-width="1.51"/><path d="M1583,130L1663,194L1794,101Z" fill="#8196ad" stroke="#8196ad" stroke-width="1.51"/><path d="M1756,-37L1583,130L1794,101Z" fill="#8a97ab" stroke="#8a97ab" stroke-width="1.51"/><path d="M1606,1168L1767,1281L1791,1195Z" fill="#223b90" stroke="#223b90" stroke-width="1.51"/><path d="M1679,394L1658,545L1765,533Z" fill="#4581b1" stroke="#4581b1" stroke-width="1.51"/><path d="M1606,1168L1608,1270L1767,1281Z" fill="#203d8e" stroke="#203d8e" stroke-width="1.51"/><path d="M1675,-91L1583,130L1756,-37Z" fill="#919cac" stroke="#919cac" stroke-width="1.51"/><path d="M1185,1288L1049,1336L1358,1292Z" fill="#255c94" stroke="#255c94" stroke-width="1.51"/><path d="M1478,1135L1606,1168L1642,964Z" fill="#254fa1" stroke="#254fa1" stroke-width="1.51"/><path d="M1454,1010L1478,1135L1642,964Z" fill="#2558a6" stroke="#2558a6" stroke-width="1.51"/><path d="M1470,697L1610,724L1658,545Z" fill="#2e7db5" stroke="#2e7db5" stroke-width="1.51"/><path d="M1492,71L1583,130L1675,-91Z" fill="#8da2af" stroke="#8da2af" stroke-width="1.51"/><path d="M1469,-69L1492,71L1675,-91Z" fill="#94a6b0" stroke="#94a6b0" stroke-width="1.51"/><path d="M1651,-250L1518,-203L1675,-91Z" fill="#9ba4b7" stroke="#9ba4b7" stroke-width="1.51"/><path d="M1446,418L1492,495L1679,394Z" fill="#4c91b6" stroke="#4c91b6" stroke-width="1.51"/><path d="M1484,264L1446,418L1679,394Z" fill="#5794b4" stroke="#5794b4" stroke-width="1.51"/><path d="M1492,495L1658,545L1679,394Z" fill="#4589b4" stroke="#4589b4" stroke-width="1.51"/><path d="M1663,194L1484,264L1679,394Z" fill="#6693b0" stroke="#6693b0" stroke-width="1.51"/><path d="M1518,-203L1469,-69L1675,-91Z" fill="#9aa8b3" stroke="#9aa8b3" stroke-width="1.51"/><path d="M1492,495L1470,697L1658,545Z" fill="#3487b7" stroke="#3487b7" stroke-width="1.51"/><path d="M1583,130L1484,264L1663,194Z" fill="#779bb1" stroke="#779bb1" stroke-width="1.51"/><path d="M1606,867L1454,1010L1642,964Z" fill="#225ea9" stroke="#225ea9" stroke-width="1.51"/><path d="M1454,794L1454,1010L1606,867Z" fill="#236aae" stroke="#236aae" stroke-width="1.51"/><path d="M1478,1135L1481,1288L1606,1168Z" fill="#244a99" stroke="#244a99" stroke-width="1.51"/><path d="M1606,1168L1481,1288L1608,1270Z" fill="#1f4491" stroke="#1f4491" stroke-width="1.51"/><path d="M1454,794L1606,867L1610,724Z" fill="#2372b1" stroke="#2372b1" stroke-width="1.51"/><path d="M1470,697L1454,794L1610,724Z" fill="#247cb6" stroke="#247cb6" stroke-width="1.51"/><path d="M1492,71L1484,264L1583,130Z" fill="#7fa2b2" stroke="#7fa2b2" stroke-width="1.51"/><path d="M1327,807L1454,1010L1454,794Z" fill="#2374b3" stroke="#2374b3" stroke-width="1.51"/><path d="M1358,240L1484,264L1492,71Z" fill="#79a6b5" stroke="#79a6b5" stroke-width="1.51"/><path d="M1320,527L1470,697L1492,495Z" fill="#3392bb" stroke="#3392bb" stroke-width="1.51"/><path d="M1285,-233L1469,-69L1518,-203Z" fill="#9db5bc" stroke="#9db5bc" stroke-width="1.51"/><path d="M1327,807L1297,981L1454,1010Z" fill="#2471b1" stroke="#2471b1" stroke-width="1.51"/><path d="M1320,527L1334,719L1470,697Z" fill="#2c8fbd" stroke="#2c8fbd" stroke-width="1.51"/><path d="M1321,1169L1358,1292L1478,1135Z" fill="#27559f" stroke="#27559f" stroke-width="1.51"/><path d="M1478,1135L1358,1292L1481,1288Z" fill="#224e97" stroke="#224e97" stroke-width="1.51"/><path d="M1358,240L1446,418L1484,264Z" fill="#61a1b7" stroke="#61a1b7" stroke-width="1.51"/><path d="M1469,-69L1279,-50L1492,71Z" fill="#95b2b5" stroke="#95b2b5" stroke-width="1.51"/><path d="M1279,-50L1292,133L1492,71Z" fill="#8eb6b7" stroke="#8eb6b7" stroke-width="1.51"/><path d="M1292,133L1358,240L1492,71Z" fill="#82afb7" stroke="#82afb7" stroke-width="1.51"/><path d="M1446,418L1320,527L1492,495Z" fill="#4399ba" stroke="#4399ba" stroke-width="1.51"/><path d="M1285,-233L1279,-50L1469,-69Z" fill="#9dbbba" stroke="#9dbbba" stroke-width="1.51"/><path d="M1454,1010L1321,1169L1478,1135Z" fill="#285aa6" stroke="#285aa6" stroke-width="1.51"/><path d="M1334,719L1454,794L1470,697Z" fill="#2384ba" stroke="#2384ba" stroke-width="1.51"/><path d="M-4,-259L585,-193L703,-220Z" fill="#d9f0c1" stroke="#d9f0c1" stroke-width="1.51"/><path d="M1358,240L1307,427L1446,418Z" fill="#57a3ba" stroke="#57a3ba" stroke-width="1.51"/><path d="M1297,981L1321,1169L1454,1010Z" fill="#2865ab" stroke="#2865ab" stroke-width="1.51"/><path d="M1307,427L1320,527L1446,418Z" fill="#469fbd" stroke="#469fbd" stroke-width="1.51"/><path d="M1334,719L1327,807L1454,794Z" fill="#2184ba" stroke="#2184ba" stroke-width="1.51"/><path d="M1214,951L1297,981L1327,807Z" fill="#237bb6" stroke="#237bb6" stroke-width="1.51"/><path d="M1320,527L1220,532L1334,719Z" fill="#2f9cc1" stroke="#2f9cc1" stroke-width="1.51"/><path d="M1220,532L1217,731L1334,719Z" fill="#2898c1" stroke="#2898c1" stroke-width="1.51"/><path d="M1292,133L1174,190L1358,240Z" fill="#7bb6bc" stroke="#7bb6bc" stroke-width="1.51"/><path d="M1227,431L1307,427L1358,240Z" fill="#56a9bd" stroke="#56a9bd" stroke-width="1.51"/><path d="M1174,190L1227,431L1358,240Z" fill="#66b2be" stroke="#66b2be" stroke-width="1.51"/><path d="M1321,1169L1185,1288L1358,1292Z" fill="#245a9b" stroke="#245a9b" stroke-width="1.51"/><path d="M1173,-95L1279,-50L1285,-233Z" fill="#9fc5bf" stroke="#9fc5bf" stroke-width="1.51"/><path d="M1214,951L1136,1189L1297,981Z" fill="#2b71b0" stroke="#2b71b0" stroke-width="1.51"/><path d="M1307,427L1227,431L1320,527Z" fill="#45a6c0" stroke="#45a6c0" stroke-width="1.51"/><path d="M1227,431L1220,532L1320,527Z" fill="#3ea6c1" stroke="#3ea6c1" stroke-width="1.51"/><path d="M1297,981L1136,1189L1321,1169Z" fill="#2b68ac" stroke="#2b68ac" stroke-width="1.51"/><path d="M1132,884L1214,951L1327,807Z" fill="#2582b9" stroke="#2582b9" stroke-width="1.51"/><path d="M1217,731L1327,807L1334,719Z" fill="#1f8dbe" stroke="#1f8dbe" stroke-width="1.51"/><path d="M-4,-259L107,-216L585,-193Z" fill="#e9f7c0" stroke="#e9f7c0" stroke-width="1.51"/><path d="M1279,-50L1146,140L1292,133Z" fill="#8dbfbb" stroke="#8dbfbb" stroke-width="1.51"/><path d="M1136,1189L1185,1288L1321,1169Z" fill="#2a61a2" stroke="#2a61a2" stroke-width="1.51"/><path d="M1217,731L1132,884L1327,807Z" fill="#238bbd" stroke="#238bbd" stroke-width="1.51"/><path d="M1173,-95L1146,140L1279,-50Z" fill="#97c4bb" stroke="#97c4bb" stroke-width="1.51"/><path d="M1150,-237L1173,-95L1285,-233Z" fill="#a2c9c5" stroke="#a2c9c5" stroke-width="1.51"/><path d="M1174,190L1057,378L1227,431Z" fill="#5eb5bf" stroke="#5eb5bf" stroke-width="1.51"/><path d="M1146,140L1174,190L1292,133Z" fill="#83bdbc" stroke="#83bdbc" stroke-width="1.51"/><path d="M1060,1144L1136,1189L1214,951Z" fill="#3370ae" stroke="#3370ae" stroke-width="1.51"/><path d="M1046,-7L1146,140L1173,-95Z" fill="#97c9bb" stroke="#97c9bb" stroke-width="1.51"/><path d="M1039,1005L1060,1144L1214,951Z" fill="#3278b1" stroke="#3278b1" stroke-width="1.51"/><path d="M1018,545L1018,723L1217,731Z" fill="#32a2c2" stroke="#32a2c2" stroke-width="1.51"/><path d="M1018,545L1217,731L1220,532Z" fill="#34a4c3" stroke="#34a4c3" stroke-width="1.51"/><path d="M1057,378L1018,545L1220,532Z" fill="#47b0c2" stroke="#47b0c2" stroke-width="1.51"/><path d="M1057,378L1220,532L1227,431Z" fill="#4baec1" stroke="#4baec1" stroke-width="1.51"/><path d="M1018,723L1132,884L1217,731Z" fill="#2a95bf" stroke="#2a95bf" stroke-width="1.51"/><path d="M1132,884L1039,1005L1214,951Z" fill="#2d7fb6" stroke="#2d7fb6" stroke-width="1.51"/><path d="M880,1278L715,1305L1049,1336Z" fill="#3b6c95" stroke="#3b6c95" stroke-width="1.51"/><path d="M1018,723L989,787L1132,884Z" fill="#2f97bf" stroke="#2f97bf" stroke-width="1.51"/><path d="M994,190L1057,378L1174,190Z" fill="#73c0be" stroke="#73c0be" stroke-width="1.51"/><path d="M1136,1189L1049,1336L1185,1288Z" fill="#2c629a" stroke="#2c629a" stroke-width="1.51"/><path d="M1150,-237L983,-254L1173,-95Z" fill="#a5cfc6" stroke="#a5cfc6" stroke-width="1.51"/><path d="M983,-254L1046,-7L1173,-95Z" fill="#a4d0bf" stroke="#a4d0bf" stroke-width="1.51"/><path d="M1146,140L994,190L1174,190Z" fill="#82c3bd" stroke="#82c3bd" stroke-width="1.51"/><path d="M107,-216L458,-170L585,-193Z" fill="#ddf2be" stroke="#ddf2be" stroke-width="1.51"/><path d="M983,-254L911,-110L1046,-7Z" fill="#a7d6c0" stroke="#a7d6c0" stroke-width="1.51"/><path d="M1060,1144L1049,1336L1136,1189Z" fill="#3368a1" stroke="#3368a1" stroke-width="1.51"/><path d="M1046,-7L980,144L1146,140Z" fill="#91cabc" stroke="#91cabc" stroke-width="1.51"/><path d="M980,144L994,190L1146,140Z" fill="#87c8bd" stroke="#87c8bd" stroke-width="1.51"/><path d="M932,827L1039,1005L1132,884Z" fill="#338ab9" stroke="#338ab9" stroke-width="1.51"/><path d="M989,787L932,827L1132,884Z" fill="#3295bd" stroke="#3295bd" stroke-width="1.51"/><path d="M902,-156L911,-110L983,-254Z" fill="#abd9c4" stroke="#abd9c4" stroke-width="1.51"/><path d="M902,969L847,1167L1039,1005Z" fill="#4080b1" stroke="#4080b1" stroke-width="1.51"/><path d="M932,827L902,969L1039,1005Z" fill="#388cb7" stroke="#388cb7" stroke-width="1.51"/><path d="M923,131L980,144L1046,-7Z" fill="#93cfbc" stroke="#93cfbc" stroke-width="1.51"/><path d="M994,190L845,234L1057,378Z" fill="#73c5bf" stroke="#73c5bf" stroke-width="1.51"/><path d="M845,234L832,378L1057,378Z" fill="#6ac4bf" stroke="#6ac4bf" stroke-width="1.51"/><path d="M842,514L1018,545L1057,378Z" fill="#4db8c3" stroke="#4db8c3" stroke-width="1.51"/><path d="M832,378L842,514L1057,378Z" fill="#5cbec1" stroke="#5cbec1" stroke-width="1.51"/><path d="M1039,1005L847,1167L1060,1144Z" fill="#3c78af" stroke="#3c78af" stroke-width="1.51"/><path d="M880,1278L1049,1336L1060,1144Z" fill="#356b9e" stroke="#356b9e" stroke-width="1.51"/><path d="M847,1167L880,1278L1060,1144Z" fill="#3f72a6" stroke="#3f72a6" stroke-width="1.51"/><path d="M1018,545L868,743L1018,723Z" fill="#38a9c3" stroke="#38a9c3" stroke-width="1.51"/><path d="M911,-110L923,131L1046,-7Z" fill="#9dd4bc" stroke="#9dd4bc" stroke-width="1.51"/><path d="M107,-216L302,-167L458,-170Z" fill="#e3f5bc" stroke="#e3f5bc" stroke-width="1.51"/><path d="M842,514L868,743L1018,545Z" fill="#45b2c3" stroke="#45b2c3" stroke-width="1.51"/><path d="M868,743L989,787L1018,723Z" fill="#33a3c2" stroke="#33a3c2" stroke-width="1.51"/><path d="M980,144L923,131L994,190Z" fill="#8acdbd" stroke="#8acdbd" stroke-width="1.51"/><path d="M923,131L845,234L994,190Z" fill="#87cdbd" stroke="#87cdbd" stroke-width="1.51"/><path d="M868,743L932,827L989,787Z" fill="#399fbf" stroke="#399fbf" stroke-width="1.51"/><path d="M911,-110L769,124L923,131Z" fill="#9fd6bb" stroke="#9fd6bb" stroke-width="1.51"/><path d="M703,-220L902,-156L983,-254Z" fill="#b1dcc6" stroke="#b1dcc6" stroke-width="1.51"/><path d="M750,587L746,652L842,514Z" fill="#55b9c1" stroke="#55b9c1" stroke-width="1.51"/><path d="M842,514L746,652L868,743Z" fill="#4fb3c1" stroke="#4fb3c1" stroke-width="1.51"/><path d="M739,977L847,1167L902,969Z" fill="#4c85b1" stroke="#4c85b1" stroke-width="1.51"/><path d="M684,-55L769,124L911,-110Z" fill="#abdbb9" stroke="#abdbb9" stroke-width="1.51"/><path d="M721,859L902,969L932,827Z" fill="#4695b9" stroke="#4695b9" stroke-width="1.51"/><path d="M868,743L721,859L932,827Z" fill="#469fbd" stroke="#469fbd" stroke-width="1.51"/><path d="M721,859L739,977L902,969Z" fill="#4e91b5" stroke="#4e91b5" stroke-width="1.51"/><path d="M769,124L845,234L923,131Z" fill="#92d1bb" stroke="#92d1bb" stroke-width="1.51"/><path d="M606,1280L471,1301L715,1305Z" fill="#5b7794" stroke="#5b7794" stroke-width="1.51"/><path d="M902,-156L684,-55L911,-110Z" fill="#b0dcbc" stroke="#b0dcbc" stroke-width="1.51"/><path d="M703,-220L684,-55L902,-156Z" fill="#b5dfbe" stroke="#b5dfbe" stroke-width="1.51"/><path d="M832,378L760,439L842,514Z" fill="#63c1c0" stroke="#63c1c0" stroke-width="1.51"/><path d="M785,239L832,378L845,234Z" fill="#7ccabd" stroke="#7ccabd" stroke-width="1.51"/><path d="M739,977L692,1136L847,1167Z" fill="#5381ad" stroke="#5381ad" stroke-width="1.51"/><path d="M847,1167L715,1305L880,1278Z" fill="#47729d" stroke="#47729d" stroke-width="1.51"/><path d="M769,124L785,239L845,234Z" fill="#8ed0bb" stroke="#8ed0bb" stroke-width="1.51"/><path d="M746,652L721,859L868,743Z" fill="#4daabf" stroke="#4daabf" stroke-width="1.51"/><path d="M692,1136L715,1305L847,1167Z" fill="#5178a3" stroke="#5178a3" stroke-width="1.51"/><path d="M760,439L750,587L842,514Z" fill="#5cbec1" stroke="#5cbec1" stroke-width="1.51"/><path d="M785,239L760,439L832,378Z" fill="#72c7be" stroke="#72c7be" stroke-width="1.51"/><path d="M616,817L721,859L746,652Z" fill="#57a9bd" stroke="#57a9bd" stroke-width="1.51"/><path d="M684,-55L627,68L769,124Z" fill="#abdcb8" stroke="#abdcb8" stroke-width="1.51"/><path d="M769,124L592,278L785,239Z" fill="#92d3ba" stroke="#92d3ba" stroke-width="1.51"/><path d="M592,278L760,439L785,239Z" fill="#7eccbc" stroke="#7eccbc" stroke-width="1.51"/><path d="M632,-25L627,68L684,-55Z" fill="#b3e0b7" stroke="#b3e0b7" stroke-width="1.51"/><path d="M555,711L616,817L746,652Z" fill="#5fb1be" stroke="#5fb1be" stroke-width="1.51"/><path d="M592,278L551,368L760,439Z" fill="#7fccbb" stroke="#7fccbb" stroke-width="1.51"/><path d="M560,563L750,587L760,439Z" fill="#63c1c0" stroke="#63c1c0" stroke-width="1.51"/><path d="M627,68L592,278L769,124Z" fill="#a0d9b8" stroke="#a0d9b8" stroke-width="1.51"/><path d="M692,1136L606,1280L715,1305Z" fill="#56789c" stroke="#56789c" stroke-width="1.51"/><path d="M721,859L638,954L739,977Z" fill="#5795b4" stroke="#5795b4" stroke-width="1.51"/><path d="M638,954L692,1136L739,977Z" fill="#598bb0" stroke="#598bb0" stroke-width="1.51"/><path d="M551,368L560,563L760,439Z" fill="#75c7bd" stroke="#75c7bd" stroke-width="1.51"/><path d="M638,954L629,1134L692,1136Z" fill="#5e87ad" stroke="#5e87ad" stroke-width="1.51"/><path d="M560,563L746,652L750,587Z" fill="#5fbbc0" stroke="#5fbbc0" stroke-width="1.51"/><path d="M585,-193L684,-55L703,-220Z" fill="#bde4be" stroke="#bde4be" stroke-width="1.51"/><path d="M560,563L555,711L746,652Z" fill="#66babe" stroke="#66babe" stroke-width="1.51"/><path d="M629,1134L606,1280L692,1136Z" fill="#5e7da5" stroke="#5e7da5" stroke-width="1.51"/><path d="M616,817L638,954L721,859Z" fill="#5b9db7" stroke="#5b9db7" stroke-width="1.51"/><path d="M585,-193L632,-25L684,-55Z" fill="#bde3b7" stroke="#bde3b7" stroke-width="1.51"/><path d="M551,368L476,436L560,563Z" fill="#83ccbc" stroke="#83ccbc" stroke-width="1.51"/><path d="M457,102L431,184L592,278Z" fill="#aedfb7" stroke="#aedfb7" stroke-width="1.51"/><path d="M462,1106L471,1301L606,1280Z" fill="#6b7f9d" stroke="#6b7f9d" stroke-width="1.51"/><path d="M390,877L456,1009L616,817Z" fill="#74a2b4" stroke="#74a2b4" stroke-width="1.51"/><path d="M457,102L592,278L627,68Z" fill="#addeb7" stroke="#addeb7" stroke-width="1.51"/><path d="M462,1106L606,1280L629,1134Z" fill="#6980a6" stroke="#6980a6" stroke-width="1.51"/><path d="M456,1009L462,1106L629,1134Z" fill="#718cab" stroke="#718cab" stroke-width="1.51"/><path d="M483,-65L627,68L632,-25Z" fill="#bce3b6" stroke="#bce3b6" stroke-width="1.51"/><path d="M585,-193L483,-65L632,-25Z" fill="#c4e7b7" stroke="#c4e7b7" stroke-width="1.51"/><path d="M456,1009L629,1134L638,954Z" fill="#688fae" stroke="#688fae" stroke-width="1.51"/><path d="M616,817L456,1009L638,954Z" fill="#699ab3" stroke="#699ab3" stroke-width="1.51"/><path d="M483,-65L457,102L627,68Z" fill="#bee5b6" stroke="#bee5b6" stroke-width="1.51"/><path d="M555,711L390,877L616,817Z" fill="#71adba" stroke="#71adba" stroke-width="1.51"/><path d="M404,731L390,877L555,711Z" fill="#7bb4bb" stroke="#7bb4bb" stroke-width="1.51"/><path d="M458,-170L483,-65L585,-193Z" fill="#cdebbb" stroke="#cdebbb" stroke-width="1.51"/><path d="M431,184L551,368L592,278Z" fill="#9cd7b9" stroke="#9cd7b9" stroke-width="1.51"/><path d="M476,436L438,487L560,563Z" fill="#83ccbd" stroke="#83ccbd" stroke-width="1.51"/><path d="M431,184L476,436L551,368Z" fill="#97d5b9" stroke="#97d5b9" stroke-width="1.51"/><path d="M404,731L555,711L560,563Z" fill="#76bcbe" stroke="#76bcbe" stroke-width="1.51"/><path d="M438,487L404,731L560,563Z" fill="#7fc5be" stroke="#7fc5be" stroke-width="1.51"/><path d="M431,184L298,368L476,436Z" fill="#a1d9b8" stroke="#a1d9b8" stroke-width="1.51"/><path d="M257,276L298,368L431,184Z" fill="#b1e0b7" stroke="#b1e0b7" stroke-width="1.51"/><path d="M331,705L404,731L438,487Z" fill="#87c4bc" stroke="#87c4bc" stroke-width="1.51"/><path d="M240,576L331,705L438,487Z" fill="#8fcbbc" stroke="#8fcbbc" stroke-width="1.51"/><path d="M462,1106L261,1101L471,1301Z" fill="#7e87a5" stroke="#7e87a5" stroke-width="1.51"/><path d="M261,1101L239,1293L471,1301Z" fill="#7f859b" stroke="#7f859b" stroke-width="1.51"/><path d="M268,-13L457,102L483,-65Z" fill="#ceebb4" stroke="#ceebb4" stroke-width="1.51"/><path d="M458,-170L302,-167L483,-65Z" fill="#d7efb9" stroke="#d7efb9" stroke-width="1.51"/><path d="M302,-167L268,-13L483,-65Z" fill="#dbf0b3" stroke="#dbf0b3" stroke-width="1.51"/><path d="M298,368L438,487L476,436Z" fill="#95d3ba" stroke="#95d3ba" stroke-width="1.51"/><path d="M327,791L390,877L404,731Z" fill="#84b4b8" stroke="#84b4b8" stroke-width="1.51"/><path d="M456,1009L307,1043L462,1106Z" fill="#7e93ac" stroke="#7e93ac" stroke-width="1.51"/><path d="M390,877L307,1043L456,1009Z" fill="#819db0" stroke="#819db0" stroke-width="1.51"/><path d="M307,1043L261,1101L462,1106Z" fill="#8593aa" stroke="#8593aa" stroke-width="1.51"/><path d="M268,-13L232,73L457,102Z" fill="#d1edb4" stroke="#d1edb4" stroke-width="1.51"/><path d="M232,73L431,184L457,102Z" fill="#c6e9b4" stroke="#c6e9b4" stroke-width="1.51"/><path d="M9,1262L-142,1326L239,1293Z" fill="#8a8792" stroke="#8a8792" stroke-width="1.51"/><path d="M298,368L240,576L438,487Z" fill="#99d4bb" stroke="#99d4bb" stroke-width="1.51"/><path d="M232,73L257,276L431,184Z" fill="#c3e7b5" stroke="#c3e7b5" stroke-width="1.51"/><path d="M331,705L327,791L404,731Z" fill="#87bcbb" stroke="#87bcbb" stroke-width="1.51"/><path d="M91,1253L9,1262L239,1293Z" fill="#898795" stroke="#898795" stroke-width="1.51"/><path d="M327,791L186,1013L390,877Z" fill="#89a9b3" stroke="#89a9b3" stroke-width="1.51"/><path d="M186,1013L307,1043L390,877Z" fill="#889faf" stroke="#889faf" stroke-width="1.51"/><path d="M146,683L124,802L327,791Z" fill="#93beba" stroke="#93beba" stroke-width="1.51"/><path d="M124,802L186,1013L327,791Z" fill="#90aeb5" stroke="#90aeb5" stroke-width="1.51"/><path d="M146,683L327,791L331,705Z" fill="#8fc0bb" stroke="#8fc0bb" stroke-width="1.51"/><path d="M240,576L146,683L331,705Z" fill="#94c7bc" stroke="#94c7bc" stroke-width="1.51"/><path d="M232,73L103,144L257,276Z" fill="#cceab4" stroke="#cceab4" stroke-width="1.51"/><path d="M107,344L240,576L298,368Z" fill="#a6d9ba" stroke="#a6d9ba" stroke-width="1.51"/><path d="M119,-35L268,-13L302,-167Z" fill="#e2f4b2" stroke="#e2f4b2" stroke-width="1.51"/><path d="M107,-216L119,-35L302,-167Z" fill="#e9f6b7" stroke="#e9f6b7" stroke-width="1.51"/><path d="M186,1013L261,1101L307,1043Z" fill="#8b97ab" stroke="#8b97ab" stroke-width="1.51"/><path d="M107,344L116,581L240,576Z" fill="#a3d6bb" stroke="#a3d6bb" stroke-width="1.51"/><path d="M93,1137L239,1293L261,1101Z" fill="#8c8ca3" stroke="#8c8ca3" stroke-width="1.51"/><path d="M257,276L107,344L298,368Z" fill="#b0dfb7" stroke="#b0dfb7" stroke-width="1.51"/><path d="M107,344L38,507L116,581Z" fill="#aadaba" stroke="#aadaba" stroke-width="1.51"/><path d="M93,1137L91,1253L239,1293Z" fill="#8b899b" stroke="#8b899b" stroke-width="1.51"/><path d="M103,144L107,258L257,276Z" fill="#c5e7b5" stroke="#c5e7b5" stroke-width="1.51"/><path d="M119,-35L232,73L268,-13Z" fill="#dcf1b3" stroke="#dcf1b3" stroke-width="1.51"/><path d="M186,1013L93,1137L261,1101Z" fill="#9096a9" stroke="#9096a9" stroke-width="1.51"/><path d="M107,258L107,344L257,276Z" fill="#bae3b6" stroke="#bae3b6" stroke-width="1.51"/><path d="M116,581L146,683L240,576Z" fill="#9bcdbc" stroke="#9bcdbc" stroke-width="1.51"/><path d="M119,-35L103,144L232,73Z" fill="#dbf1b3" stroke="#dbf1b3" stroke-width="1.51"/><path d="M-40,1013L93,1137L186,1013Z" fill="#979bab" stroke="#979bab" stroke-width="1.51"/><path d="M124,802L-46,895L186,1013Z" fill="#98adb2" stroke="#98adb2" stroke-width="1.51"/><path d="M-46,895L-40,1013L186,1013Z" fill="#99a5b0" stroke="#99a5b0" stroke-width="1.51"/><path d="M38,1180L91,1253L93,1137Z" fill="#938da1" stroke="#938da1" stroke-width="1.51"/><path d="M4,349L38,507L107,344Z" fill="#b4dfb9" stroke="#b4dfb9" stroke-width="1.51"/><path d="M12,101L103,144L119,-35Z" fill="#dff2b2" stroke="#dff2b2" stroke-width="1.51"/><path d="M107,-216L-23,-71L119,-35Z" fill="#eef9b4" stroke="#eef9b4" stroke-width="1.51"/><path d="M-18,689L124,802L146,683Z" fill="#9cc4ba" stroke="#9cc4ba" stroke-width="1.51"/><path d="M116,581L-18,689L146,683Z" fill="#9fcbbb" stroke="#9fcbbb" stroke-width="1.51"/><path d="M103,144L38,281L107,258Z" fill="#c9e9b5" stroke="#c9e9b5" stroke-width="1.51"/><path d="M107,258L38,281L107,344Z" fill="#bee4b6" stroke="#bee4b6" stroke-width="1.51"/><path d="M-23,-71L12,101L119,-35Z" fill="#e7f5b3" stroke="#e7f5b3" stroke-width="1.51"/><path d="M-18,689L-46,895L124,802Z" fill="#9cbdba" stroke="#9cbdba" stroke-width="1.51"/><path d="M-4,-259L-23,-71L107,-216Z" fill="#f3fbbd" stroke="#f3fbbd" stroke-width="1.51"/><path d="M12,101L38,281L103,144Z" fill="#d4edb4" stroke="#d4edb4" stroke-width="1.51"/><path d="M38,507L-18,689L116,581Z" fill="#a4d1bc" stroke="#a4d1bc" stroke-width="1.51"/><path d="M38,281L4,349L107,344Z" fill="#bce3b7" stroke="#bce3b7" stroke-width="1.51"/><path d="M-40,1013L38,1180L93,1137Z" fill="#9896aa" stroke="#9896aa" stroke-width="1.51"/><path d="M38,1180L9,1262L91,1253Z" fill="#908b9b" stroke="#908b9b" stroke-width="1.51"/><path d="M-143,799L-46,895L-18,689Z" fill="#9fbec0" stroke="#9fbec0" stroke-width="1.51"/><path d="M-175,-194L-23,-71L-4,-259Z" fill="#f6fbc3" stroke="#f6fbc3" stroke-width="1.51"/><path d="M-23,-71L-172,49L12,101Z" fill="#e7f6ba" stroke="#e7f6ba" stroke-width="1.51"/><path d="M-121,1154L9,1262L38,1180Z" fill="#958ea5" stroke="#958ea5" stroke-width="1.51"/><path d="M-40,1013L-121,1154L38,1180Z" fill="#9996ae" stroke="#9996ae" stroke-width="1.51"/><path d="M-166,559L-18,689L38,507Z" fill="#a6d4c2" stroke="#a6d4c2" stroke-width="1.51"/><path d="M4,349L-147,402L38,507Z" fill="#b4debf" stroke="#b4debf" stroke-width="1.51"/><path d="M-147,402L-166,559L38,507Z" fill="#aedcc4" stroke="#aedcc4" stroke-width="1.51"/><path d="M12,101L-211,239L38,281Z" fill="#d1edbc" stroke="#d1edbc" stroke-width="1.51"/><path d="M-211,239L4,349L38,281Z" fill="#c4e7be" stroke="#c4e7be" stroke-width="1.51"/><path d="M-112,1021L-121,1154L-40,1013Z" fill="#9b9db3" stroke="#9b9db3" stroke-width="1.51"/><path d="M-211,239L-147,402L4,349Z" fill="#c0e5c2" stroke="#c0e5c2" stroke-width="1.51"/><path d="M-172,49L-211,239L12,101Z" fill="#dff3bf" stroke="#dff3bf" stroke-width="1.51"/><path d="M-164,-58L-172,49L-23,-71Z" fill="#eef8bd" stroke="#eef8bd" stroke-width="1.51"/><path d="M-121,1154L-142,1326L9,1262Z" fill="#928ba1" stroke="#928ba1" stroke-width="1.51"/><path d="M-175,-194L-164,-58L-23,-71Z" fill="#f4fbc0" stroke="#f4fbc0" stroke-width="1.51"/><path d="M-46,895L-112,1021L-40,1013Z" fill="#9ba6b6" stroke="#9ba6b6" stroke-width="1.51"/><path d="M-211,713L-143,799L-18,689Z" fill="#a1c6c6" stroke="#a1c6c6" stroke-width="1.51"/><path d="M-166,559L-211,713L-18,689Z" fill="#a6cec7" stroke="#a6cec7" stroke-width="1.51"/><path d="M-143,799L-112,1021L-46,895Z" fill="#9dafbc" stroke="#9dafbc" stroke-width="1.51"/><path d="M-211,713L-121,1154L-112,1021Z" fill="#9da8bc" stroke="#9da8bc" stroke-width="1.51"/><path d="M-143,799L-211,713L-112,1021Z" fill="#a0b8c3" stroke="#a0b8c3" stroke-width="1.51"/><path d="M-211,713L-142,1326L-121,1154Z" fill="#9c9cb8" stroke="#9c9cb8" stroke-width="1.51"/><path d="M-211,239L-166,559L-147,402Z" fill="#bae1c7" stroke="#bae1c7" stroke-width="1.51"/><path d="M-211,239L-211,713L-166,559Z" fill="#afdccb" stroke="#afdccb" stroke-width="1.51"/><path d="M-175,-194L-172,49L-164,-58Z" fill="#f3fac1" stroke="#f3fac1" stroke-width="1.51"/><path d="M-175,-194L-211,239L-172,49Z" fill="#ebf7c2" stroke="#ebf7c2" stroke-width="1.51"/></svg>