<svg xmlns="http://www.w3.org/2000/svg" width="1920" height="1080"><path d="M13,1305L-152,1337L137,1289Z" fill="#79a086" stroke="#79a086" stroke-width="1.51"/><path d="M137,1289L-152,1337L442,1277Z" fill="#749f83" stroke="#749f83" stroke-width="1.51"/><path d="M755,1291L442,1277L1007,1340Z" fill="#4c8f6c" stroke="#4c8f6c" stroke-width="1.51"/><path d="M442,1277L-152,1337L1007,1340Z" fill="#659779" stroke="#659779" stroke-width="1.51"/><path d="M381,-265L898,-237L1026,-259Z" fill="#bfe6dc" stroke="#bfe6dc" stroke-width="1.51"/><path d="M1235,-244L1296,-235L1454,-219Z" fill="#9cd0b1" stroke="#9cd0b1" stroke-width="1.51"/><path d="M1474,1333L1311,1333L1752,1343Z" fill="#146b34" stroke="#146b34" stroke-width="1.51"/><path d="M1311,1333L1007,1340L1752,1343Z" fill="#1d7440" stroke="#1d7440" stroke-width="1.51"/><path d="M1026,-259L1235,-244L1918,-221Z" fill="#9acdac" stroke="#9acdac" stroke-width="1.51"/><path d="M1454,-219L1790,-188L1918,-221Z" fill="#8ab995" stroke="#8ab995" stroke-width="1.51"/><path d="M1235,-244L1454,-219L1918,-221Z" fill="#93c49f" stroke="#93c49f" stroke-width="1.51"/><path d="M2055,-183L2064,-6L2113,122Z" fill="#749e83" stroke="#749e83" stroke-width="1.51"/><path d="M1946,564L1965,732L2121,727Z" fill="#2c8553" stroke="#2c8553" stroke-width="1.51"/><path d="M2059,845L2060,960L2121,727Z" fill="#1b753e" stroke="#1b753e" stroke-width="1.51"/><path d="M2079,339L1988,431L2126,546Z" fill="#458d67" stroke="#458d67" stroke-width="1.51"/><path d="M1946,564L2121,727L2126,546Z" fill="#318458" stroke="#318458" stroke-width="1.51"/><path d="M1900,1292L1752,1343L2127,1302Z" fill="#005923" stroke="#005923" stroke-width="1.51"/><path d="M2060,1086L1900,1292L2127,1302Z" fill="#005a24" stroke="#005a24" stroke-width="1.51"/><path d="M2121,727L2060,960L2127,1302Z" fill="#0e682f" stroke="#0e682f" stroke-width="1.51"/><path d="M2060,960L2060,1086L2127,1302Z" fill="#036028" stroke="#036028" stroke-width="1.51"/><path d="M2126,546L2121,727L2127,1302Z" fill="#19713b" stroke="#19713b" stroke-width="1.51"/><path d="M2055,-183L2113,122L2136,213Z" fill="#6f9a7f" stroke="#6f9a7f" stroke-width="1.51"/><path d="M2113,122L1948,137L2136,213Z" fill="#689a7b" stroke="#689a7b" stroke-width="1.51"/><path d="M1948,137L2079,339L2136,213Z" fill="#609777" stroke="#609777" stroke-width="1.51"/><path d="M2079,339L2126,546L2136,213Z" fill="#4d8d6c" stroke="#4d8d6c" stroke-width="1.51"/><path d="M2126,546L2127,1302L2136,213Z" fill="#287c4e" stroke="#287c4e" stroke-width="1.51"/><path d="M1948,137L1894,261L2079,339Z" fill="#609d79" stroke="#609d79" stroke-width="1.51"/><path d="M1965,732L2059,845L2121,727Z" fill="#217d48" stroke="#217d48" stroke-width="1.51"/><path d="M1988,431L1946,564L2126,546Z" fill="#3d8c63" stroke="#3d8c63" stroke-width="1.51"/><path d="M2064,-6L1948,137L2113,122Z" fill="#6f9e80" stroke="#6f9e80" stroke-width="1.51"/><path d="M1899,1101L1900,1292L2060,1086Z" fill="#006629" stroke="#006629" stroke-width="1.51"/><path d="M2059,845L1966,949L2060,960Z" fill="#167337" stroke="#167337" stroke-width="1.51"/><path d="M2060,960L1966,949L2060,1086Z" fill="#0f6d30" stroke="#0f6d30" stroke-width="1.51"/><path d="M2055,-183L1912,-47L2064,-6Z" fill="#7aa488" stroke="#7aa488" stroke-width="1.51"/><path d="M1894,261L1988,431L2079,339Z" fill="#539772" stroke="#539772" stroke-width="1.51"/><path d="M1918,-221L1912,-47L2055,-183Z" fill="#7fa98a" stroke="#7fa98a" stroke-width="1.51"/><path d="M1965,732L1898,825L2059,845Z" fill="#208046" stroke="#208046" stroke-width="1.51"/><path d="M1966,949L1899,1101L2060,1086Z" fill="#0b6d2f" stroke="#0b6d2f" stroke-width="1.51"/><path d="M1912,-47L1948,137L2064,-6Z" fill="#75a585" stroke="#75a585" stroke-width="1.51"/><path d="M1898,825L1966,949L2059,845Z" fill="#1b7a3e" stroke="#1b7a3e" stroke-width="1.51"/><path d="M1454,-219L1672,-165L1790,-188Z" fill="#8dbe99" stroke="#8dbe99" stroke-width="1.51"/><path d="M1183,1322L1007,1340L1311,1333Z" fill="#297d4f" stroke="#297d4f" stroke-width="1.51"/><path d="M1946,564L1779,743L1965,732Z" fill="#2e8d56" stroke="#2e8d56" stroke-width="1.51"/><path d="M1894,261L1785,362L1988,431Z" fill="#559e75" stroke="#559e75" stroke-width="1.51"/><path d="M1753,501L1946,564L1988,431Z" fill="#429668" stroke="#429668" stroke-width="1.51"/><path d="M1785,362L1753,501L1988,431Z" fill="#4d9e70" stroke="#4d9e70" stroke-width="1.51"/><path d="M1790,-188L1912,-47L1918,-221Z" fill="#82b08d" stroke="#82b08d" stroke-width="1.51"/><path d="M1912,-47L1738,112L1948,137Z" fill="#76ac88" stroke="#76ac88" stroke-width="1.51"/><path d="M1898,825L1823,815L1966,949Z" fill="#1c8142" stroke="#1c8142" stroke-width="1.51"/><path d="M1823,815L1736,1034L1966,949Z" fill="#177e3c" stroke="#177e3c" stroke-width="1.51"/><path d="M1736,1034L1899,1101L1966,949Z" fill="#0d7634" stroke="#0d7634" stroke-width="1.51"/><path d="M1779,743L1898,825L1965,732Z" fill="#24894d" stroke="#24894d" stroke-width="1.51"/><path d="M1779,743L1823,815L1898,825Z" fill="#248b4c" stroke="#248b4c" stroke-width="1.51"/><path d="M1899,1101L1770,1153L1900,1292Z" fill="#006a2b" stroke="#006a2b" stroke-width="1.51"/><path d="M1753,501L1779,743L1946,564Z" fill="#389561" stroke="#389561" stroke-width="1.51"/><path d="M1788,243L1894,261L1948,137Z" fill="#67a67f" stroke="#67a67f" stroke-width="1.51"/><path d="M1738,112L1788,243L1948,137Z" fill="#6fab84" stroke="#6fab84" stroke-width="1.51"/><path d="M1790,-188L1750,-104L1912,-47Z" fill="#82b390" stroke="#82b390" stroke-width="1.51"/><path d="M1750,-104L1738,112L1912,-47Z" fill="#7db28e" stroke="#7db28e" stroke-width="1.51"/><path d="M1788,243L1785,362L1894,261Z" fill="#5fa67c" stroke="#5fa67c" stroke-width="1.51"/><path d="M1736,1034L1770,1153L1899,1101Z" fill="#0b7432" stroke="#0b7432" stroke-width="1.51"/><path d="M1770,1153L1752,1343L1900,1292Z" fill="#036529" stroke="#036529" stroke-width="1.51"/><path d="M1610,-10L1738,112L1750,-104Z" fill="#81b792" stroke="#81b792" stroke-width="1.51"/><path d="M1640,1258L1752,1343L1770,1153Z" fill="#096a2d" stroke="#096a2d" stroke-width="1.51"/><path d="M1753,501L1668,691L1779,743Z" fill="#379960" stroke="#379960" stroke-width="1.51"/><path d="M1779,743L1661,842L1823,815Z" fill="#278e4f" stroke="#278e4f" stroke-width="1.51"/><path d="M1661,842L1736,1034L1823,815Z" fill="#208644" stroke="#208644" stroke-width="1.51"/><path d="M1614,554L1668,691L1753,501Z" fill="#409e6a" stroke="#409e6a" stroke-width="1.51"/><path d="M1691,337L1753,501L1785,362Z" fill="#54a478" stroke="#54a478" stroke-width="1.51"/><path d="M1738,112L1672,275L1788,243Z" fill="#6dae85" stroke="#6dae85" stroke-width="1.51"/><path d="M1691,337L1785,362L1788,243Z" fill="#5fa87e" stroke="#5fa87e" stroke-width="1.51"/><path d="M1672,275L1691,337L1788,243Z" fill="#64ab82" stroke="#64ab82" stroke-width="1.51"/><path d="M1672,-165L1750,-104L1790,-188Z" fill="#87b794" stroke="#87b794" stroke-width="1.51"/><path d="M1661,842L1581,960L1736,1034Z" fill="#1f8642" stroke="#1f8642" stroke-width="1.51"/><path d="M1736,1034L1630,1124L1770,1153Z" fill="#107835" stroke="#107835" stroke-width="1.51"/><path d="M1668,691L1661,842L1779,743Z" fill="#2c9456" stroke="#2c9456" stroke-width="1.51"/><path d="M1630,1124L1640,1258L1770,1153Z" fill="#0c7432" stroke="#0c7432" stroke-width="1.51"/><path d="M1586,125L1672,275L1738,112Z" fill="#75b38b" stroke="#75b38b" stroke-width="1.51"/><path d="M1672,-165L1610,-10L1750,-104Z" fill="#87ba96" stroke="#87ba96" stroke-width="1.51"/><path d="M1640,1258L1474,1333L1752,1343Z" fill="#0e692f" stroke="#0e692f" stroke-width="1.51"/><path d="M1691,337L1614,554L1753,501Z" fill="#4ea374" stroke="#4ea374" stroke-width="1.51"/><path d="M1509,407L1614,554L1691,337Z" fill="#55a97b" stroke="#55a97b" stroke-width="1.51"/><path d="M1610,-10L1586,125L1738,112Z" fill="#7eb891" stroke="#7eb891" stroke-width="1.51"/><path d="M1581,960L1630,1124L1736,1034Z" fill="#19803b" stroke="#19803b" stroke-width="1.51"/><path d="M1672,275L1509,407L1691,337Z" fill="#60ad82" stroke="#60ad82" stroke-width="1.51"/><path d="M1581,960L1534,1114L1630,1124Z" fill="#1a813d" stroke="#1a813d" stroke-width="1.51"/><path d="M1429,814L1661,842L1668,691Z" fill="#2f9858" stroke="#2f9858" stroke-width="1.51"/><path d="M1463,646L1429,814L1668,691Z" fill="#38a063" stroke="#38a063" stroke-width="1.51"/><path d="M1614,554L1463,646L1668,691Z" fill="#3fa169" stroke="#3fa169" stroke-width="1.51"/><path d="M1450,-100L1610,-10L1672,-165Z" fill="#8bbf9b" stroke="#8bbf9b" stroke-width="1.51"/><path d="M1454,-219L1450,-100L1672,-165Z" fill="#90c3a0" stroke="#90c3a0" stroke-width="1.51"/><path d="M1586,125L1501,259L1672,275Z" fill="#72b58c" stroke="#72b58c" stroke-width="1.51"/><path d="M1501,259L1509,407L1672,275Z" fill="#66b287" stroke="#66b287" stroke-width="1.51"/><path d="M1630,1124L1534,1114L1640,1258Z" fill="#117936" stroke="#117936" stroke-width="1.51"/><path d="M1429,814L1581,960L1661,842Z" fill="#2a924e" stroke="#2a924e" stroke-width="1.51"/><path d="M1429,814L1465,950L1581,960Z" fill="#2b924f" stroke="#2b924f" stroke-width="1.51"/><path d="M1473,582L1463,646L1614,554Z" fill="#45a672" stroke="#45a672" stroke-width="1.51"/><path d="M1534,1114L1474,1333L1640,1258Z" fill="#137436" stroke="#137436" stroke-width="1.51"/><path d="M1430,39L1586,125L1610,-10Z" fill="#83be98" stroke="#83be98" stroke-width="1.51"/><path d="M1509,407L1473,582L1614,554Z" fill="#4da979" stroke="#4da979" stroke-width="1.51"/><path d="M1450,-100L1430,39L1610,-10Z" fill="#8ac29f" stroke="#8ac29f" stroke-width="1.51"/><path d="M1359,1193L1474,1333L1534,1114Z" fill="#1a7c3e" stroke="#1a7c3e" stroke-width="1.51"/><path d="M1465,950L1534,1114L1581,960Z" fill="#218944" stroke="#218944" stroke-width="1.51"/><path d="M1430,39L1501,259L1586,125Z" fill="#7fbe97" stroke="#7fbe97" stroke-width="1.51"/><path d="M1430,39L1369,206L1501,259Z" fill="#7fc19b" stroke="#7fc19b" stroke-width="1.51"/><path d="M1501,259L1365,402L1509,407Z" fill="#65b68c" stroke="#65b68c" stroke-width="1.51"/><path d="M1365,402L1473,582L1509,407Z" fill="#57b184" stroke="#57b184" stroke-width="1.51"/><path d="M1465,950L1363,947L1534,1114Z" fill="#268d4a" stroke="#268d4a" stroke-width="1.51"/><path d="M1363,947L1359,1193L1534,1114Z" fill="#228948" stroke="#228948" stroke-width="1.51"/><path d="M1365,402L1374,589L1473,582Z" fill="#51b082" stroke="#51b082" stroke-width="1.51"/><path d="M1369,206L1365,402L1501,259Z" fill="#70bc95" stroke="#70bc95" stroke-width="1.51"/><path d="M1320,132L1369,206L1430,39Z" fill="#86c7a3" stroke="#86c7a3" stroke-width="1.51"/><path d="M1348,-18L1430,39L1450,-100Z" fill="#8ec8a6" stroke="#8ec8a6" stroke-width="1.51"/><path d="M1291,735L1429,814L1463,646Z" fill="#3ca66c" stroke="#3ca66c" stroke-width="1.51"/><path d="M1429,814L1363,947L1465,950Z" fill="#2f9756" stroke="#2f9756" stroke-width="1.51"/><path d="M1374,589L1463,646L1473,582Z" fill="#47aa77" stroke="#47aa77" stroke-width="1.51"/><path d="M1359,1193L1311,1333L1474,1333Z" fill="#1d7840" stroke="#1d7840" stroke-width="1.51"/><path d="M1221,1104L1359,1193L1363,947Z" fill="#289051" stroke="#289051" stroke-width="1.51"/><path d="M1326,848L1363,947L1429,814Z" fill="#349d5e" stroke="#349d5e" stroke-width="1.51"/><path d="M1296,-235L1450,-100L1454,-219Z" fill="#97ccab" stroke="#97ccab" stroke-width="1.51"/><path d="M1374,589L1291,735L1463,646Z" fill="#45ab76" stroke="#45ab76" stroke-width="1.51"/><path d="M1296,-235L1348,-18L1450,-100Z" fill="#95ccad" stroke="#95ccad" stroke-width="1.51"/><path d="M1291,735L1326,848L1429,814Z" fill="#3aa468" stroke="#3aa468" stroke-width="1.51"/><path d="M1348,-18L1320,132L1430,39Z" fill="#8bc8a7" stroke="#8bc8a7" stroke-width="1.51"/><path d="M889,1304L755,1291L1007,1340Z" fill="#3f8962" stroke="#3f8962" stroke-width="1.51"/><path d="M1296,-235L1139,-98L1348,-18Z" fill="#9ad3b6" stroke="#9ad3b6" stroke-width="1.51"/><path d="M1202,38L1320,132L1348,-18Z" fill="#8ecdad" stroke="#8ecdad" stroke-width="1.51"/><path d="M1231,968L1221,1104L1363,947Z" fill="#2f9859" stroke="#2f9859" stroke-width="1.51"/><path d="M1216,392L1169,551L1365,402Z" fill="#61be96" stroke="#61be96" stroke-width="1.51"/><path d="M1132,277L1216,392L1369,206Z" fill="#77c6a3" stroke="#77c6a3" stroke-width="1.51"/><path d="M1216,392L1365,402L1369,206Z" fill="#6ec09a" stroke="#6ec09a" stroke-width="1.51"/><path d="M1172,655L1291,735L1374,589Z" fill="#49b17e" stroke="#49b17e" stroke-width="1.51"/><path d="M1169,551L1172,655L1374,589Z" fill="#50b688" stroke="#50b688" stroke-width="1.51"/><path d="M1365,402L1169,551L1374,589Z" fill="#57b78c" stroke="#57b78c" stroke-width="1.51"/><path d="M1320,132L1132,277L1369,206Z" fill="#81c9a6" stroke="#81c9a6" stroke-width="1.51"/><path d="M381,-265L530,-215L898,-237Z" fill="#ccebe5" stroke="#ccebe5" stroke-width="1.51"/><path d="M1183,1322L1311,1333L1359,1193Z" fill="#227e49" stroke="#227e49" stroke-width="1.51"/><path d="M1326,848L1231,968L1363,947Z" fill="#339c5d" stroke="#339c5d" stroke-width="1.51"/><path d="M1235,-244L1139,-98L1296,-235Z" fill="#9fd5ba" stroke="#9fd5ba" stroke-width="1.51"/><path d="M1221,1104L1183,1322L1359,1193Z" fill="#26884e" stroke="#26884e" stroke-width="1.51"/><path d="M1139,-98L1202,38L1348,-18Z" fill="#97d2b6" stroke="#97d2b6" stroke-width="1.51"/><path d="M1291,735L1171,853L1326,848Z" fill="#3da86e" stroke="#3da86e" stroke-width="1.51"/><path d="M1171,853L1231,968L1326,848Z" fill="#38a266" stroke="#38a266" stroke-width="1.51"/><path d="M1202,38L1132,277L1320,132Z" fill="#8bceae" stroke="#8bceae" stroke-width="1.51"/><path d="M1077,1174L1183,1322L1221,1104Z" fill="#2d8c56" stroke="#2d8c56" stroke-width="1.51"/><path d="M1172,655L1171,853L1291,735Z" fill="#45b079" stroke="#45b079" stroke-width="1.51"/><path d="M1084,801L1171,853L1172,655Z" fill="#48b07c" stroke="#48b07c" stroke-width="1.51"/><path d="M1027,112L1132,277L1202,38Z" fill="#90d1b7" stroke="#90d1b7" stroke-width="1.51"/><path d="M1009,1028L1221,1104L1231,968Z" fill="#369a60" stroke="#369a60" stroke-width="1.51"/><path d="M1026,-259L1139,-98L1235,-244Z" fill="#a5d8c1" stroke="#a5d8c1" stroke-width="1.51"/><path d="M1171,853L1009,1028L1231,968Z" fill="#3ca067" stroke="#3ca067" stroke-width="1.51"/><path d="M984,395L980,490L1169,551Z" fill="#69c3a3" stroke="#69c3a3" stroke-width="1.51"/><path d="M984,395L1169,551L1216,392Z" fill="#69c2a0" stroke="#69c2a0" stroke-width="1.51"/><path d="M1009,1028L1077,1174L1221,1104Z" fill="#369660" stroke="#369660" stroke-width="1.51"/><path d="M1132,277L984,395L1216,392Z" fill="#75c7a9" stroke="#75c7a9" stroke-width="1.51"/><path d="M1139,-98L1046,-98L1202,38Z" fill="#9ed6bf" stroke="#9ed6bf" stroke-width="1.51"/><path d="M1046,-98L1027,112L1202,38Z" fill="#9bd5bf" stroke="#9bd5bf" stroke-width="1.51"/><path d="M1027,112L1005,243L1132,277Z" fill="#8cd0b7" stroke="#8cd0b7" stroke-width="1.51"/><path d="M1026,-259L1046,-98L1139,-98Z" fill="#a5d9c5" stroke="#a5d9c5" stroke-width="1.51"/><path d="M1084,801L1009,1028L1171,853Z" fill="#43a771" stroke="#43a771" stroke-width="1.51"/><path d="M1169,551L1021,709L1172,655Z" fill="#54b88c" stroke="#54b88c" stroke-width="1.51"/><path d="M1021,709L1084,801L1172,655Z" fill="#4fb585" stroke="#4fb585" stroke-width="1.51"/><path d="M1077,1174L1007,1340L1183,1322Z" fill="#308557" stroke="#308557" stroke-width="1.51"/><path d="M980,490L1021,709L1169,551Z" fill="#5dbd97" stroke="#5dbd97" stroke-width="1.51"/><path d="M1005,243L984,395L1132,277Z" fill="#80ccb2" stroke="#80ccb2" stroke-width="1.51"/><path d="M830,890L907,1027L1009,1028Z" fill="#4ba674" stroke="#4ba674" stroke-width="1.51"/><path d="M896,87L1027,112L1046,-98Z" fill="#9fd8c6" stroke="#9fd8c6" stroke-width="1.51"/><path d="M1009,1028L918,1162L1077,1174Z" fill="#3c9866" stroke="#3c9866" stroke-width="1.51"/><path d="M918,1162L1007,1340L1077,1174Z" fill="#378e60" stroke="#378e60" stroke-width="1.51"/><path d="M830,890L1009,1028L1084,801Z" fill="#4aaa78" stroke="#4aaa78" stroke-width="1.51"/><path d="M1021,709L866,742L1084,801Z" fill="#52b78a" stroke="#52b78a" stroke-width="1.51"/><path d="M866,742L830,890L1084,801Z" fill="#54b387" stroke="#54b387" stroke-width="1.51"/><path d="M923,275L984,395L1005,243Z" fill="#83ceb7" stroke="#83ceb7" stroke-width="1.51"/><path d="M918,1162L889,1304L1007,1340Z" fill="#3b8c62" stroke="#3b8c62" stroke-width="1.51"/><path d="M980,490L846,518L1021,709Z" fill="#65c1a1" stroke="#65c1a1" stroke-width="1.51"/><path d="M846,518L866,742L1021,709Z" fill="#61bf9a" stroke="#61bf9a" stroke-width="1.51"/><path d="M1026,-259L898,-237L1046,-98Z" fill="#acddcc" stroke="#acddcc" stroke-width="1.51"/><path d="M898,-237L833,-9L1046,-98Z" fill="#acded0" stroke="#acded0" stroke-width="1.51"/><path d="M833,-9L896,87L1046,-98Z" fill="#a6dccc" stroke="#a6dccc" stroke-width="1.51"/><path d="M896,87L923,275L1005,243Z" fill="#93d4c0" stroke="#93d4c0" stroke-width="1.51"/><path d="M907,1027L918,1162L1009,1028Z" fill="#439d6d" stroke="#439d6d" stroke-width="1.51"/><path d="M896,87L1005,243L1027,112Z" fill="#97d6c2" stroke="#97d6c2" stroke-width="1.51"/><path d="M923,275L929,395L984,395Z" fill="#7fcdb5" stroke="#7fcdb5" stroke-width="1.51"/><path d="M929,395L980,490L984,395Z" fill="#75c8ad" stroke="#75c8ad" stroke-width="1.51"/><path d="M929,395L846,518L980,490Z" fill="#74c8ad" stroke="#74c8ad" stroke-width="1.51"/><path d="M530,-215L702,-155L898,-237Z" fill="#c1e7df" stroke="#c1e7df" stroke-width="1.51"/><path d="M702,-155L833,-9L898,-237Z" fill="#b6e2d8" stroke="#b6e2d8" stroke-width="1.51"/><path d="M755,1291L889,1304L918,1162Z" fill="#439068" stroke="#439068" stroke-width="1.51"/><path d="M907,1027L718,1102L918,1162Z" fill="#4b9f71" stroke="#4b9f71" stroke-width="1.51"/><path d="M896,87L724,107L923,275Z" fill="#a0daca" stroke="#a0daca" stroke-width="1.51"/><path d="M724,107L715,291L923,275Z" fill="#9cd9c8" stroke="#9cd9c8" stroke-width="1.51"/><path d="M727,422L846,518L929,395Z" fill="#7dccb4" stroke="#7dccb4" stroke-width="1.51"/><path d="M923,275L715,291L929,395Z" fill="#8ad2be" stroke="#8ad2be" stroke-width="1.51"/><path d="M715,291L727,422L929,395Z" fill="#8bd1be" stroke="#8bd1be" stroke-width="1.51"/><path d="M830,890L765,943L907,1027Z" fill="#54ab7b" stroke="#54ab7b" stroke-width="1.51"/><path d="M718,1102L755,1291L918,1162Z" fill="#4b9a6f" stroke="#4b9a6f" stroke-width="1.51"/><path d="M620,1245L442,1277L755,1291Z" fill="#589774" stroke="#589774" stroke-width="1.51"/><path d="M770,862L830,890L866,742Z" fill="#5cb58b" stroke="#5cb58b" stroke-width="1.51"/><path d="M846,518L690,744L866,742Z" fill="#6ac29f" stroke="#6ac29f" stroke-width="1.51"/><path d="M765,943L718,1102L907,1027Z" fill="#53a678" stroke="#53a678" stroke-width="1.51"/><path d="M702,-155L739,-19L833,-9Z" fill="#b7e3da" stroke="#b7e3da" stroke-width="1.51"/><path d="M833,-9L724,107L896,87Z" fill="#aaded0" stroke="#aaded0" stroke-width="1.51"/><path d="M681,503L690,744L846,518Z" fill="#76c8ac" stroke="#76c8ac" stroke-width="1.51"/><path d="M690,744L770,862L866,742Z" fill="#64bc93" stroke="#64bc93" stroke-width="1.51"/><path d="M739,-19L724,107L833,-9Z" fill="#b1e0d5" stroke="#b1e0d5" stroke-width="1.51"/><path d="M727,422L681,503L846,518Z" fill="#80cdb6" stroke="#80cdb6" stroke-width="1.51"/><path d="M770,862L765,943L830,890Z" fill="#5cb185" stroke="#5cb185" stroke-width="1.51"/><path d="M563,591L567,660L681,503Z" fill="#82cdb4" stroke="#82cdb4" stroke-width="1.51"/><path d="M681,503L567,660L690,744Z" fill="#7ac9ac" stroke="#7ac9ac" stroke-width="1.51"/><path d="M585,255L715,291L724,107Z" fill="#a7ddd0" stroke="#a7ddd0" stroke-width="1.51"/><path d="M702,-155L639,-59L739,-19Z" fill="#bde6df" stroke="#bde6df" stroke-width="1.51"/><path d="M718,1102L620,1245L755,1291Z" fill="#539a72" stroke="#539a72" stroke-width="1.51"/><path d="M634,999L718,1102L765,943Z" fill="#5cab7e" stroke="#5cab7e" stroke-width="1.51"/><path d="M630,887L765,943L770,862Z" fill="#61b488" stroke="#61b488" stroke-width="1.51"/><path d="M690,744L630,887L770,862Z" fill="#68ba92" stroke="#68ba92" stroke-width="1.51"/><path d="M593,1159L620,1245L718,1102Z" fill="#59a178" stroke="#59a178" stroke-width="1.51"/><path d="M630,887L634,999L765,943Z" fill="#63b286" stroke="#63b286" stroke-width="1.51"/><path d="M639,-59L724,107L739,-19Z" fill="#b7e3da" stroke="#b7e3da" stroke-width="1.51"/><path d="M639,-59L554,46L724,107Z" fill="#bbe5dd" stroke="#bbe5dd" stroke-width="1.51"/><path d="M715,291L545,430L727,422Z" fill="#94d6c4" stroke="#94d6c4" stroke-width="1.51"/><path d="M585,255L545,430L715,291Z" fill="#9edacb" stroke="#9edacb" stroke-width="1.51"/><path d="M554,46L585,255L724,107Z" fill="#b5e3d9" stroke="#b5e3d9" stroke-width="1.51"/><path d="M545,430L681,503L727,422Z" fill="#8cd2bf" stroke="#8cd2bf" stroke-width="1.51"/><path d="M634,999L593,1159L718,1102Z" fill="#5da77d" stroke="#5da77d" stroke-width="1.51"/><path d="M530,-215L639,-59L702,-155Z" fill="#c6e9e3" stroke="#c6e9e3" stroke-width="1.51"/><path d="M567,660L630,887L690,744Z" fill="#72c39e" stroke="#72c39e" stroke-width="1.51"/><path d="M545,430L563,591L681,503Z" fill="#8ad1bc" stroke="#8ad1bc" stroke-width="1.51"/><path d="M444,691L414,786L567,660Z" fill="#84cbab" stroke="#84cbab" stroke-width="1.51"/><path d="M554,46L460,91L585,255Z" fill="#bde7dd" stroke="#bde7dd" stroke-width="1.51"/><path d="M567,660L414,786L630,887Z" fill="#79c5a0" stroke="#79c5a0" stroke-width="1.51"/><path d="M630,887L414,1010L634,999Z" fill="#6cb489" stroke="#6cb489" stroke-width="1.51"/><path d="M414,1010L593,1159L634,999Z" fill="#68ad83" stroke="#68ad83" stroke-width="1.51"/><path d="M403,-57L554,46L639,-59Z" fill="#c7eae4" stroke="#c7eae4" stroke-width="1.51"/><path d="M530,-215L403,-57L639,-59Z" fill="#ccece8" stroke="#ccece8" stroke-width="1.51"/><path d="M-28,-253L179,-212L381,-265Z" fill="#e7f6f7" stroke="#e7f6f7" stroke-width="1.51"/><path d="M414,786L414,1010L630,887Z" fill="#77bc95" stroke="#77bc95" stroke-width="1.51"/><path d="M474,261L545,430L585,255Z" fill="#a7ddd0" stroke="#a7ddd0" stroke-width="1.51"/><path d="M460,91L474,261L585,255Z" fill="#b7e4d9" stroke="#b7e4d9" stroke-width="1.51"/><path d="M414,1010L420,1149L593,1159Z" fill="#6cac83" stroke="#6cac83" stroke-width="1.51"/><path d="M593,1159L442,1277L620,1245Z" fill="#5f9d78" stroke="#5f9d78" stroke-width="1.51"/><path d="M474,261L430,405L545,430Z" fill="#a5ddce" stroke="#a5ddce" stroke-width="1.51"/><path d="M545,430L422,591L563,591Z" fill="#8ed2bd" stroke="#8ed2bd" stroke-width="1.51"/><path d="M420,1149L442,1277L593,1159Z" fill="#66a47e" stroke="#66a47e" stroke-width="1.51"/><path d="M267,1239L137,1289L442,1277Z" fill="#71a081" stroke="#71a081" stroke-width="1.51"/><path d="M430,405L422,591L545,430Z" fill="#99d7c5" stroke="#99d7c5" stroke-width="1.51"/><path d="M422,591L444,691L563,591Z" fill="#8bcfb5" stroke="#8bcfb5" stroke-width="1.51"/><path d="M563,591L444,691L567,660Z" fill="#84cdb0" stroke="#84cdb0" stroke-width="1.51"/><path d="M403,-57L460,91L554,46Z" fill="#c9ebe5" stroke="#c9ebe5" stroke-width="1.51"/><path d="M317,878L414,1010L414,786Z" fill="#80c099" stroke="#80c099" stroke-width="1.51"/><path d="M381,-265L403,-57L530,-215Z" fill="#d7f0ec" stroke="#d7f0ec" stroke-width="1.51"/><path d="M381,-265L320,-85L403,-57Z" fill="#dbf1ef" stroke="#dbf1ef" stroke-width="1.51"/><path d="M283,576L422,591L430,405Z" fill="#9bd8c5" stroke="#9bd8c5" stroke-width="1.51"/><path d="M403,-57L293,45L460,91Z" fill="#d0ede9" stroke="#d0ede9" stroke-width="1.51"/><path d="M460,91L294,212L474,261Z" fill="#c1e8df" stroke="#c1e8df" stroke-width="1.51"/><path d="M294,212L430,405L474,261Z" fill="#b4e3d8" stroke="#b4e3d8" stroke-width="1.51"/><path d="M294,212L242,355L430,405Z" fill="#b5e3d9" stroke="#b5e3d9" stroke-width="1.51"/><path d="M293,45L294,212L460,91Z" fill="#cdede7" stroke="#cdede7" stroke-width="1.51"/><path d="M414,1010L291,1028L420,1149Z" fill="#77b28b" stroke="#77b28b" stroke-width="1.51"/><path d="M420,1149L267,1239L442,1277Z" fill="#6ea481" stroke="#6ea481" stroke-width="1.51"/><path d="M422,591L267,641L444,691Z" fill="#92d2b8" stroke="#92d2b8" stroke-width="1.51"/><path d="M267,641L414,786L444,691Z" fill="#8dcfb1" stroke="#8dcfb1" stroke-width="1.51"/><path d="M317,878L291,1028L414,1010Z" fill="#7eba92" stroke="#7eba92" stroke-width="1.51"/><path d="M291,1028L257,1149L420,1149Z" fill="#77b089" stroke="#77b089" stroke-width="1.51"/><path d="M283,576L267,641L422,591Z" fill="#98d5be" stroke="#98d5be" stroke-width="1.51"/><path d="M242,355L283,576L430,405Z" fill="#a7ddcf" stroke="#a7ddcf" stroke-width="1.51"/><path d="M233,-178L320,-85L381,-265Z" fill="#dff3f2" stroke="#dff3f2" stroke-width="1.51"/><path d="M257,1149L267,1239L420,1149Z" fill="#74aa85" stroke="#74aa85" stroke-width="1.51"/><path d="M320,-85L293,45L403,-57Z" fill="#d7f0ee" stroke="#d7f0ee" stroke-width="1.51"/><path d="M267,641L317,878L414,786Z" fill="#8bccab" stroke="#8bccab" stroke-width="1.51"/><path d="M179,-212L233,-178L381,-265Z" fill="#e3f5f4" stroke="#e3f5f4" stroke-width="1.51"/><path d="M99,737L112,798L267,641Z" fill="#96d1b6" stroke="#96d1b6" stroke-width="1.51"/><path d="M242,355L104,518L283,576Z" fill="#a8ddce" stroke="#a8ddce" stroke-width="1.51"/><path d="M293,45L131,81L294,212Z" fill="#d2efea" stroke="#d2efea" stroke-width="1.51"/><path d="M131,81L131,194L294,212Z" fill="#d0ede9" stroke="#d0ede9" stroke-width="1.51"/><path d="M267,641L112,798L317,878Z" fill="#90cdad" stroke="#90cdad" stroke-width="1.51"/><path d="M133,979L291,1028L317,878Z" fill="#82bc96" stroke="#82bc96" stroke-width="1.51"/><path d="M99,-58L293,45L320,-85Z" fill="#dbf2f1" stroke="#dbf2f1" stroke-width="1.51"/><path d="M233,-178L99,-58L320,-85Z" fill="#e0f3f4" stroke="#e0f3f4" stroke-width="1.51"/><path d="M112,798L133,979L317,878Z" fill="#8ac4a1" stroke="#8ac4a1" stroke-width="1.51"/><path d="M141,360L104,518L242,355Z" fill="#b2e1d6" stroke="#b2e1d6" stroke-width="1.51"/><path d="M133,979L257,1149L291,1028Z" fill="#7eb590" stroke="#7eb590" stroke-width="1.51"/><path d="M99,-58L131,81L293,45Z" fill="#dbf2f1" stroke="#dbf2f1" stroke-width="1.51"/><path d="M131,194L242,355L294,212Z" fill="#c3e8e1" stroke="#c3e8e1" stroke-width="1.51"/><path d="M131,194L141,360L242,355Z" fill="#bfe7df" stroke="#bfe7df" stroke-width="1.51"/><path d="M104,518L267,641L283,576Z" fill="#9ed7c4" stroke="#9ed7c4" stroke-width="1.51"/><path d="M86,1156L137,1289L257,1149Z" fill="#79aa89" stroke="#79aa89" stroke-width="1.51"/><path d="M133,979L86,1156L257,1149Z" fill="#7fb38f" stroke="#7fb38f" stroke-width="1.51"/><path d="M104,518L99,737L267,641Z" fill="#9dd6c0" stroke="#9dd6c0" stroke-width="1.51"/><path d="M257,1149L137,1289L267,1239Z" fill="#75a685" stroke="#75a685" stroke-width="1.51"/><path d="M179,-212L99,-58L233,-178Z" fill="#e4f5f6" stroke="#e4f5f6" stroke-width="1.51"/><path d="M9,561L99,737L104,518Z" fill="#a2d9c5" stroke="#a2d9c5" stroke-width="1.51"/><path d="M112,798L9,844L133,979Z" fill="#8fc6a5" stroke="#8fc6a5" stroke-width="1.51"/><path d="M131,194L14,289L141,360Z" fill="#c4e9e3" stroke="#c4e9e3" stroke-width="1.51"/><path d="M-28,-253L99,-58L179,-212Z" fill="#e8f6f9" stroke="#e8f6f9" stroke-width="1.51"/><path d="M-28,-253L-22,-58L99,-58Z" fill="#e9f6fa" stroke="#e9f6fa" stroke-width="1.51"/><path d="M9,561L-28,697L99,737Z" fill="#a0d6bf" stroke="#a0d6bf" stroke-width="1.51"/><path d="M-39,86L131,194L131,81Z" fill="#d9f1ef" stroke="#d9f1ef" stroke-width="1.51"/><path d="M99,-58L-39,86L131,81Z" fill="#def3f3" stroke="#def3f3" stroke-width="1.51"/><path d="M-46,1020L86,1156L133,979Z" fill="#85b895" stroke="#85b895" stroke-width="1.51"/><path d="M86,1156L13,1305L137,1289Z" fill="#79a588" stroke="#79a588" stroke-width="1.51"/><path d="M-44,363L104,518L141,360Z" fill="#b6e3da" stroke="#b6e3da" stroke-width="1.51"/><path d="M14,289L-44,363L141,360Z" fill="#c0e7e0" stroke="#c0e7e0" stroke-width="1.51"/><path d="M-22,-58L-39,86L99,-58Z" fill="#e3f4f6" stroke="#e3f4f6" stroke-width="1.51"/><path d="M9,844L-46,1020L133,979Z" fill="#8cc19c" stroke="#8cc19c" stroke-width="1.51"/><path d="M-39,86L14,289L131,194Z" fill="#d2eeeb" stroke="#d2eeeb" stroke-width="1.51"/><path d="M-40,1191L13,1305L86,1156Z" fill="#7daa8b" stroke="#7daa8b" stroke-width="1.51"/><path d="M-44,363L9,561L104,518Z" fill="#b0dfd3" stroke="#b0dfd3" stroke-width="1.51"/><path d="M99,737L9,844L112,798Z" fill="#95ceb0" stroke="#95ceb0" stroke-width="1.51"/><path d="M-46,1020L-40,1191L86,1156Z" fill="#83b390" stroke="#83b390" stroke-width="1.51"/><path d="M-28,697L9,844L99,737Z" fill="#98d1b4" stroke="#98d1b4" stroke-width="1.51"/><path d="M-138,783L-151,1033L-46,1020Z" fill="#90c29e" stroke="#90c29e" stroke-width="1.51"/><path d="M-28,-253L-121,-183L-22,-58Z" fill="#edf8fb" stroke="#edf8fb" stroke-width="1.51"/><path d="M-44,363L-130,397L9,561Z" fill="#b7e3d8" stroke="#b7e3d8" stroke-width="1.51"/><path d="M-130,397L-173,489L9,561Z" fill="#b4e1d4" stroke="#b4e1d4" stroke-width="1.51"/><path d="M-173,489L-28,697L9,561Z" fill="#a8dbca" stroke="#a8dbca" stroke-width="1.51"/><path d="M-28,697L-138,783L9,844Z" fill="#9ad1b3" stroke="#9ad1b3" stroke-width="1.51"/><path d="M-138,783L-46,1020L9,844Z" fill="#93c8a6" stroke="#93c8a6" stroke-width="1.51"/><path d="M-40,1191L-152,1337L13,1305Z" fill="#7ca488" stroke="#7ca488" stroke-width="1.51"/><path d="M-39,86L-193,290L14,289Z" fill="#d1eeea" stroke="#d1eeea" stroke-width="1.51"/><path d="M-193,290L-44,363L14,289Z" fill="#c6e9e3" stroke="#c6e9e3" stroke-width="1.51"/><path d="M-46,1020L-151,1033L-40,1191Z" fill="#88b794" stroke="#88b794" stroke-width="1.51"/><path d="M-207,92L-193,290L-39,86Z" fill="#dbf2ef" stroke="#dbf2ef" stroke-width="1.51"/><path d="M-173,489L-206,734L-28,697Z" fill="#a7d9c4" stroke="#a7d9c4" stroke-width="1.51"/><path d="M-186,-51L-39,86L-22,-58Z" fill="#e5f5f6" stroke="#e5f5f6" stroke-width="1.51"/><path d="M-121,-183L-186,-51L-22,-58Z" fill="#ebf8fa" stroke="#ebf8fa" stroke-width="1.51"/><path d="M-151,1033L-222,1095L-40,1191Z" fill="#88b792" stroke="#88b792" stroke-width="1.51"/><path d="M-186,-51L-207,92L-39,86Z" fill="#e4f5f5" stroke="#e4f5f5" stroke-width="1.51"/><path d="M-206,734L-138,783L-28,697Z" fill="#9fd5b8" stroke="#9fd5b8" stroke-width="1.51"/><path d="M-193,290L-130,397L-44,363Z" fill="#c3e8e0" stroke="#c3e8e0" stroke-width="1.51"/><path d="M-222,1095L-152,1337L-40,1191Z" fill="#82ad8c" stroke="#82ad8c" stroke-width="1.51"/><path d="M-206,734L-222,1095L-151,1033Z" fill="#92c39d" stroke="#92c39d" stroke-width="1.51"/><path d="M-206,734L-151,1033L-138,783Z" fill="#99cbaa" stroke="#99cbaa" stroke-width="1.51"/><path d="M-193,290L-173,489L-130,397Z" fill="#c0e6dd" stroke="#c0e6dd" stroke-width="1.51"/><path d="M-193,290L-206,734L-173,489Z" fill="#b4e1d2" stroke="#b4e1d2" stroke-width="1.51"/><path d="M-207,92L-206,734L-193,290Z" fill="#c3e8df" stroke="#c3e8df" stroke-width="1.51"/><path d="M-207,92L-222,1095L-206,734Z" fill="#a9dac4" stroke="#a9dac4" stroke-width="1.51"/></svg>