<svg xmlns="http://www.w3.org/2000/svg" width="1920" height="1080">
    <path d="M239,1293L-142,1326L471,1301Z" fill="#729d82" stroke="#729d82" stroke-width="1.51"/>
    <path d="M-4,-259L703,-220L983,-254Z" fill="#cfede7" stroke="#cfede7" stroke-width="1.51"/>
    <path d="M715,1305L471,1301L1049,1336Z" fill="#4a8d6a" stroke="#4a8d6a" stroke-width="1.51"/>
    <path d="M471,1301L-142,1326L1049,1336Z" fill="#629678" stroke="#629678" stroke-width="1.51"/>
    <path d="M983,-254L1150,-237L1285,-233Z" fill="#a6d9c1" stroke="#a6d9c1" stroke-width="1.51"/>
    <path d="M983,-254L1285,-233L1651,-250Z" fill="#9ed2b3" stroke="#9ed2b3" stroke-width="1.51"/>
    <path d="M-4,-259L983,-254L1810,-263Z" fill="#b2e0d1" stroke="#b2e0d1" stroke-width="1.51"/>
    <path d="M983,-254L1651,-250L1810,-263Z" fill="#96c8a4" stroke="#96c8a4" stroke-width="1.51"/>
    <path d="M1481,1288L1358,1292L1884,1334Z" fill="#116c32" stroke="#116c32" stroke-width="1.51"/>
    <path d="M1358,1292L1049,1336L1884,1334Z" fill="#19723b" stroke="#19723b" stroke-width="1.51"/>
    <path d="M1608,1270L1481,1288L1884,1334Z" fill="#0c692e" stroke="#0c692e" stroke-width="1.51"/>
    <path d="M1985,385L1924,559L2067,594Z" fill="#3d8e64" stroke="#3d8e64" stroke-width="1.51"/>
    <path d="M2039,944L1927,1195L2108,1185Z" fill="#04652a" stroke="#04652a" stroke-width="1.51"/>
    <path d="M2111,692L1914,671L2119,822Z" fill="#25804c" stroke="#25804c" stroke-width="1.51"/>
    <path d="M2039,944L2108,1185L2119,822Z" fill="#0f6930" stroke="#0f6930" stroke-width="1.51"/>
    <path d="M1953,117L2100,255L2123,112Z" fill="#689a7b" stroke="#689a7b" stroke-width="1.51"/>
    <path d="M2031,-71L1953,117L2123,112Z" fill="#71a082" stroke="#71a082" stroke-width="1.51"/>
    <path d="M2100,255L1985,385L2124,431Z" fill="#4f916e" stroke="#4f916e" stroke-width="1.51"/>
    <path d="M1985,385L2067,594L2124,431Z" fill="#418b65" stroke="#418b65" stroke-width="1.51"/>
    <path d="M2067,594L2111,692L2124,431Z" fill="#34835a" stroke="#34835a" stroke-width="1.51"/>
    <path d="M2111,692L2119,822L2124,431Z" fill="#2d7f52" stroke="#2d7f52" stroke-width="1.51"/>
    <path d="M2123,112L2100,255L2124,431Z" fill="#599172" stroke="#599172" stroke-width="1.51"/>
    <path d="M1910,-249L2031,-71L2127,-157Z" fill="#7da588" stroke="#7da588" stroke-width="1.51"/>
    <path d="M2031,-71L2123,112L2127,-157Z" fill="#749d83" stroke="#749d83" stroke-width="1.51"/>
    <path d="M2123,112L2124,431L2127,-157Z" fill="#6a977b" stroke="#6a977b" stroke-width="1.51"/>
    <path d="M1914,955L1927,1195L2039,944Z" fill="#0c6f30" stroke="#0c6f30" stroke-width="1.51"/>
    <path d="M1914,671L1890,877L2119,822Z" fill="#218147" stroke="#218147" stroke-width="1.51"/>
    <path d="M1890,877L2039,944L2119,822Z" fill="#19763c" stroke="#19763c" stroke-width="1.51"/>
    <path d="M1927,1195L2052,1317L2108,1185Z" fill="#005924" stroke="#005924" stroke-width="1.51"/>
    <path d="M2067,594L1914,671L2111,692Z" fill="#2e8455" stroke="#2e8455" stroke-width="1.51"/>
    <path d="M1918,282L1985,385L2100,255Z" fill="#589874" stroke="#589874" stroke-width="1.51"/>
    <path d="M1953,117L1918,282L2100,255Z" fill="#639d7a" stroke="#639d7a" stroke-width="1.51"/>
    <path d="M1924,559L1914,671L2067,594Z" fill="#348b5c" stroke="#348b5c" stroke-width="1.51"/>
    <path d="M1767,1281L1608,1270L1884,1334Z" fill="#06652b" stroke="#06652b" stroke-width="1.51"/>
    <path d="M1885,-71L1953,117L2031,-71Z" fill="#77a787" stroke="#77a787" stroke-width="1.51"/>
    <path d="M1910,-249L1885,-71L2031,-71Z" fill="#7faa8b" stroke="#7faa8b" stroke-width="1.51"/>
    <path d="M1890,877L1914,955L2039,944Z" fill="#157839" stroke="#157839" stroke-width="1.51"/>
    <path d="M1927,1195L1884,1334L2052,1317Z" fill="#005a24" stroke="#005a24" stroke-width="1.51"/>
    <path d="M1786,722L1890,877L1914,671Z" fill="#268c4f" stroke="#268c4f" stroke-width="1.51"/>
    <path d="M1914,955L1791,1195L1927,1195Z" fill="#046f2e" stroke="#046f2e" stroke-width="1.51"/>
    <path d="M1885,-71L1794,101L1953,117Z" fill="#77ac88" stroke="#77ac88" stroke-width="1.51"/>
    <path d="M1812,337L1924,559L1985,385Z" fill="#4b996e" stroke="#4b996e" stroke-width="1.51"/>
    <path d="M1918,282L1812,337L1985,385Z" fill="#579e76" stroke="#579e76" stroke-width="1.51"/>
    <path d="M1760,973L1791,1195L1914,955Z" fill="#0e7734" stroke="#0e7734" stroke-width="1.51"/>
    <path d="M1812,337L1765,533L1924,559Z" fill="#469c6d" stroke="#469c6d" stroke-width="1.51"/>
    <path d="M1794,101L1918,282L1953,117Z" fill="#6ca781" stroke="#6ca781" stroke-width="1.51"/>
    <path d="M1791,1195L1767,1281L1884,1334Z" fill="#026429" stroke="#026429" stroke-width="1.51"/>
    <path d="M1756,-37L1794,101L1885,-71Z" fill="#7db18d" stroke="#7db18d" stroke-width="1.51"/>
    <path d="M1786,722L1827,894L1890,877Z" fill="#218748" stroke="#218748" stroke-width="1.51"/>
    <path d="M1810,-263L1885,-71L1910,-249Z" fill="#84b18e" stroke="#84b18e" stroke-width="1.51"/>
    <path d="M1730,188L1812,337L1918,282Z" fill="#62a77e" stroke="#62a77e" stroke-width="1.51"/>
    <path d="M1794,101L1730,188L1918,282Z" fill="#6dab83" stroke="#6dab83" stroke-width="1.51"/>
    <path d="M1765,533L1914,671L1924,559Z" fill="#389461" stroke="#389461" stroke-width="1.51"/>
    <path d="M1791,1195L1884,1334L1927,1195Z" fill="#006428" stroke="#006428" stroke-width="1.51"/>
    <path d="M1765,533L1786,722L1914,671Z" fill="#34945d" stroke="#34945d" stroke-width="1.51"/>
    <path d="M1890,877L1827,894L1914,955Z" fill="#187e3d" stroke="#187e3d" stroke-width="1.51"/>
    <path d="M1827,894L1760,973L1914,955Z" fill="#177e3b" stroke="#177e3b" stroke-width="1.51"/>
    <path d="M1810,-263L1756,-37L1885,-71Z" fill="#83b390" stroke="#83b390" stroke-width="1.51"/>
    <path d="M1675,-91L1756,-37L1810,-263Z" fill="#86b793" stroke="#86b793" stroke-width="1.51"/>
    <path d="M1285,-233L1518,-203L1651,-250Z" fill="#95c7a4" stroke="#95c7a4" stroke-width="1.51"/>
    <path d="M1765,533L1658,545L1786,722Z" fill="#3b9a65" stroke="#3b9a65" stroke-width="1.51"/>
    <path d="M1760,973L1606,1168L1791,1195Z" fill="#0e7735" stroke="#0e7735" stroke-width="1.51"/>
    <path d="M1651,-250L1675,-91L1810,-263Z" fill="#8bba95" stroke="#8bba95" stroke-width="1.51"/>
    <path d="M1679,394L1765,533L1812,337Z" fill="#51a375" stroke="#51a375" stroke-width="1.51"/>
    <path d="M1786,722L1606,867L1827,894Z" fill="#258c4c" stroke="#258c4c" stroke-width="1.51"/>
    <path d="M1606,867L1760,973L1827,894Z" fill="#1f8643" stroke="#1f8643" stroke-width="1.51"/>
    <path d="M1642,964L1606,1168L1760,973Z" fill="#187f3b" stroke="#187f3b" stroke-width="1.51"/>
    <path d="M1610,724L1606,867L1786,722Z" fill="#2d9556" stroke="#2d9556" stroke-width="1.51"/>
    <path d="M1730,188L1679,394L1812,337Z" fill="#60a97f" stroke="#60a97f" stroke-width="1.51"/>
    <path d="M1663,194L1679,394L1730,188Z" fill="#68ae84" stroke="#68ae84" stroke-width="1.51"/>
    <path d="M1606,867L1642,964L1760,973Z" fill="#1f8742" stroke="#1f8742" stroke-width="1.51"/>
    <path d="M1658,545L1610,724L1786,722Z" fill="#379a60" stroke="#379a60" stroke-width="1.51"/>
    <path d="M1663,194L1730,188L1794,101Z" fill="#73b189" stroke="#73b189" stroke-width="1.51"/>
    <path d="M1583,130L1663,194L1794,101Z" fill="#78b48c" stroke="#78b48c" stroke-width="1.51"/>
    <path d="M1756,-37L1583,130L1794,101Z" fill="#7cb58f" stroke="#7cb58f" stroke-width="1.51"/>
    <path d="M1606,1168L1767,1281L1791,1195Z" fill="#096e2f" stroke="#096e2f" stroke-width="1.51"/>
    <path d="M1679,394L1658,545L1765,533Z" fill="#4aa172" stroke="#4aa172" stroke-width="1.51"/>
    <path d="M1606,1168L1608,1270L1767,1281Z" fill="#0d6f31" stroke="#0d6f31" stroke-width="1.51"/>
    <path d="M1675,-91L1583,130L1756,-37Z" fill="#81b994" stroke="#81b994" stroke-width="1.51"/>
    <path d="M1185,1288L1049,1336L1358,1292Z" fill="#287f4e" stroke="#287f4e" stroke-width="1.51"/>
    <path d="M1478,1135L1606,1168L1642,964Z" fill="#19803c" stroke="#19803c" stroke-width="1.51"/>
    <path d="M1454,1010L1478,1135L1642,964Z" fill="#1f8743" stroke="#1f8743" stroke-width="1.51"/>
    <path d="M1470,697L1610,724L1658,545Z" fill="#3ca066" stroke="#3ca066" stroke-width="1.51"/>
    <path d="M1492,71L1583,130L1675,-91Z" fill="#83bc96" stroke="#83bc96" stroke-width="1.51"/>
    <path d="M1469,-69L1492,71L1675,-91Z" fill="#89c09b" stroke="#89c09b" stroke-width="1.51"/>
    <path d="M1651,-250L1518,-203L1675,-91Z" fill="#8dbe9a" stroke="#8dbe9a" stroke-width="1.51"/>
    <path d="M1446,418L1492,495L1679,394Z" fill="#57ad7e" stroke="#57ad7e" stroke-width="1.51"/>
    <path d="M1484,264L1446,418L1679,394Z" fill="#61b185" stroke="#61b185" stroke-width="1.51"/>
    <path d="M1492,495L1658,545L1679,394Z" fill="#4fa777" stroke="#4fa777" stroke-width="1.51"/>
    <path d="M1663,194L1484,264L1679,394Z" fill="#68b186" stroke="#68b186" stroke-width="1.51"/>
    <path d="M1518,-203L1469,-69L1675,-91Z" fill="#8dc19d" stroke="#8dc19d" stroke-width="1.51"/>
    <path d="M1492,495L1470,697L1658,545Z" fill="#45a571" stroke="#45a571" stroke-width="1.51"/>
    <path d="M1583,130L1484,264L1663,194Z" fill="#74b78e" stroke="#74b78e" stroke-width="1.51"/>
    <path d="M1606,867L1454,1010L1642,964Z" fill="#238b45" stroke="#238b45" stroke-width="1.51"/>
    <path d="M1454,794L1454,1010L1606,867Z" fill="#2b9351" stroke="#2b9351" stroke-width="1.51"/>
    <path d="M1478,1135L1481,1288L1606,1168Z" fill="#167a3a" stroke="#167a3a" stroke-width="1.51"/>
    <path d="M1606,1168L1481,1288L1608,1270Z" fill="#137335" stroke="#137335" stroke-width="1.51"/>
    <path d="M1454,794L1606,867L1610,724Z" fill="#2f9858" stroke="#2f9858" stroke-width="1.51"/>
    <path d="M1470,697L1454,794L1610,724Z" fill="#36a062" stroke="#36a062" stroke-width="1.51"/>
    <path d="M1492,71L1484,264L1583,130Z" fill="#7cbc95" stroke="#7cbc95" stroke-width="1.51"/>
    <path d="M1327,807L1454,1010L1454,794Z" fill="#329a5a" stroke="#329a5a" stroke-width="1.51"/>
    <path d="M1358,240L1484,264L1492,71Z" fill="#7bbf99" stroke="#7bbf99" stroke-width="1.51"/>
    <path d="M1320,527L1470,697L1492,495Z" fill="#4bac7b" stroke="#4bac7b" stroke-width="1.51"/>
    <path d="M1285,-233L1469,-69L1518,-203Z" fill="#95caa8" stroke="#95caa8" stroke-width="1.51"/>
    <path d="M1327,807L1297,981L1454,1010Z" fill="#2f9858" stroke="#2f9858" stroke-width="1.51"/>
    <path d="M1320,527L1334,719L1470,697Z" fill="#46ac77" stroke="#46ac77" stroke-width="1.51"/>
    <path d="M1321,1169L1358,1292L1478,1135Z" fill="#1e8144" stroke="#1e8144" stroke-width="1.51"/>
    <path d="M1478,1135L1358,1292L1481,1288Z" fill="#1b7a3e" stroke="#1b7a3e" stroke-width="1.51"/>
    <path d="M1358,240L1446,418L1484,264Z" fill="#6dba92" stroke="#6dba92" stroke-width="1.51"/>
    <path d="M1469,-69L1279,-50L1492,71Z" fill="#8dc7a6" stroke="#8dc7a6" stroke-width="1.51"/>
    <path d="M1279,-50L1292,133L1492,71Z" fill="#8cc9a8" stroke="#8cc9a8" stroke-width="1.51"/>
    <path d="M1292,133L1358,240L1492,71Z" fill="#83c5a1" stroke="#83c5a1" stroke-width="1.51"/>
    <path d="M1446,418L1320,527L1492,495Z" fill="#57b185" stroke="#57b185" stroke-width="1.51"/>
    <path d="M1285,-233L1279,-50L1469,-69Z" fill="#96cdaf" stroke="#96cdaf" stroke-width="1.51"/>
    <path d="M1454,1010L1321,1169L1478,1135Z" fill="#218847" stroke="#218847" stroke-width="1.51"/>
    <path d="M1334,719L1454,794L1470,697Z" fill="#3ba56a" stroke="#3ba56a" stroke-width="1.51"/>
    <path d="M-4,-259L585,-193L703,-220Z" fill="#daf1ed" stroke="#daf1ed" stroke-width="1.51"/>
    <path d="M1358,240L1307,427L1446,418Z" fill="#68bb93" stroke="#68bb93" stroke-width="1.51"/>
    <path d="M1297,981L1321,1169L1454,1010Z" fill="#288f4f" stroke="#288f4f" stroke-width="1.51"/>
    <path d="M1307,427L1320,527L1446,418Z" fill="#5cb68c" stroke="#5cb68c" stroke-width="1.51"/>
    <path d="M1334,719L1327,807L1454,794Z" fill="#3aa569" stroke="#3aa569" stroke-width="1.51"/>
    <path d="M1214,951L1297,981L1327,807Z" fill="#349f60" stroke="#349f60" stroke-width="1.51"/>
    <path d="M1320,527L1220,532L1334,719Z" fill="#4eb384" stroke="#4eb384" stroke-width="1.51"/>
    <path d="M1220,532L1217,731L1334,719Z" fill="#49b27f" stroke="#49b27f" stroke-width="1.51"/>
    <path d="M1292,133L1174,190L1358,240Z" fill="#83c9a7" stroke="#83c9a7" stroke-width="1.51"/>
    <path d="M1227,431L1307,427L1358,240Z" fill="#6ac099" stroke="#6ac099" stroke-width="1.51"/>
    <path d="M1174,190L1227,431L1358,240Z" fill="#77c6a3" stroke="#77c6a3" stroke-width="1.51"/>
    <path d="M1321,1169L1185,1288L1358,1292Z" fill="#228249" stroke="#228249" stroke-width="1.51"/>
    <path d="M1173,-95L1279,-50L1285,-233Z" fill="#9bd3b7" stroke="#9bd3b7" stroke-width="1.51"/>
    <path d="M1214,951L1136,1189L1297,981Z" fill="#31975b" stroke="#31975b" stroke-width="1.51"/>
    <path d="M1307,427L1227,431L1320,527Z" fill="#5ebb92" stroke="#5ebb92" stroke-width="1.51"/>
    <path d="M1227,431L1220,532L1320,527Z" fill="#5bbb91" stroke="#5bbb91" stroke-width="1.51"/>
    <path d="M1297,981L1136,1189L1321,1169Z" fill="#2a9153" stroke="#2a9153" stroke-width="1.51"/>
    <path d="M1132,884L1214,951L1327,807Z" fill="#3aa368" stroke="#3aa368" stroke-width="1.51"/>
    <path d="M1217,731L1327,807L1334,719Z" fill="#3fab73" stroke="#3fab73" stroke-width="1.51"/>
    <path d="M-4,-259L107,-216L585,-193Z" fill="#e5f5f5" stroke="#e5f5f5" stroke-width="1.51"/>
    <path d="M1279,-50L1146,140L1292,133Z" fill="#8fcfb1" stroke="#8fcfb1" stroke-width="1.51"/>
    <path d="M1136,1189L1185,1288L1321,1169Z" fill="#288851" stroke="#288851" stroke-width="1.51"/>
    <path d="M1217,731L1132,884L1327,807Z" fill="#40a971" stroke="#40a971" stroke-width="1.51"/>
    <path d="M1173,-95L1146,140L1279,-50Z" fill="#97d2b7" stroke="#97d2b7" stroke-width="1.51"/>
    <path d="M1150,-237L1173,-95L1285,-233Z" fill="#a1d6bb" stroke="#a1d6bb" stroke-width="1.51"/>
    <path d="M1174,190L1057,378L1227,431Z" fill="#76c7a7" stroke="#76c7a7" stroke-width="1.51"/>
    <path d="M1146,140L1174,190L1292,133Z" fill="#8bceb0" stroke="#8bceb0" stroke-width="1.51"/>
    <path d="M1060,1144L1136,1189L1214,951Z" fill="#34955e" stroke="#34955e" stroke-width="1.51"/>
    <path d="M1046,-7L1146,140L1173,-95Z" fill="#9ad4bd" stroke="#9ad4bd" stroke-width="1.51"/>
    <path d="M1039,1005L1060,1144L1214,951Z" fill="#3a9b64" stroke="#3a9b64" stroke-width="1.51"/>
    <path d="M1018,545L1018,723L1217,731Z" fill="#54b88c" stroke="#54b88c" stroke-width="1.51"/>
    <path d="M1018,545L1217,731L1220,532Z" fill="#56b98e" stroke="#56b98e" stroke-width="1.51"/>
    <path d="M1057,378L1018,545L1220,532Z" fill="#65c19e" stroke="#65c19e" stroke-width="1.51"/>
    <path d="M1057,378L1220,532L1227,431Z" fill="#67c09c" stroke="#67c09c" stroke-width="1.51"/>
    <path d="M1018,723L1132,884L1217,731Z" fill="#48af7c" stroke="#48af7c" stroke-width="1.51"/>
    <path d="M1132,884L1039,1005L1214,951Z" fill="#3da168" stroke="#3da168" stroke-width="1.51"/>
    <path d="M880,1278L715,1305L1049,1336Z" fill="#3f8964" stroke="#3f8964" stroke-width="1.51"/>
    <path d="M1018,723L989,787L1132,884Z" fill="#4cb080" stroke="#4cb080" stroke-width="1.51"/>
    <path d="M994,190L1057,378L1174,190Z" fill="#85cdb3" stroke="#85cdb3" stroke-width="1.51"/>
    <path d="M1136,1189L1049,1336L1185,1288Z" fill="#2e8555" stroke="#2e8555" stroke-width="1.51"/>
    <path d="M1150,-237L983,-254L1173,-95Z" fill="#a6d9c3" stroke="#a6d9c3" stroke-width="1.51"/>
    <path d="M983,-254L1046,-7L1173,-95Z" fill="#a5d9c5" stroke="#a5d9c5" stroke-width="1.51"/>
    <path d="M1146,140L994,190L1174,190Z" fill="#8ed0b6" stroke="#8ed0b6" stroke-width="1.51"/>
    <path d="M107,-216L458,-170L585,-193Z" fill="#dcf2ef" stroke="#dcf2ef" stroke-width="1.51"/>
    <path d="M983,-254L911,-110L1046,-7Z" fill="#a9dccd" stroke="#a9dccd" stroke-width="1.51"/>
    <path d="M1060,1144L1049,1336L1136,1189Z" fill="#328c5a" stroke="#328c5a" stroke-width="1.51"/>
    <path d="M1046,-7L980,144L1146,140Z" fill="#98d5be" stroke="#98d5be" stroke-width="1.51"/>
    <path d="M980,144L994,190L1146,140Z" fill="#93d3bc" stroke="#93d3bc" stroke-width="1.51"/>
    <path d="M932,827L1039,1005L1132,884Z" fill="#46a874" stroke="#46a874" stroke-width="1.51"/>
    <path d="M989,787L932,827L1132,884Z" fill="#4bae7e" stroke="#4bae7e" stroke-width="1.51"/>
    <path d="M902,-156L911,-110L983,-254Z" fill="#aeded0" stroke="#aeded0" stroke-width="1.51"/>
    <path d="M902,969L847,1167L1039,1005Z" fill="#46a06f" stroke="#46a06f" stroke-width="1.51"/>
    <path d="M932,827L902,969L1039,1005Z" fill="#49a876" stroke="#49a876" stroke-width="1.51"/>
    <path d="M923,131L980,144L1046,-7Z" fill="#9cd7c4" stroke="#9cd7c4" stroke-width="1.51"/>
    <path d="M994,190L845,234L1057,378Z" fill="#89d0ba" stroke="#89d0ba" stroke-width="1.51"/>
    <path d="M845,234L832,378L1057,378Z" fill="#85cfba" stroke="#85cfba" stroke-width="1.51"/>
    <path d="M842,514L1018,545L1057,378Z" fill="#6ec5a8" stroke="#6ec5a8" stroke-width="1.51"/>
    <path d="M832,378L842,514L1057,378Z" fill="#7acab1" stroke="#7acab1" stroke-width="1.51"/>
    <path d="M1039,1005L847,1167L1060,1144Z" fill="#3e9a68" stroke="#3e9a68" stroke-width="1.51"/>
    <path d="M880,1278L1049,1336L1060,1144Z" fill="#378b5f" stroke="#378b5f" stroke-width="1.51"/>
    <path d="M847,1167L880,1278L1060,1144Z" fill="#3e9366" stroke="#3e9366" stroke-width="1.51"/>
    <path d="M1018,545L868,743L1018,723Z" fill="#5bbb95" stroke="#5bbb95" stroke-width="1.51"/>
    <path d="M911,-110L923,131L1046,-7Z" fill="#a3daca" stroke="#a3daca" stroke-width="1.51"/>
    <path d="M107,-216L302,-167L458,-170Z" fill="#e0f4f2" stroke="#e0f4f2" stroke-width="1.51"/>
    <path d="M842,514L868,743L1018,545Z" fill="#66c1a0" stroke="#66c1a0" stroke-width="1.51"/>
    <path d="M868,743L989,787L1018,723Z" fill="#54b88c" stroke="#54b88c" stroke-width="1.51"/>
    <path d="M980,144L923,131L994,190Z" fill="#97d6c2" stroke="#97d6c2" stroke-width="1.51"/>
    <path d="M923,131L845,234L994,190Z" fill="#97d6c3" stroke="#97d6c3" stroke-width="1.51"/>
    <path d="M868,743L932,827L989,787Z" fill="#55b58a" stroke="#55b58a" stroke-width="1.51"/>
    <path d="M911,-110L769,124L923,131Z" fill="#a7dcce" stroke="#a7dcce" stroke-width="1.51"/>
    <path d="M703,-220L902,-156L983,-254Z" fill="#b5e1d5" stroke="#b5e1d5" stroke-width="1.51"/>
    <path d="M750,587L746,652L842,514Z" fill="#73c7aa" stroke="#73c7aa" stroke-width="1.51"/>
    <path d="M842,514L746,652L868,743Z" fill="#6bc3a1" stroke="#6bc3a1" stroke-width="1.51"/>
    <path d="M739,977L847,1167L902,969Z" fill="#50a476" stroke="#50a476" stroke-width="1.51"/>
    <path d="M684,-55L769,124L911,-110Z" fill="#b1e1d6" stroke="#b1e1d6" stroke-width="1.51"/>
    <path d="M721,859L902,969L932,827Z" fill="#56b082" stroke="#56b082" stroke-width="1.51"/>
    <path d="M868,743L721,859L932,827Z" fill="#5cb78c" stroke="#5cb78c" stroke-width="1.51"/>
    <path d="M721,859L739,977L902,969Z" fill="#59ae80" stroke="#59ae80" stroke-width="1.51"/>
    <path d="M769,124L845,234L923,131Z" fill="#9fdac9" stroke="#9fdac9" stroke-width="1.51"/>
    <path d="M606,1280L471,1301L715,1305Z" fill="#589473" stroke="#589473" stroke-width="1.51"/>
    <path d="M902,-156L684,-55L911,-110Z" fill="#b3e1d6" stroke="#b3e1d6" stroke-width="1.51"/>
    <path d="M703,-220L684,-55L902,-156Z" fill="#bbe4db" stroke="#bbe4db" stroke-width="1.51"/>
    <path d="M832,378L760,439L842,514Z" fill="#7fccb5" stroke="#7fccb5" stroke-width="1.51"/>
    <path d="M785,239L832,378L845,234Z" fill="#92d5c2" stroke="#92d5c2" stroke-width="1.51"/>
    <path d="M739,977L692,1136L847,1167Z" fill="#53a376" stroke="#53a376" stroke-width="1.51"/>
    <path d="M847,1167L715,1305L880,1278Z" fill="#47926a" stroke="#47926a" stroke-width="1.51"/>
    <path d="M769,124L785,239L845,234Z" fill="#9fdaca" stroke="#9fdaca" stroke-width="1.51"/>
    <path d="M746,652L721,859L868,743Z" fill="#65be97" stroke="#65be97" stroke-width="1.51"/>
    <path d="M692,1136L715,1305L847,1167Z" fill="#4f9970" stroke="#4f9970" stroke-width="1.51"/>
    <path d="M760,439L750,587L842,514Z" fill="#79cab1" stroke="#79cab1" stroke-width="1.51"/>
    <path d="M785,239L760,439L832,378Z" fill="#8cd2bf" stroke="#8cd2bf" stroke-width="1.51"/>
    <path d="M616,817L721,859L746,652Z" fill="#6bbf99" stroke="#6bbf99" stroke-width="1.51"/>
    <path d="M684,-55L627,68L769,124Z" fill="#b5e3d9" stroke="#b5e3d9" stroke-width="1.51"/>
    <path d="M769,124L592,278L785,239Z" fill="#a4dcce" stroke="#a4dcce" stroke-width="1.51"/>
    <path d="M592,278L760,439L785,239Z" fill="#97d7c6" stroke="#97d7c6" stroke-width="1.51"/>
    <path d="M632,-25L627,68L684,-55Z" fill="#bce6de" stroke="#bce6de" stroke-width="1.51"/>
    <path d="M555,711L616,817L746,652Z" fill="#74c5a2" stroke="#74c5a2" stroke-width="1.51"/>
    <path d="M592,278L551,368L760,439Z" fill="#98d8c7" stroke="#98d8c7" stroke-width="1.51"/>
    <path d="M560,563L750,587L760,439Z" fill="#7fcdb5" stroke="#7fcdb5" stroke-width="1.51"/>
    <path d="M627,68L592,278L769,124Z" fill="#afe1d5" stroke="#afe1d5" stroke-width="1.51"/>
    <path d="M692,1136L606,1280L715,1305Z" fill="#549873" stroke="#549873" stroke-width="1.51"/>
    <path d="M721,859L638,954L739,977Z" fill="#62b286" stroke="#62b286" stroke-width="1.51"/>
    <path d="M638,954L692,1136L739,977Z" fill="#5dab7f" stroke="#5dab7f" stroke-width="1.51"/>
    <path d="M551,368L560,563L760,439Z" fill="#8dd3bf" stroke="#8dd3bf" stroke-width="1.51"/>
    <path d="M638,954L629,1134L692,1136Z" fill="#5da87e" stroke="#5da87e" stroke-width="1.51"/>
    <path d="M560,563L746,652L750,587Z" fill="#79c9ae" stroke="#79c9ae" stroke-width="1.51"/>
    <path d="M585,-193L684,-55L703,-220Z" fill="#c3e8e1" stroke="#c3e8e1" stroke-width="1.51"/>
    <path d="M560,563L555,711L746,652Z" fill="#7ccaad" stroke="#7ccaad" stroke-width="1.51"/>
    <path d="M629,1134L606,1280L692,1136Z" fill="#599f77" stroke="#599f77" stroke-width="1.51"/>
    <path d="M616,817L638,954L721,859Z" fill="#68b88f" stroke="#68b88f" stroke-width="1.51"/>
    <path d="M585,-193L632,-25L684,-55Z" fill="#c2e8e2" stroke="#c2e8e2" stroke-width="1.51"/>
    <path d="M551,368L476,436L560,563Z" fill="#96d6c4" stroke="#96d6c4" stroke-width="1.51"/>
    <path d="M457,102L431,184L592,278Z" fill="#bae5db" stroke="#bae5db" stroke-width="1.51"/>
    <path d="M462,1106L471,1301L606,1280Z" fill="#629f7a" stroke="#629f7a" stroke-width="1.51"/>
    <path d="M390,877L456,1009L616,817Z" fill="#76bc94" stroke="#76bc94" stroke-width="1.51"/>
    <path d="M457,102L592,278L627,68Z" fill="#b9e5db" stroke="#b9e5db" stroke-width="1.51"/>
    <path d="M462,1106L606,1280L629,1134Z" fill="#60a37b" stroke="#60a37b" stroke-width="1.51"/>
    <path d="M456,1009L462,1106L629,1134Z" fill="#69ac83" stroke="#69ac83" stroke-width="1.51"/>
    <path d="M483,-65L627,68L632,-25Z" fill="#c2e8e1" stroke="#c2e8e1" stroke-width="1.51"/>
    <path d="M585,-193L483,-65L632,-25Z" fill="#c8eae5" stroke="#c8eae5" stroke-width="1.51"/>
    <path d="M456,1009L629,1134L638,954Z" fill="#67ae84" stroke="#67ae84" stroke-width="1.51"/>
    <path d="M616,817L456,1009L638,954Z" fill="#6db68d" stroke="#6db68d" stroke-width="1.51"/>
    <path d="M483,-65L457,102L627,68Z" fill="#c4e9e2" stroke="#c4e9e2" stroke-width="1.51"/>
    <path d="M555,711L390,877L616,817Z" fill="#7ac39e" stroke="#7ac39e" stroke-width="1.51"/>
    <path d="M404,731L390,877L555,711Z" fill="#81c8a5" stroke="#81c8a5" stroke-width="1.51"/>
    <path d="M458,-170L483,-65L585,-193Z" fill="#cfede9" stroke="#cfede9" stroke-width="1.51"/>
    <path d="M431,184L551,368L592,278Z" fill="#ace0d3" stroke="#ace0d3" stroke-width="1.51"/>
    <path d="M476,436L438,487L560,563Z" fill="#95d5c2" stroke="#95d5c2" stroke-width="1.51"/>
    <path d="M431,184L476,436L551,368Z" fill="#a9ded2" stroke="#a9ded2" stroke-width="1.51"/>
    <path d="M404,731L555,711L560,563Z" fill="#84ccaf" stroke="#84ccaf" stroke-width="1.51"/>
    <path d="M438,487L404,731L560,563Z" fill="#8dd1ba" stroke="#8dd1ba" stroke-width="1.51"/>
    <path d="M431,184L298,368L476,436Z" fill="#b0e1d6" stroke="#b0e1d6" stroke-width="1.51"/>
    <path d="M257,276L298,368L431,184Z" fill="#bce6dc" stroke="#bce6dc" stroke-width="1.51"/>
    <path d="M331,705L404,731L438,487Z" fill="#91d1b7" stroke="#91d1b7" stroke-width="1.51"/>
    <path d="M240,576L331,705L438,487Z" fill="#98d5bf" stroke="#98d5bf" stroke-width="1.51"/>
    <path d="M462,1106L261,1101L471,1301Z" fill="#6fa983" stroke="#6fa983" stroke-width="1.51"/>
    <path d="M261,1101L239,1293L471,1301Z" fill="#70a482" stroke="#70a482" stroke-width="1.51"/>
    <path d="M268,-13L457,102L483,-65Z" fill="#d0ede9" stroke="#d0ede9" stroke-width="1.51"/>
    <path d="M458,-170L302,-167L483,-65Z" fill="#d7f0ed" stroke="#d7f0ed" stroke-width="1.51"/>
    <path d="M302,-167L268,-13L483,-65Z" fill="#d9f1f0" stroke="#d9f1f0" stroke-width="1.51"/>
    <path d="M298,368L438,487L476,436Z" fill="#a4dccd" stroke="#a4dccd" stroke-width="1.51"/>
    <path d="M327,791L390,877L404,731Z" fill="#87c8a5" stroke="#87c8a5" stroke-width="1.51"/>
    <path d="M456,1009L307,1043L462,1106Z" fill="#74b28a" stroke="#74b28a" stroke-width="1.51"/>
    <path d="M390,877L307,1043L456,1009Z" fill="#7bb890" stroke="#7bb890" stroke-width="1.51"/>
    <path d="M307,1043L261,1101L462,1106Z" fill="#77b28b" stroke="#77b28b" stroke-width="1.51"/>
    <path d="M268,-13L232,73L457,102Z" fill="#d2eeeb" stroke="#d2eeeb" stroke-width="1.51"/>
    <path d="M232,73L431,184L457,102Z" fill="#ccece6" stroke="#ccece6" stroke-width="1.51"/>
    <path d="M9,1262L-142,1326L239,1293Z" fill="#79a186" stroke="#79a186" stroke-width="1.51"/>
    <path d="M298,368L240,576L438,487Z" fill="#a4dbcb" stroke="#a4dbcb" stroke-width="1.51"/>
    <path d="M232,73L257,276L431,184Z" fill="#c8ebe4" stroke="#c8ebe4" stroke-width="1.51"/>
    <path d="M331,705L327,791L404,731Z" fill="#8ccdad" stroke="#8ccdad" stroke-width="1.51"/>
    <path d="M91,1253L9,1262L239,1293Z" fill="#78a386" stroke="#78a386" stroke-width="1.51"/>
    <path d="M327,791L186,1013L390,877Z" fill="#84c19c" stroke="#84c19c" stroke-width="1.51"/>
    <path d="M186,1013L307,1043L390,877Z" fill="#7fba93" stroke="#7fba93" stroke-width="1.51"/>
    <path d="M146,683L124,802L327,791Z" fill="#91cfb0" stroke="#91cfb0" stroke-width="1.51"/>
    <path d="M124,802L186,1013L327,791Z" fill="#8ac5a2" stroke="#8ac5a2" stroke-width="1.51"/>
    <path d="M146,683L327,791L331,705Z" fill="#91d0b2" stroke="#91d0b2" stroke-width="1.51"/>
    <path d="M240,576L146,683L331,705Z" fill="#97d4bb" stroke="#97d4bb" stroke-width="1.51"/>
    <path d="M232,73L103,144L257,276Z" fill="#cfede8" stroke="#cfede8" stroke-width="1.51"/>
    <path d="M107,344L240,576L298,368Z" fill="#aedfd3" stroke="#aedfd3" stroke-width="1.51"/>
    <path d="M119,-35L268,-13L302,-167Z" fill="#def3f3" stroke="#def3f3" stroke-width="1.51"/>
    <path d="M107,-216L119,-35L302,-167Z" fill="#e3f5f6" stroke="#e3f5f6" stroke-width="1.51"/>
    <path d="M186,1013L261,1101L307,1043Z" fill="#7db58f" stroke="#7db58f" stroke-width="1.51"/>
    <path d="M107,344L116,581L240,576Z" fill="#a8dcce" stroke="#a8dcce" stroke-width="1.51"/>
    <path d="M93,1137L239,1293L261,1101Z" fill="#79ac88" stroke="#79ac88" stroke-width="1.51"/>
    <path d="M257,276L107,344L298,368Z" fill="#b9e4dc" stroke="#b9e4dc" stroke-width="1.51"/>
    <path d="M107,344L38,507L116,581Z" fill="#aedfd2" stroke="#aedfd2" stroke-width="1.51"/>
    <path d="M93,1137L91,1253L239,1293Z" fill="#78a787" stroke="#78a787" stroke-width="1.51"/>
    <path d="M103,144L107,258L257,276Z" fill="#c9eae5" stroke="#c9eae5" stroke-width="1.51"/>
    <path d="M119,-35L232,73L268,-13Z" fill="#daf1f0" stroke="#daf1f0" stroke-width="1.51"/>
    <path d="M186,1013L93,1137L261,1101Z" fill="#7eb48f" stroke="#7eb48f" stroke-width="1.51"/>
    <path d="M107,258L107,344L257,276Z" fill="#c0e7e1" stroke="#c0e7e1" stroke-width="1.51"/>
    <path d="M116,581L146,683L240,576Z" fill="#9ed7c2" stroke="#9ed7c2" stroke-width="1.51"/>
    <path d="M119,-35L103,144L232,73Z" fill="#d9f1ef" stroke="#d9f1ef" stroke-width="1.51"/>
    <path d="M-40,1013L93,1137L186,1013Z" fill="#84b795" stroke="#84b795" stroke-width="1.51"/>
    <path d="M124,802L-46,895L186,1013Z" fill="#8dc4a1" stroke="#8dc4a1" stroke-width="1.51"/>
    <path d="M-46,895L-40,1013L186,1013Z" fill="#8bbf9a" stroke="#8bbf9a" stroke-width="1.51"/>
    <path d="M38,1180L91,1253L93,1137Z" fill="#7dad8b" stroke="#7dad8b" stroke-width="1.51"/>
    <path d="M4,349L38,507L107,344Z" fill="#b8e3db" stroke="#b8e3db" stroke-width="1.51"/>
    <path d="M12,101L103,144L119,-35Z" fill="#dcf2f1" stroke="#dcf2f1" stroke-width="1.51"/>
    <path d="M107,-216L-23,-71L119,-35Z" fill="#e6f6f9" stroke="#e6f6f9" stroke-width="1.51"/>
    <path d="M-18,689L124,802L146,683Z" fill="#99d2b7" stroke="#99d2b7" stroke-width="1.51"/>
    <path d="M116,581L-18,689L146,683Z" fill="#9ed6c0" stroke="#9ed6c0" stroke-width="1.51"/>
    <path d="M103,144L38,281L107,258Z" fill="#ccebe8" stroke="#ccebe8" stroke-width="1.51"/>
    <path d="M107,258L38,281L107,344Z" fill="#c3e8e2" stroke="#c3e8e2" stroke-width="1.51"/>
    <path d="M-23,-71L12,101L119,-35Z" fill="#e1f4f5" stroke="#e1f4f5" stroke-width="1.51"/>
    <path d="M-18,689L-46,895L124,802Z" fill="#96ceb0" stroke="#96ceb0" stroke-width="1.51"/>
    <path d="M-4,-259L-23,-71L107,-216Z" fill="#ebf7fa" stroke="#ebf7fa" stroke-width="1.51"/>
    <path d="M12,101L38,281L103,144Z" fill="#d3eeec" stroke="#d3eeec" stroke-width="1.51"/>
    <path d="M38,507L-18,689L116,581Z" fill="#a4d9c8" stroke="#a4d9c8" stroke-width="1.51"/>
    <path d="M38,281L4,349L107,344Z" fill="#c1e7e1" stroke="#c1e7e1" stroke-width="1.51"/>
    <path d="M-40,1013L38,1180L93,1137Z" fill="#83b491" stroke="#83b491" stroke-width="1.51"/>
    <path d="M38,1180L9,1262L91,1253Z" fill="#7ca88a" stroke="#7ca88a" stroke-width="1.51"/>
    <path d="M-143,799L-46,895L-18,689Z" fill="#99cfb0" stroke="#99cfb0" stroke-width="1.51"/>
    <path d="M-175,-194L-23,-71L-4,-259Z" fill="#edf8fb" stroke="#edf8fb" stroke-width="1.51"/>
    <path d="M-23,-71L-172,49L12,101Z" fill="#e2f4f5" stroke="#e2f4f5" stroke-width="1.51"/>
    <path d="M-121,1154L9,1262L38,1180Z" fill="#80ac8c" stroke="#80ac8c" stroke-width="1.51"/>
    <path d="M-40,1013L-121,1154L38,1180Z" fill="#85b491" stroke="#85b491" stroke-width="1.51"/>
    <path d="M-166,559L-18,689L38,507Z" fill="#a8dbc9" stroke="#a8dbc9" stroke-width="1.51"/>
    <path d="M4,349L-147,402L38,507Z" fill="#b9e3da" stroke="#b9e3da" stroke-width="1.51"/>
    <path d="M-147,402L-166,559L38,507Z" fill="#b2e0d3" stroke="#b2e0d3" stroke-width="1.51"/>
    <path d="M12,101L-211,239L38,281Z" fill="#d3eeeb" stroke="#d3eeeb" stroke-width="1.51"/>
    <path d="M-211,239L4,349L38,281Z" fill="#c8eae5" stroke="#c8eae5" stroke-width="1.51"/>
    <path d="M-112,1021L-121,1154L-40,1013Z" fill="#89b995" stroke="#89b995" stroke-width="1.51"/>
    <path d="M-211,239L-147,402L4,349Z" fill="#c6e9e2" stroke="#c6e9e2" stroke-width="1.51"/>
    <path d="M-172,49L-211,239L12,101Z" fill="#def3f0" stroke="#def3f0" stroke-width="1.51"/>
    <path d="M-164,-58L-172,49L-23,-71Z" fill="#e8f6f7" stroke="#e8f6f7" stroke-width="1.51"/>
    <path d="M-121,1154L-142,1326L9,1262Z" fill="#7fa78a" stroke="#7fa78a" stroke-width="1.51"/>
    <path d="M-175,-194L-164,-58L-23,-71Z" fill="#ecf8fb" stroke="#ecf8fb" stroke-width="1.51"/>
    <path d="M-46,895L-112,1021L-40,1013Z" fill="#8dbf9b" stroke="#8dbf9b" stroke-width="1.51"/>
    <path d="M-211,713L-143,799L-18,689Z" fill="#9fd5b8" stroke="#9fd5b8" stroke-width="1.51"/>
    <path d="M-166,559L-211,713L-18,689Z" fill="#a6d8c2" stroke="#a6d8c2" stroke-width="1.51"/>
    <path d="M-143,799L-112,1021L-46,895Z" fill="#93c6a3" stroke="#93c6a3" stroke-width="1.51"/>
    <path d="M-211,713L-121,1154L-112,1021Z" fill="#91c19d" stroke="#91c19d" stroke-width="1.51"/>
    <path d="M-143,799L-211,713L-112,1021Z" fill="#99ccab" stroke="#99ccab" stroke-width="1.51"/>
    <path d="M-211,713L-142,1326L-121,1154Z" fill="#8bba95" stroke="#8bba95" stroke-width="1.51"/>
    <path d="M-211,239L-166,559L-147,402Z" fill="#bfe6dc" stroke="#bfe6dc" stroke-width="1.51"/>
    <path d="M-211,239L-211,713L-166,559Z" fill="#b4e1d2" stroke="#b4e1d2" stroke-width="1.51"/>
    <path d="M-175,-194L-172,49L-164,-58Z" fill="#ecf8fa" stroke="#ecf8fa" stroke-width="1.51"/>
    <path d="M-175,-194L-211,239L-172,49Z" fill="#e6f6f5" stroke="#e6f6f5" stroke-width="1.51"/>
</svg>