<svg xmlns="http://www.w3.org/2000/svg" width="1920" height="1080"><path d="M13,1305L-152,1337L137,1289Z" fill="#898692" stroke="#898692" stroke-width="1.51"/><path d="M137,1289L-152,1337L442,1277Z" fill="#848490" stroke="#848490" stroke-width="1.51"/><path d="M755,1291L442,1277L1007,1340Z" fill="#4b7194" stroke="#4b7194" stroke-width="1.51"/><path d="M442,1277L-152,1337L1007,1340Z" fill="#6c7b8f" stroke="#6c7b8f" stroke-width="1.51"/><path d="M381,-265L898,-237L1026,-259Z" fill="#b9e1c9" stroke="#b9e1c9" stroke-width="1.51"/><path d="M1235,-244L1296,-235L1454,-219Z" fill="#a1bfc6" stroke="#a1bfc6" stroke-width="1.51"/><path d="M1474,1333L1311,1333L1752,1343Z" fill="#1a4285" stroke="#1a4285" stroke-width="1.51"/><path d="M1311,1333L1007,1340L1752,1343Z" fill="#1c4e8a" stroke="#1c4e8a" stroke-width="1.51"/><path d="M1026,-259L1235,-244L1918,-221Z" fill="#a0b9c4" stroke="#a0b9c4" stroke-width="1.51"/><path d="M1454,-219L1790,-188L1918,-221Z" fill="#9c9db6" stroke="#9c9db6" stroke-width="1.51"/><path d="M1235,-244L1454,-219L1918,-221Z" fill="#9dabbe" stroke="#9dabbe" stroke-width="1.51"/><path d="M2055,-183L2064,-6L2113,122Z" fill="#83848f" stroke="#83848f" stroke-width="1.51"/><path d="M1946,564L1965,732L2121,727Z" fill="#2b619b" stroke="#2b619b" stroke-width="1.51"/><path d="M2059,845L2060,960L2121,727Z" fill="#1e4d8d" stroke="#1e4d8d" stroke-width="1.51"/><path d="M2079,339L1988,431L2126,546Z" fill="#446f95" stroke="#446f95" stroke-width="1.51"/><path d="M1946,564L2121,727L2126,546Z" fill="#2d6496" stroke="#2d6496" stroke-width="1.51"/><path d="M1900,1292L1752,1343L2127,1302Z" fill="#182976" stroke="#182976" stroke-width="1.51"/><path d="M2060,1086L1900,1292L2127,1302Z" fill="#192979" stroke="#192979" stroke-width="1.51"/><path d="M2121,727L2060,960L2127,1302Z" fill="#1a3a83" stroke="#1a3a83" stroke-width="1.51"/><path d="M2060,960L2060,1086L2127,1302Z" fill="#1b307f" stroke="#1b307f" stroke-width="1.51"/><path d="M2126,546L2121,727L2127,1302Z" fill="#1b4988" stroke="#1b4988" stroke-width="1.51"/><path d="M2055,-183L2113,122L2136,213Z" fill="#7b808d" stroke="#7b808d" stroke-width="1.51"/><path d="M2113,122L1948,137L2136,213Z" fill="#717e91" stroke="#717e91" stroke-width="1.51"/><path d="M1948,137L2079,339L2136,213Z" fill="#657a93" stroke="#657a93" stroke-width="1.51"/><path d="M2079,339L2126,546L2136,213Z" fill="#4b6f8e" stroke="#4b6f8e" stroke-width="1.51"/><path d="M2126,546L2127,1302L2136,213Z" fill="#235a8e" stroke="#235a8e" stroke-width="1.51"/><path d="M1948,137L1894,261L2079,339Z" fill="#687d9c" stroke="#687d9c" stroke-width="1.51"/><path d="M1965,732L2059,845L2121,727Z" fill="#215795" stroke="#215795" stroke-width="1.51"/><path d="M1988,431L1946,564L2126,546Z" fill="#3a6d9b" stroke="#3a6d9b" stroke-width="1.51"/><path d="M2064,-6L1948,137L2113,122Z" fill="#7c8293" stroke="#7c8293" stroke-width="1.51"/><path d="M1899,1101L1900,1292L2060,1086Z" fill="#20308a" stroke="#20308a" stroke-width="1.51"/><path d="M2059,845L1966,949L2060,960Z" fill="#1e468f" stroke="#1e468f" stroke-width="1.51"/><path d="M2060,960L1966,949L2060,1086Z" fill="#1d3e8b" stroke="#1d3e8b" stroke-width="1.51"/><path d="M2055,-183L1912,-47L2064,-6Z" fill="#8d8896" stroke="#8d8896" stroke-width="1.51"/><path d="M1894,261L1988,431L2079,339Z" fill="#55779b" stroke="#55779b" stroke-width="1.51"/><path d="M1918,-221L1912,-47L2055,-183Z" fill="#928ca1" stroke="#928ca1" stroke-width="1.51"/><path d="M1965,732L1898,825L2059,845Z" fill="#24569b" stroke="#24569b" stroke-width="1.51"/><path d="M1966,949L1899,1101L2060,1086Z" fill="#203b8d" stroke="#203b8d" stroke-width="1.51"/><path d="M1912,-47L1948,137L2064,-6Z" fill="#85879a" stroke="#85879a" stroke-width="1.51"/><path d="M1898,825L1966,949L2059,845Z" fill="#224d96" stroke="#224d96" stroke-width="1.51"/><path d="M1454,-219L1672,-165L1790,-188Z" fill="#9ca3b7" stroke="#9ca3b7" stroke-width="1.51"/><path d="M1183,1322L1007,1340L1311,1333Z" fill="#245c90" stroke="#245c90" stroke-width="1.51"/><path d="M1946,564L1779,743L1965,732Z" fill="#3066a7" stroke="#3066a7" stroke-width="1.51"/><path d="M1894,261L1785,362L1988,431Z" fill="#5a7ca6" stroke="#5a7ca6" stroke-width="1.51"/><path d="M1753,501L1946,564L1988,431Z" fill="#4474a8" stroke="#4474a8" stroke-width="1.51"/><path d="M1785,362L1753,501L1988,431Z" fill="#507aab" stroke="#507aab" stroke-width="1.51"/><path d="M1790,-188L1912,-47L1918,-221Z" fill="#9890ab" stroke="#9890ab" stroke-width="1.51"/><path d="M1912,-47L1738,112L1948,137Z" fill="#898ba6" stroke="#898ba6" stroke-width="1.51"/><path d="M1898,825L1823,815L1966,949Z" fill="#27529f" stroke="#27529f" stroke-width="1.51"/><path d="M1823,815L1736,1034L1966,949Z" fill="#264da0" stroke="#264da0" stroke-width="1.51"/><path d="M1736,1034L1899,1101L1966,949Z" fill="#25419a" stroke="#25419a" stroke-width="1.51"/><path d="M1779,743L1898,825L1965,732Z" fill="#2a5fa7" stroke="#2a5fa7" stroke-width="1.51"/><path d="M1779,743L1823,815L1898,825Z" fill="#2a5ea8" stroke="#2a5ea8" stroke-width="1.51"/><path d="M1899,1101L1770,1153L1900,1292Z" fill="#233390" stroke="#233390" stroke-width="1.51"/><path d="M1753,501L1779,743L1946,564Z" fill="#3971ad" stroke="#3971ad" stroke-width="1.51"/><path d="M1788,243L1894,261L1948,137Z" fill="#7384a6" stroke="#7384a6" stroke-width="1.51"/><path d="M1738,112L1788,243L1948,137Z" fill="#7d8aa8" stroke="#7d8aa8" stroke-width="1.51"/><path d="M1790,-188L1750,-104L1912,-47Z" fill="#9894ab" stroke="#9894ab" stroke-width="1.51"/><path d="M1750,-104L1738,112L1912,-47Z" fill="#9193a8" stroke="#9193a8" stroke-width="1.51"/><path d="M1788,243L1785,362L1894,261Z" fill="#6683aa" stroke="#6683aa" stroke-width="1.51"/><path d="M1736,1034L1770,1153L1899,1101Z" fill="#263f99" stroke="#263f99" stroke-width="1.51"/><path d="M1770,1153L1752,1343L1900,1292Z" fill="#1e3286" stroke="#1e3286" stroke-width="1.51"/><path d="M1610,-10L1738,112L1750,-104Z" fill="#919aab" stroke="#919aab" stroke-width="1.51"/><path d="M1640,1258L1752,1343L1770,1153Z" fill="#1f388a" stroke="#1f388a" stroke-width="1.51"/><path d="M1753,501L1668,691L1779,743Z" fill="#3374af" stroke="#3374af" stroke-width="1.51"/><path d="M1779,743L1661,842L1823,815Z" fill="#2963ab" stroke="#2963ab" stroke-width="1.51"/><path d="M1661,842L1736,1034L1823,815Z" fill="#2758a5" stroke="#2758a5" stroke-width="1.51"/><path d="M1614,554L1668,691L1753,501Z" fill="#377db2" stroke="#377db2" stroke-width="1.51"/><path d="M1691,337L1753,501L1785,362Z" fill="#5483ae" stroke="#5483ae" stroke-width="1.51"/><path d="M1738,112L1672,275L1788,243Z" fill="#758eab" stroke="#758eab" stroke-width="1.51"/><path d="M1691,337L1785,362L1788,243Z" fill="#6187ac" stroke="#6187ac" stroke-width="1.51"/><path d="M1672,275L1691,337L1788,243Z" fill="#678bad" stroke="#678bad" stroke-width="1.51"/><path d="M1672,-165L1750,-104L1790,-188Z" fill="#9a9ab0" stroke="#9a9ab0" stroke-width="1.51"/><path d="M1661,842L1581,960L1736,1034Z" fill="#2458a5" stroke="#2458a5" stroke-width="1.51"/><path d="M1736,1034L1630,1124L1770,1153Z" fill="#26449c" stroke="#26449c" stroke-width="1.51"/><path d="M1668,691L1661,842L1779,743Z" fill="#286caf" stroke="#286caf" stroke-width="1.51"/><path d="M1630,1124L1640,1258L1770,1153Z" fill="#254097" stroke="#254097" stroke-width="1.51"/><path d="M1586,125L1672,275L1738,112Z" fill="#7c95ae" stroke="#7c95ae" stroke-width="1.51"/><path d="M1672,-165L1610,-10L1750,-104Z" fill="#989ead" stroke="#989ead" stroke-width="1.51"/><path d="M1640,1258L1474,1333L1752,1343Z" fill="#1b3b85" stroke="#1b3b85" stroke-width="1.51"/><path d="M1691,337L1614,554L1753,501Z" fill="#4984b1" stroke="#4984b1" stroke-width="1.51"/><path d="M1509,407L1614,554L1691,337Z" fill="#4d8bb3" stroke="#4d8bb3" stroke-width="1.51"/><path d="M1610,-10L1586,125L1738,112Z" fill="#899bad" stroke="#899bad" stroke-width="1.51"/><path d="M1581,960L1630,1124L1736,1034Z" fill="#264fa1" stroke="#264fa1" stroke-width="1.51"/><path d="M1672,275L1509,407L1691,337Z" fill="#5b8eb1" stroke="#5b8eb1" stroke-width="1.51"/><path d="M1581,960L1534,1114L1630,1124Z" fill="#2551a2" stroke="#2551a2" stroke-width="1.51"/><path d="M1429,814L1661,842L1668,691Z" fill="#2471b1" stroke="#2471b1" stroke-width="1.51"/><path d="M1463,646L1429,814L1668,691Z" fill="#267db6" stroke="#267db6" stroke-width="1.51"/><path d="M1614,554L1463,646L1668,691Z" fill="#3180b5" stroke="#3180b5" stroke-width="1.51"/><path d="M1450,-100L1610,-10L1672,-165Z" fill="#99a6b0" stroke="#99a6b0" stroke-width="1.51"/><path d="M1454,-219L1450,-100L1672,-165Z" fill="#9bacb8" stroke="#9bacb8" stroke-width="1.51"/><path d="M1586,125L1501,259L1672,275Z" fill="#7398b0" stroke="#7398b0" stroke-width="1.51"/><path d="M1501,259L1509,407L1672,275Z" fill="#5f95b2" stroke="#5f95b2" stroke-width="1.51"/><path d="M1630,1124L1534,1114L1640,1258Z" fill="#26469b" stroke="#26469b" stroke-width="1.51"/><path d="M1429,814L1581,960L1661,842Z" fill="#2368ad" stroke="#2368ad" stroke-width="1.51"/><path d="M1429,814L1465,950L1581,960Z" fill="#2369ad" stroke="#2369ad" stroke-width="1.51"/><path d="M1473,582L1463,646L1614,554Z" fill="#3388b7" stroke="#3388b7" stroke-width="1.51"/><path d="M1534,1114L1474,1333L1640,1258Z" fill="#204593" stroke="#204593" stroke-width="1.51"/><path d="M1430,39L1586,125L1610,-10Z" fill="#8ba5b0" stroke="#8ba5b0" stroke-width="1.51"/><path d="M1509,407L1473,582L1614,554Z" fill="#3d8db7" stroke="#3d8db7" stroke-width="1.51"/><path d="M1450,-100L1430,39L1610,-10Z" fill="#94abb2" stroke="#94abb2" stroke-width="1.51"/><path d="M1359,1193L1474,1333L1534,1114Z" fill="#244e9a" stroke="#244e9a" stroke-width="1.51"/><path d="M1465,950L1534,1114L1581,960Z" fill="#245ba7" stroke="#245ba7" stroke-width="1.51"/><path d="M1430,39L1501,259L1586,125Z" fill="#82a4b2" stroke="#82a4b2" stroke-width="1.51"/><path d="M1430,39L1369,206L1501,259Z" fill="#7ea9b5" stroke="#7ea9b5" stroke-width="1.51"/><path d="M1501,259L1365,402L1509,407Z" fill="#589bb7" stroke="#589bb7" stroke-width="1.51"/><path d="M1365,402L1473,582L1509,407Z" fill="#4697b9" stroke="#4697b9" stroke-width="1.51"/><path d="M1465,950L1363,947L1534,1114Z" fill="#2562aa" stroke="#2562aa" stroke-width="1.51"/><path d="M1363,947L1359,1193L1534,1114Z" fill="#285ca7" stroke="#285ca7" stroke-width="1.51"/><path d="M1365,402L1374,589L1473,582Z" fill="#3997bc" stroke="#3997bc" stroke-width="1.51"/><path d="M1369,206L1365,402L1501,259Z" fill="#65a4b8" stroke="#65a4b8" stroke-width="1.51"/><path d="M1320,132L1369,206L1430,39Z" fill="#86b2b7" stroke="#86b2b7" stroke-width="1.51"/><path d="M1348,-18L1430,39L1450,-100Z" fill="#96b3b5" stroke="#96b3b5" stroke-width="1.51"/><path d="M1291,735L1429,814L1463,646Z" fill="#2387bb" stroke="#2387bb" stroke-width="1.51"/><path d="M1429,814L1363,947L1465,950Z" fill="#2370b1" stroke="#2370b1" stroke-width="1.51"/><path d="M1374,589L1463,646L1473,582Z" fill="#308ebb" stroke="#308ebb" stroke-width="1.51"/><path d="M1359,1193L1311,1333L1474,1333Z" fill="#205091" stroke="#205091" stroke-width="1.51"/><path d="M1221,1104L1359,1193L1363,947Z" fill="#2966ac" stroke="#2966ac" stroke-width="1.51"/><path d="M1326,848L1363,947L1429,814Z" fill="#2378b5" stroke="#2378b5" stroke-width="1.51"/><path d="M1296,-235L1450,-100L1454,-219Z" fill="#9eb8bf" stroke="#9eb8bf" stroke-width="1.51"/><path d="M1374,589L1291,735L1463,646Z" fill="#2a8fbd" stroke="#2a8fbd" stroke-width="1.51"/><path d="M1296,-235L1348,-18L1450,-100Z" fill="#9dbabb" stroke="#9dbabb" stroke-width="1.51"/><path d="M1291,735L1326,848L1429,814Z" fill="#2283ba" stroke="#2283ba" stroke-width="1.51"/><path d="M1348,-18L1320,132L1430,39Z" fill="#8eb5b7" stroke="#8eb5b7" stroke-width="1.51"/><path d="M889,1304L755,1291L1007,1340Z" fill="#3b6c94" stroke="#3b6c94" stroke-width="1.51"/><path d="M1296,-235L1139,-98L1348,-18Z" fill="#9ec3be" stroke="#9ec3be" stroke-width="1.51"/><path d="M1202,38L1320,132L1348,-18Z" fill="#8fbcba" stroke="#8fbcba" stroke-width="1.51"/><path d="M1231,968L1221,1104L1363,947Z" fill="#2671b1" stroke="#2671b1" stroke-width="1.51"/><path d="M1216,392L1169,551L1365,402Z" fill="#48a9c0" stroke="#48a9c0" stroke-width="1.51"/><path d="M1132,277L1216,392L1369,206Z" fill="#65b3be" stroke="#65b3be" stroke-width="1.51"/><path d="M1216,392L1365,402L1369,206Z" fill="#5ba9bc" stroke="#5ba9bc" stroke-width="1.51"/><path d="M1172,655L1291,735L1374,589Z" fill="#2897c0" stroke="#2897c0" stroke-width="1.51"/><path d="M1169,551L1172,655L1374,589Z" fill="#2f9fc2" stroke="#2f9fc2" stroke-width="1.51"/><path d="M1365,402L1169,551L1374,589Z" fill="#3aa1c0" stroke="#3aa1c0" stroke-width="1.51"/><path d="M1320,132L1132,277L1369,206Z" fill="#78b5bc" stroke="#78b5bc" stroke-width="1.51"/><path d="M381,-265L530,-215L898,-237Z" fill="#c6e8c5" stroke="#c6e8c5" stroke-width="1.51"/><path d="M1183,1322L1311,1333L1359,1193Z" fill="#225896" stroke="#225896" stroke-width="1.51"/><path d="M1326,848L1231,968L1363,947Z" fill="#2377b4" stroke="#2377b4" stroke-width="1.51"/><path d="M1235,-244L1139,-98L1296,-235Z" fill="#a2c7c5" stroke="#a2c7c5" stroke-width="1.51"/><path d="M1221,1104L1183,1322L1359,1193Z" fill="#2860a3" stroke="#2860a3" stroke-width="1.51"/><path d="M1139,-98L1202,38L1348,-18Z" fill="#98c3bb" stroke="#98c3bb" stroke-width="1.51"/><path d="M1291,735L1171,853L1326,848Z" fill="#2088bc" stroke="#2088bc" stroke-width="1.51"/><path d="M1171,853L1231,968L1326,848Z" fill="#2380b8" stroke="#2380b8" stroke-width="1.51"/><path d="M1202,38L1132,277L1320,132Z" fill="#84bdbc" stroke="#84bdbc" stroke-width="1.51"/><path d="M1077,1174L1183,1322L1221,1104Z" fill="#3065a5" stroke="#3065a5" stroke-width="1.51"/><path d="M1172,655L1171,853L1291,735Z" fill="#2194c1" stroke="#2194c1" stroke-width="1.51"/><path d="M1084,801L1171,853L1172,655Z" fill="#2895c0" stroke="#2895c0" stroke-width="1.51"/><path d="M1027,112L1132,277L1202,38Z" fill="#88c4bc" stroke="#88c4bc" stroke-width="1.51"/><path d="M1009,1028L1221,1104L1231,968Z" fill="#2f75b1" stroke="#2f75b1" stroke-width="1.51"/><path d="M1026,-259L1139,-98L1235,-244Z" fill="#a5cdc7" stroke="#a5cdc7" stroke-width="1.51"/><path d="M1171,853L1009,1028L1231,968Z" fill="#2d7fb5" stroke="#2d7fb5" stroke-width="1.51"/><path d="M984,395L980,490L1169,551Z" fill="#4ab4c2" stroke="#4ab4c2" stroke-width="1.51"/><path d="M984,395L1169,551L1216,392Z" fill="#4db1c1" stroke="#4db1c1" stroke-width="1.51"/><path d="M1009,1028L1077,1174L1221,1104Z" fill="#3571ae" stroke="#3571ae" stroke-width="1.51"/><path d="M1132,277L984,395L1216,392Z" fill="#5db7bf" stroke="#5db7bf" stroke-width="1.51"/><path d="M1139,-98L1046,-98L1202,38Z" fill="#9ecabb" stroke="#9ecabb" stroke-width="1.51"/><path d="M1046,-98L1027,112L1202,38Z" fill="#98cbbb" stroke="#98cbbb" stroke-width="1.51"/><path d="M1027,112L1005,243L1132,277Z" fill="#7dc4be" stroke="#7dc4be" stroke-width="1.51"/><path d="M1026,-259L1046,-98L1139,-98Z" fill="#a5d0c2" stroke="#a5d0c2" stroke-width="1.51"/><path d="M1084,801L1009,1028L1171,853Z" fill="#2f89b9" stroke="#2f89b9" stroke-width="1.51"/><path d="M1169,551L1021,709L1172,655Z" fill="#32a3c2" stroke="#32a3c2" stroke-width="1.51"/><path d="M1021,709L1084,801L1172,655Z" fill="#2d9dc2" stroke="#2d9dc2" stroke-width="1.51"/><path d="M1077,1174L1007,1340L1183,1322Z" fill="#2e6499" stroke="#2e6499" stroke-width="1.51"/><path d="M980,490L1021,709L1169,551Z" fill="#3aacc3" stroke="#3aacc3" stroke-width="1.51"/><path d="M1005,243L984,395L1132,277Z" fill="#69bebf" stroke="#69bebf" stroke-width="1.51"/><path d="M830,890L907,1027L1009,1028Z" fill="#3f87b4" stroke="#3f87b4" stroke-width="1.51"/><path d="M896,87L1027,112L1046,-98Z" fill="#99d1bc" stroke="#99d1bc" stroke-width="1.51"/><path d="M1009,1028L918,1162L1077,1174Z" fill="#3b75ae" stroke="#3b75ae" stroke-width="1.51"/><path d="M918,1162L1007,1340L1077,1174Z" fill="#376ca2" stroke="#376ca2" stroke-width="1.51"/><path d="M830,890L1009,1028L1084,801Z" fill="#368eb9" stroke="#368eb9" stroke-width="1.51"/><path d="M1021,709L866,742L1084,801Z" fill="#31a1c2" stroke="#31a1c2" stroke-width="1.51"/><path d="M866,742L830,890L1084,801Z" fill="#3a9dbe" stroke="#3a9dbe" stroke-width="1.51"/><path d="M923,275L984,395L1005,243Z" fill="#6bc3bf" stroke="#6bc3bf" stroke-width="1.51"/><path d="M918,1162L889,1304L1007,1340Z" fill="#386d9b" stroke="#386d9b" stroke-width="1.51"/><path d="M980,490L846,518L1021,709Z" fill="#41b3c4" stroke="#41b3c4" stroke-width="1.51"/><path d="M846,518L866,742L1021,709Z" fill="#41adc3" stroke="#41adc3" stroke-width="1.51"/><path d="M1026,-259L898,-237L1046,-98Z" fill="#a9d7c7" stroke="#a9d7c7" stroke-width="1.51"/><path d="M898,-237L833,-9L1046,-98Z" fill="#a9d9be" stroke="#a9d9be" stroke-width="1.51"/><path d="M833,-9L896,87L1046,-98Z" fill="#a1d6bb" stroke="#a1d6bb" stroke-width="1.51"/><path d="M896,87L923,275L1005,243Z" fill="#83cbbd" stroke="#83cbbd" stroke-width="1.51"/><path d="M907,1027L918,1162L1009,1028Z" fill="#3e7db0" stroke="#3e7db0" stroke-width="1.51"/><path d="M896,87L1005,243L1027,112Z" fill="#8ccdbd" stroke="#8ccdbd" stroke-width="1.51"/><path d="M923,275L929,395L984,395Z" fill="#63c1c0" stroke="#63c1c0" stroke-width="1.51"/><path d="M929,395L980,490L984,395Z" fill="#56bcc2" stroke="#56bcc2" stroke-width="1.51"/><path d="M929,395L846,518L980,490Z" fill="#54bbc2" stroke="#54bbc2" stroke-width="1.51"/><path d="M530,-215L702,-155L898,-237Z" fill="#bbe2c3" stroke="#bbe2c3" stroke-width="1.51"/><path d="M702,-155L833,-9L898,-237Z" fill="#b2ddbf" stroke="#b2ddbf" stroke-width="1.51"/><path d="M755,1291L889,1304L918,1162Z" fill="#43709d" stroke="#43709d" stroke-width="1.51"/><path d="M907,1027L718,1102L918,1162Z" fill="#4b7eae" stroke="#4b7eae" stroke-width="1.51"/><path d="M896,87L724,107L923,275Z" fill="#93d2bb" stroke="#93d2bb" stroke-width="1.51"/><path d="M724,107L715,291L923,275Z" fill="#8acfbb" stroke="#8acfbb" stroke-width="1.51"/><path d="M727,422L846,518L929,395Z" fill="#61c0c0" stroke="#61c0c0" stroke-width="1.51"/><path d="M923,275L715,291L929,395Z" fill="#71c6be" stroke="#71c6be" stroke-width="1.51"/><path d="M715,291L727,422L929,395Z" fill="#6fc6be" stroke="#6fc6be" stroke-width="1.51"/><path d="M830,890L765,943L907,1027Z" fill="#498eb5" stroke="#498eb5" stroke-width="1.51"/><path d="M718,1102L755,1291L918,1162Z" fill="#4e77a6" stroke="#4e77a6" stroke-width="1.51"/><path d="M620,1245L442,1277L755,1291Z" fill="#5c7897" stroke="#5c7897" stroke-width="1.51"/><path d="M770,862L830,890L866,742Z" fill="#499dbb" stroke="#499dbb" stroke-width="1.51"/><path d="M846,518L690,744L866,742Z" fill="#4fb0c1" stroke="#4fb0c1" stroke-width="1.51"/><path d="M765,943L718,1102L907,1027Z" fill="#4e87b1" stroke="#4e87b1" stroke-width="1.51"/><path d="M702,-155L739,-19L833,-9Z" fill="#b2deb8" stroke="#b2deb8" stroke-width="1.51"/><path d="M833,-9L724,107L896,87Z" fill="#a1d7ba" stroke="#a1d7ba" stroke-width="1.51"/><path d="M681,503L690,744L846,518Z" fill="#5abac0" stroke="#5abac0" stroke-width="1.51"/><path d="M690,744L770,862L866,742Z" fill="#4ea5be" stroke="#4ea5be" stroke-width="1.51"/><path d="M739,-19L724,107L833,-9Z" fill="#a8dab9" stroke="#a8dab9" stroke-width="1.51"/><path d="M727,422L681,503L846,518Z" fill="#64c1c0" stroke="#64c1c0" stroke-width="1.51"/><path d="M770,862L765,943L830,890Z" fill="#4e96b7" stroke="#4e96b7" stroke-width="1.51"/><path d="M563,591L567,660L681,503Z" fill="#6bc0bf" stroke="#6bc0bf" stroke-width="1.51"/><path d="M681,503L567,660L690,744Z" fill="#62b9bf" stroke="#62b9bf" stroke-width="1.51"/><path d="M585,255L715,291L724,107Z" fill="#95d4b9" stroke="#95d4b9" stroke-width="1.51"/><path d="M702,-155L639,-59L739,-19Z" fill="#b8e1b7" stroke="#b8e1b7" stroke-width="1.51"/><path d="M718,1102L620,1245L755,1291Z" fill="#5679a1" stroke="#5679a1" stroke-width="1.51"/><path d="M634,999L718,1102L765,943Z" fill="#578bb0" stroke="#578bb0" stroke-width="1.51"/><path d="M630,887L765,943L770,862Z" fill="#5598b6" stroke="#5598b6" stroke-width="1.51"/><path d="M690,744L630,887L770,862Z" fill="#57a2ba" stroke="#57a2ba" stroke-width="1.51"/><path d="M593,1159L620,1245L718,1102Z" fill="#5f7ea7" stroke="#5f7ea7" stroke-width="1.51"/><path d="M630,887L634,999L765,943Z" fill="#5994b3" stroke="#5994b3" stroke-width="1.51"/><path d="M639,-59L724,107L739,-19Z" fill="#aedeb7" stroke="#aedeb7" stroke-width="1.51"/><path d="M639,-59L554,46L724,107Z" fill="#b1dfb7" stroke="#b1dfb7" stroke-width="1.51"/><path d="M715,291L545,430L727,422Z" fill="#79cabc" stroke="#79cabc" stroke-width="1.51"/><path d="M585,255L545,430L715,291Z" fill="#87cfbb" stroke="#87cfbb" stroke-width="1.51"/><path d="M554,46L585,255L724,107Z" fill="#a8dcb7" stroke="#a8dcb7" stroke-width="1.51"/><path d="M545,430L681,503L727,422Z" fill="#71c7be" stroke="#71c7be" stroke-width="1.51"/><path d="M634,999L593,1159L718,1102Z" fill="#5e86ac" stroke="#5e86ac" stroke-width="1.51"/><path d="M530,-215L639,-59L702,-155Z" fill="#c1e5bc" stroke="#c1e5bc" stroke-width="1.51"/><path d="M567,660L630,887L690,744Z" fill="#60aebd" stroke="#60aebd" stroke-width="1.51"/><path d="M545,430L563,591L681,503Z" fill="#73c6bf" stroke="#73c6bf" stroke-width="1.51"/><path d="M444,691L414,786L567,660Z" fill="#79babd" stroke="#79babd" stroke-width="1.51"/><path d="M554,46L460,91L585,255Z" fill="#b3e1b6" stroke="#b3e1b6" stroke-width="1.51"/><path d="M567,660L414,786L630,887Z" fill="#6eafbb" stroke="#6eafbb" stroke-width="1.51"/><path d="M630,887L414,1010L634,999Z" fill="#6a96b1" stroke="#6a96b1" stroke-width="1.51"/><path d="M414,1010L593,1159L634,999Z" fill="#6c8dad" stroke="#6c8dad" stroke-width="1.51"/><path d="M403,-57L554,46L639,-59Z" fill="#c3e6b5" stroke="#c3e6b5" stroke-width="1.51"/><path d="M530,-215L403,-57L639,-59Z" fill="#cae9b8" stroke="#cae9b8" stroke-width="1.51"/><path d="M-28,-253L179,-212L381,-265Z" fill="#edf8c1" stroke="#edf8c1" stroke-width="1.51"/><path d="M414,786L414,1010L630,887Z" fill="#75a2b4" stroke="#75a2b4" stroke-width="1.51"/><path d="M474,261L545,430L585,255Z" fill="#93d4b9" stroke="#93d4b9" stroke-width="1.51"/><path d="M460,91L474,261L585,255Z" fill="#abddb8" stroke="#abddb8" stroke-width="1.51"/><path d="M414,1010L420,1149L593,1159Z" fill="#768baa" stroke="#768baa" stroke-width="1.51"/><path d="M593,1159L442,1277L620,1245Z" fill="#667d9e" stroke="#667d9e" stroke-width="1.51"/><path d="M474,261L430,405L545,430Z" fill="#92d3ba" stroke="#92d3ba" stroke-width="1.51"/><path d="M545,430L422,591L563,591Z" fill="#7cc8be" stroke="#7cc8be" stroke-width="1.51"/><path d="M420,1149L442,1277L593,1159Z" fill="#7182a2" stroke="#7182a2" stroke-width="1.51"/><path d="M267,1239L137,1289L442,1277Z" fill="#7e8495" stroke="#7e8495" stroke-width="1.51"/><path d="M430,405L422,591L545,430Z" fill="#89cebc" stroke="#89cebc" stroke-width="1.51"/><path d="M422,591L444,691L563,591Z" fill="#7dc2bd" stroke="#7dc2bd" stroke-width="1.51"/><path d="M563,591L444,691L567,660Z" fill="#75bebe" stroke="#75bebe" stroke-width="1.51"/><path d="M403,-57L460,91L554,46Z" fill="#c4e7b5" stroke="#c4e7b5" stroke-width="1.51"/><path d="M317,878L414,1010L414,786Z" fill="#82a7b4" stroke="#82a7b4" stroke-width="1.51"/><path d="M381,-265L403,-57L530,-215Z" fill="#d6efbd" stroke="#d6efbd" stroke-width="1.51"/><path d="M381,-265L320,-85L403,-57Z" fill="#dcf1b8" stroke="#dcf1b8" stroke-width="1.51"/><path d="M283,576L422,591L430,405Z" fill="#8fcfbc" stroke="#8fcfbc" stroke-width="1.51"/><path d="M403,-57L293,45L460,91Z" fill="#ceecb4" stroke="#ceecb4" stroke-width="1.51"/><path d="M460,91L294,212L474,261Z" fill="#b8e3b6" stroke="#b8e3b6" stroke-width="1.51"/><path d="M294,212L430,405L474,261Z" fill="#a7dcb8" stroke="#a7dcb8" stroke-width="1.51"/><path d="M294,212L242,355L430,405Z" fill="#aadcb8" stroke="#aadcb8" stroke-width="1.51"/><path d="M293,45L294,212L460,91Z" fill="#c9eab4" stroke="#c9eab4" stroke-width="1.51"/><path d="M414,1010L291,1028L420,1149Z" fill="#8294ab" stroke="#8294ab" stroke-width="1.51"/><path d="M420,1149L267,1239L442,1277Z" fill="#7b849d" stroke="#7b849d" stroke-width="1.51"/><path d="M422,591L267,641L444,691Z" fill="#89c5bc" stroke="#89c5bc" stroke-width="1.51"/><path d="M267,641L414,786L444,691Z" fill="#87bfbc" stroke="#87bfbc" stroke-width="1.51"/><path d="M317,878L291,1028L414,1010Z" fill="#859eaf" stroke="#859eaf" stroke-width="1.51"/><path d="M291,1028L257,1149L420,1149Z" fill="#8690a9" stroke="#8690a9" stroke-width="1.51"/><path d="M283,576L267,641L422,591Z" fill="#90cabc" stroke="#90cabc" stroke-width="1.51"/><path d="M242,355L283,576L430,405Z" fill="#9cd5ba" stroke="#9cd5ba" stroke-width="1.51"/><path d="M233,-178L320,-85L381,-265Z" fill="#e2f3bc" stroke="#e2f3bc" stroke-width="1.51"/><path d="M257,1149L267,1239L420,1149Z" fill="#8489a4" stroke="#8489a4" stroke-width="1.51"/><path d="M320,-85L293,45L403,-57Z" fill="#d8efb3" stroke="#d8efb3" stroke-width="1.51"/><path d="M267,641L317,878L414,786Z" fill="#89b9ba" stroke="#89b9ba" stroke-width="1.51"/><path d="M179,-212L233,-178L381,-265Z" fill="#e6f6bf" stroke="#e6f6bf" stroke-width="1.51"/><path d="M99,737L112,798L267,641Z" fill="#97c3bb" stroke="#97c3bb" stroke-width="1.51"/><path d="M242,355L104,518L283,576Z" fill="#a0d6bb" stroke="#a0d6bb" stroke-width="1.51"/><path d="M293,45L131,81L294,212Z" fill="#d1ecb4" stroke="#d1ecb4" stroke-width="1.51"/><path d="M131,81L131,194L294,212Z" fill="#cdebb4" stroke="#cdebb4" stroke-width="1.51"/><path d="M267,641L112,798L317,878Z" fill="#90bbba" stroke="#90bbba" stroke-width="1.51"/><path d="M133,979L291,1028L317,878Z" fill="#8ca2af" stroke="#8ca2af" stroke-width="1.51"/><path d="M99,-58L293,45L320,-85Z" fill="#def2b3" stroke="#def2b3" stroke-width="1.51"/><path d="M233,-178L99,-58L320,-85Z" fill="#e5f5b5" stroke="#e5f5b5" stroke-width="1.51"/><path d="M112,798L133,979L317,878Z" fill="#91adb3" stroke="#91adb3" stroke-width="1.51"/><path d="M141,360L104,518L242,355Z" fill="#abdbb9" stroke="#abdbb9" stroke-width="1.51"/><path d="M133,979L257,1149L291,1028Z" fill="#8d98ab" stroke="#8d98ab" stroke-width="1.51"/><path d="M99,-58L131,81L293,45Z" fill="#ddf2b3" stroke="#ddf2b3" stroke-width="1.51"/><path d="M131,194L242,355L294,212Z" fill="#bce4b6" stroke="#bce4b6" stroke-width="1.51"/><path d="M131,194L141,360L242,355Z" fill="#b7e1b6" stroke="#b7e1b6" stroke-width="1.51"/><path d="M104,518L267,641L283,576Z" fill="#98cfbc" stroke="#98cfbc" stroke-width="1.51"/><path d="M86,1156L137,1289L257,1149Z" fill="#8d8ba0" stroke="#8d8ba0" stroke-width="1.51"/><path d="M133,979L86,1156L257,1149Z" fill="#9195a9" stroke="#9195a9" stroke-width="1.51"/><path d="M104,518L99,737L267,641Z" fill="#9bcbbb" stroke="#9bcbbb" stroke-width="1.51"/><path d="M257,1149L137,1289L267,1239Z" fill="#86889c" stroke="#86889c" stroke-width="1.51"/><path d="M179,-212L99,-58L233,-178Z" fill="#e9f6b8" stroke="#e9f6b8" stroke-width="1.51"/><path d="M9,561L99,737L104,518Z" fill="#a2d0bb" stroke="#a2d0bb" stroke-width="1.51"/><path d="M112,798L9,844L133,979Z" fill="#98b1b3" stroke="#98b1b3" stroke-width="1.51"/><path d="M131,194L14,289L141,360Z" fill="#c0e5b5" stroke="#c0e5b5" stroke-width="1.51"/><path d="M-28,-253L99,-58L179,-212Z" fill="#f0f9bb" stroke="#f0f9bb" stroke-width="1.51"/><path d="M-28,-253L-22,-58L99,-58Z" fill="#f1f9b8" stroke="#f1f9b8" stroke-width="1.51"/><path d="M9,561L-28,697L99,737Z" fill="#a1cbbd" stroke="#a1cbbd" stroke-width="1.51"/><path d="M-39,86L131,194L131,81Z" fill="#daf1b3" stroke="#daf1b3" stroke-width="1.51"/><path d="M99,-58L-39,86L131,81Z" fill="#e3f4b2" stroke="#e3f4b2" stroke-width="1.51"/><path d="M-46,1020L86,1156L133,979Z" fill="#989cab" stroke="#989cab" stroke-width="1.51"/><path d="M86,1156L13,1305L137,1289Z" fill="#8d8998" stroke="#8d8998" stroke-width="1.51"/><path d="M-44,363L104,518L141,360Z" fill="#b2deb9" stroke="#b2deb9" stroke-width="1.51"/><path d="M14,289L-44,363L141,360Z" fill="#bae3b8" stroke="#bae3b8" stroke-width="1.51"/><path d="M-22,-58L-39,86L99,-58Z" fill="#e9f6b4" stroke="#e9f6b4" stroke-width="1.51"/><path d="M9,844L-46,1020L133,979Z" fill="#99a8b2" stroke="#99a8b2" stroke-width="1.51"/><path d="M-39,86L14,289L131,194Z" fill="#d2edb5" stroke="#d2edb5" stroke-width="1.51"/><path d="M-40,1191L13,1305L86,1156Z" fill="#928c9f" stroke="#928c9f" stroke-width="1.51"/><path d="M-44,363L9,561L104,518Z" fill="#acdbbd" stroke="#acdbbd" stroke-width="1.51"/><path d="M99,737L9,844L112,798Z" fill="#9bbcb8" stroke="#9bbcb8" stroke-width="1.51"/><path d="M-46,1020L-40,1191L86,1156Z" fill="#9995ac" stroke="#9995ac" stroke-width="1.51"/><path d="M-28,697L9,844L99,737Z" fill="#9dc2bb" stroke="#9dc2bb" stroke-width="1.51"/><path d="M-138,783L-151,1033L-46,1020Z" fill="#9caaba" stroke="#9caaba" stroke-width="1.51"/><path d="M-28,-253L-121,-183L-22,-58Z" fill="#f5fbc2" stroke="#f5fbc2" stroke-width="1.51"/><path d="M-44,363L-130,397L9,561Z" fill="#b2dec1" stroke="#b2dec1" stroke-width="1.51"/><path d="M-130,397L-173,489L9,561Z" fill="#b0dcc5" stroke="#b0dcc5" stroke-width="1.51"/><path d="M-173,489L-28,697L9,561Z" fill="#a7d4c3" stroke="#a7d4c3" stroke-width="1.51"/><path d="M-28,697L-138,783L9,844Z" fill="#9fc1c0" stroke="#9fc1c0" stroke-width="1.51"/><path d="M-138,783L-46,1020L9,844Z" fill="#9cb2bb" stroke="#9cb2bb" stroke-width="1.51"/><path d="M-40,1191L-152,1337L13,1305Z" fill="#8e899b" stroke="#8e899b" stroke-width="1.51"/><path d="M-39,86L-193,290L14,289Z" fill="#cfecbd" stroke="#cfecbd" stroke-width="1.51"/><path d="M-193,290L-44,363L14,289Z" fill="#c1e6bf" stroke="#c1e6bf" stroke-width="1.51"/><path d="M-46,1020L-151,1033L-40,1191Z" fill="#9b9ab3" stroke="#9b9ab3" stroke-width="1.51"/><path d="M-207,92L-193,290L-39,86Z" fill="#dcf1c1" stroke="#dcf1c1" stroke-width="1.51"/><path d="M-173,489L-206,734L-28,697Z" fill="#a6d0c7" stroke="#a6d0c7" stroke-width="1.51"/><path d="M-186,-51L-39,86L-22,-58Z" fill="#ebf7bb" stroke="#ebf7bb" stroke-width="1.51"/><path d="M-121,-183L-186,-51L-22,-58Z" fill="#f3fbbf" stroke="#f3fbbf" stroke-width="1.51"/><path d="M-151,1033L-222,1095L-40,1191Z" fill="#9c98b4" stroke="#9c98b4" stroke-width="1.51"/><path d="M-186,-51L-207,92L-39,86Z" fill="#e8f6bf" stroke="#e8f6bf" stroke-width="1.51"/><path d="M-206,734L-138,783L-28,697Z" fill="#a1c5c6" stroke="#a1c5c6" stroke-width="1.51"/><path d="M-193,290L-130,397L-44,363Z" fill="#bde4c3" stroke="#bde4c3" stroke-width="1.51"/><path d="M-222,1095L-152,1337L-40,1191Z" fill="#968eaa" stroke="#968eaa" stroke-width="1.51"/><path d="M-206,734L-222,1095L-151,1033Z" fill="#9eaabf" stroke="#9eaabf" stroke-width="1.51"/><path d="M-206,734L-151,1033L-138,783Z" fill="#a0b7c3" stroke="#a0b7c3" stroke-width="1.51"/><path d="M-193,290L-173,489L-130,397Z" fill="#bae1c7" stroke="#bae1c7" stroke-width="1.51"/><path d="M-193,290L-206,734L-173,489Z" fill="#afdccb" stroke="#afdccb" stroke-width="1.51"/><path d="M-207,92L-206,734L-193,290Z" fill="#bde4c9" stroke="#bde4c9" stroke-width="1.51"/><path d="M-207,92L-222,1095L-206,734Z" fill="#a8d0cc" stroke="#a8d0cc" stroke-width="1.51"/></svg>