<svg xmlns="http://www.w3.org/2000/svg" width="1920" height="1080"><path d="M13,1305L-152,1337L137,1289Z" fill="#808db7" stroke="#808db7" stroke-width="1.51"/><path d="M137,1289L-152,1337L442,1277Z" fill="#7a8bb6" stroke="#7a8bb6" stroke-width="1.51"/><path d="M755,1291L442,1277L1007,1340Z" fill="#567bab" stroke="#567bab" stroke-width="1.51"/><path d="M442,1277L-152,1337L1007,1340Z" fill="#6c82b0" stroke="#6c82b0" stroke-width="1.51"/><path d="M381,-265L898,-237L1026,-259Z" fill="#c1dced" stroke="#c1dced" stroke-width="1.51"/><path d="M1235,-244L1296,-235L1454,-219Z" fill="#9fbfe0" stroke="#9fbfe0" stroke-width="1.51"/><path d="M1474,1333L1311,1333L1752,1343Z" fill="#1a5494" stroke="#1a5494" stroke-width="1.51"/><path d="M1311,1333L1007,1340L1752,1343Z" fill="#245c98" stroke="#245c98" stroke-width="1.51"/><path d="M1026,-259L1235,-244L1918,-221Z" fill="#9dbcde" stroke="#9dbcde" stroke-width="1.51"/><path d="M1454,-219L1790,-188L1918,-221Z" fill="#91a7d2" stroke="#91a7d2" stroke-width="1.51"/><path d="M1235,-244L1454,-219L1918,-221Z" fill="#97b3da" stroke="#97b3da" stroke-width="1.51"/><path d="M2055,-183L2064,-6L2113,122Z" fill="#7a8ab5" stroke="#7a8ab5" stroke-width="1.51"/><path d="M1946,564L1965,732L2121,727Z" fill="#346ca7" stroke="#346ca7" stroke-width="1.51"/><path d="M2059,845L2060,960L2121,727Z" fill="#215c9a" stroke="#215c9a" stroke-width="1.51"/><path d="M2079,339L1988,431L2126,546Z" fill="#4f78aa" stroke="#4f78aa" stroke-width="1.51"/><path d="M1946,564L2121,727L2126,546Z" fill="#3a6da4" stroke="#3a6da4" stroke-width="1.51"/><path d="M1900,1292L1752,1343L2127,1302Z" fill="#094084" stroke="#094084" stroke-width="1.51"/><path d="M2060,1086L1900,1292L2127,1302Z" fill="#094286" stroke="#094286" stroke-width="1.51"/><path d="M2121,727L2060,960L2127,1302Z" fill="#144f91" stroke="#144f91" stroke-width="1.51"/><path d="M2060,960L2060,1086L2127,1302Z" fill="#0c488c" stroke="#0c488c" stroke-width="1.51"/><path d="M2126,546L2121,727L2127,1302Z" fill="#205996" stroke="#205996" stroke-width="1.51"/><path d="M2055,-183L2113,122L2136,213Z" fill="#7586b2" stroke="#7586b2" stroke-width="1.51"/><path d="M2113,122L1948,137L2136,213Z" fill="#6e85b2" stroke="#6e85b2" stroke-width="1.51"/><path d="M1948,137L2079,339L2136,213Z" fill="#6883b1" stroke="#6883b1" stroke-width="1.51"/><path d="M2079,339L2126,546L2136,213Z" fill="#5879a7" stroke="#5879a7" stroke-width="1.51"/><path d="M2126,546L2127,1302L2136,213Z" fill="#30649c" stroke="#30649c" stroke-width="1.51"/><path d="M1948,137L1894,261L2079,339Z" fill="#6887b7" stroke="#6887b7" stroke-width="1.51"/><path d="M1965,732L2059,845L2121,727Z" fill="#2864a0" stroke="#2864a0" stroke-width="1.51"/><path d="M1988,431L1946,564L2126,546Z" fill="#4676ab" stroke="#4676ab" stroke-width="1.51"/><path d="M2064,-6L1948,137L2113,122Z" fill="#7589b6" stroke="#7589b6" stroke-width="1.51"/><path d="M1899,1101L1900,1292L2060,1086Z" fill="#094b94" stroke="#094b94" stroke-width="1.51"/><path d="M2059,845L1966,949L2060,960Z" fill="#1b599c" stroke="#1b599c" stroke-width="1.51"/><path d="M2060,960L1966,949L2060,1086Z" fill="#145497" stroke="#145497" stroke-width="1.51"/><path d="M2055,-183L1912,-47L2064,-6Z" fill="#8090bc" stroke="#8090bc" stroke-width="1.51"/><path d="M1894,261L1988,431L2079,339Z" fill="#5e83b3" stroke="#5e83b3" stroke-width="1.51"/><path d="M1918,-221L1912,-47L2055,-183Z" fill="#8696c2" stroke="#8696c2" stroke-width="1.51"/><path d="M1965,732L1898,825L2059,845Z" fill="#2766a5" stroke="#2766a5" stroke-width="1.51"/><path d="M1966,949L1899,1101L2060,1086Z" fill="#115399" stroke="#115399" stroke-width="1.51"/><path d="M1912,-47L1948,137L2064,-6Z" fill="#7b8fbd" stroke="#7b8fbd" stroke-width="1.51"/><path d="M1898,825L1966,949L2059,845Z" fill="#2060a2" stroke="#2060a2" stroke-width="1.51"/><path d="M1454,-219L1672,-165L1790,-188Z" fill="#92abd5" stroke="#92abd5" stroke-width="1.51"/><path d="M1183,1322L1007,1340L1311,1333Z" fill="#31669e" stroke="#31669e" stroke-width="1.51"/><path d="M1946,564L1779,743L1965,732Z" fill="#3473b0" stroke="#3473b0" stroke-width="1.51"/><path d="M1894,261L1785,362L1988,431Z" fill="#5f88bb" stroke="#5f88bb" stroke-width="1.51"/><path d="M1753,501L1946,564L1988,431Z" fill="#4b7fb7" stroke="#4b7fb7" stroke-width="1.51"/><path d="M1785,362L1753,501L1988,431Z" fill="#5586bc" stroke="#5586bc" stroke-width="1.51"/><path d="M1790,-188L1912,-47L1918,-221Z" fill="#899bca" stroke="#899bca" stroke-width="1.51"/><path d="M1912,-47L1738,112L1948,137Z" fill="#7b94c6" stroke="#7b94c6" stroke-width="1.51"/><path d="M1898,825L1823,815L1966,949Z" fill="#2166a9" stroke="#2166a9" stroke-width="1.51"/><path d="M1823,815L1736,1034L1966,949Z" fill="#1a63aa" stroke="#1a63aa" stroke-width="1.51"/><path d="M1736,1034L1899,1101L1966,949Z" fill="#125aa3" stroke="#125aa3" stroke-width="1.51"/><path d="M1779,743L1898,825L1965,732Z" fill="#2a6eae" stroke="#2a6eae" stroke-width="1.51"/><path d="M1779,743L1823,815L1898,825Z" fill="#296eb0" stroke="#296eb0" stroke-width="1.51"/><path d="M1899,1101L1770,1153L1900,1292Z" fill="#084f99" stroke="#084f99" stroke-width="1.51"/><path d="M1753,501L1779,743L1946,564Z" fill="#3f7cb8" stroke="#3f7cb8" stroke-width="1.51"/><path d="M1788,243L1894,261L1948,137Z" fill="#6f8ec1" stroke="#6f8ec1" stroke-width="1.51"/><path d="M1738,112L1788,243L1948,137Z" fill="#7593c6" stroke="#7593c6" stroke-width="1.51"/><path d="M1790,-188L1750,-104L1912,-47Z" fill="#889dcc" stroke="#889dcc" stroke-width="1.51"/><path d="M1750,-104L1738,112L1912,-47Z" fill="#829bca" stroke="#829bca" stroke-width="1.51"/><path d="M1788,243L1785,362L1894,261Z" fill="#688fc1" stroke="#688fc1" stroke-width="1.51"/><path d="M1736,1034L1770,1153L1899,1101Z" fill="#1159a2" stroke="#1159a2" stroke-width="1.51"/><path d="M1770,1153L1752,1343L1900,1292Z" fill="#0c4b91" stroke="#0c4b91" stroke-width="1.51"/><path d="M1610,-10L1738,112L1750,-104Z" fill="#84a1ce" stroke="#84a1ce" stroke-width="1.51"/><path d="M1640,1258L1752,1343L1770,1153Z" fill="#105197" stroke="#105197" stroke-width="1.51"/><path d="M1753,501L1668,691L1779,743Z" fill="#3c7eba" stroke="#3c7eba" stroke-width="1.51"/><path d="M1779,743L1661,842L1823,815Z" fill="#2a72b3" stroke="#2a72b3" stroke-width="1.51"/><path d="M1661,842L1736,1034L1823,815Z" fill="#226cb0" stroke="#226cb0" stroke-width="1.51"/><path d="M1614,554L1668,691L1753,501Z" fill="#4485bf" stroke="#4485bf" stroke-width="1.51"/><path d="M1691,337L1753,501L1785,362Z" fill="#5d8dc2" stroke="#5d8dc2" stroke-width="1.51"/><path d="M1738,112L1672,275L1788,243Z" fill="#7397c8" stroke="#7397c8" stroke-width="1.51"/><path d="M1691,337L1785,362L1788,243Z" fill="#6792c4" stroke="#6792c4" stroke-width="1.51"/><path d="M1672,275L1691,337L1788,243Z" fill="#6b95c6" stroke="#6b95c6" stroke-width="1.51"/><path d="M1672,-165L1750,-104L1790,-188Z" fill="#8ca4d0" stroke="#8ca4d0" stroke-width="1.51"/><path d="M1661,842L1581,960L1736,1034Z" fill="#1f6cb1" stroke="#1f6cb1" stroke-width="1.51"/><path d="M1736,1034L1630,1124L1770,1153Z" fill="#145da5" stroke="#145da5" stroke-width="1.51"/><path d="M1668,691L1661,842L1779,743Z" fill="#2f79b7" stroke="#2f79b7" stroke-width="1.51"/><path d="M1630,1124L1640,1258L1770,1153Z" fill="#1259a1" stroke="#1259a1" stroke-width="1.51"/><path d="M1586,125L1672,275L1738,112Z" fill="#789ccc" stroke="#789ccc" stroke-width="1.51"/><path d="M1672,-165L1610,-10L1750,-104Z" fill="#8aa5d2" stroke="#8aa5d2" stroke-width="1.51"/><path d="M1640,1258L1474,1333L1752,1343Z" fill="#145093" stroke="#145093" stroke-width="1.51"/><path d="M1691,337L1614,554L1753,501Z" fill="#558cc2" stroke="#558cc2" stroke-width="1.51"/><path d="M1509,407L1614,554L1691,337Z" fill="#5b93c7" stroke="#5b93c7" stroke-width="1.51"/><path d="M1610,-10L1586,125L1738,112Z" fill="#81a1d0" stroke="#81a1d0" stroke-width="1.51"/><path d="M1581,960L1630,1124L1736,1034Z" fill="#1a65ac" stroke="#1a65ac" stroke-width="1.51"/><path d="M1672,275L1509,407L1691,337Z" fill="#6798c9" stroke="#6798c9" stroke-width="1.51"/><path d="M1581,960L1534,1114L1630,1124Z" fill="#1b67ad" stroke="#1b67ad" stroke-width="1.51"/><path d="M1429,814L1661,842L1668,691Z" fill="#307dbb" stroke="#307dbb" stroke-width="1.51"/><path d="M1463,646L1429,814L1668,691Z" fill="#3a85c0" stroke="#3a85c0" stroke-width="1.51"/><path d="M1614,554L1463,646L1668,691Z" fill="#4188c1" stroke="#4188c1" stroke-width="1.51"/><path d="M1450,-100L1610,-10L1672,-165Z" fill="#8dabd6" stroke="#8dabd6" stroke-width="1.51"/><path d="M1454,-219L1450,-100L1672,-165Z" fill="#93b1d9" stroke="#93b1d9" stroke-width="1.51"/><path d="M1586,125L1501,259L1672,275Z" fill="#759fce" stroke="#759fce" stroke-width="1.51"/><path d="M1501,259L1509,407L1672,275Z" fill="#6c9dcc" stroke="#6c9dcc" stroke-width="1.51"/><path d="M1630,1124L1534,1114L1640,1258Z" fill="#155ea6" stroke="#155ea6" stroke-width="1.51"/><path d="M1429,814L1581,960L1661,842Z" fill="#2977b9" stroke="#2977b9" stroke-width="1.51"/><path d="M1429,814L1465,950L1581,960Z" fill="#2a78b9" stroke="#2a78b9" stroke-width="1.51"/><path d="M1473,582L1463,646L1614,554Z" fill="#488ec5" stroke="#488ec5" stroke-width="1.51"/><path d="M1534,1114L1474,1333L1640,1258Z" fill="#185ba0" stroke="#185ba0" stroke-width="1.51"/><path d="M1430,39L1586,125L1610,-10Z" fill="#85a8d4" stroke="#85a8d4" stroke-width="1.51"/><path d="M1509,407L1473,582L1614,554Z" fill="#5192c7" stroke="#5192c7" stroke-width="1.51"/><path d="M1450,-100L1430,39L1610,-10Z" fill="#8caed7" stroke="#8caed7" stroke-width="1.51"/><path d="M1359,1193L1474,1333L1534,1114Z" fill="#1f61a5" stroke="#1f61a5" stroke-width="1.51"/><path d="M1465,950L1534,1114L1581,960Z" fill="#216eb2" stroke="#216eb2" stroke-width="1.51"/><path d="M1430,39L1501,259L1586,125Z" fill="#80a7d3" stroke="#80a7d3" stroke-width="1.51"/><path d="M1430,39L1369,206L1501,259Z" fill="#80aad4" stroke="#80aad4" stroke-width="1.51"/><path d="M1501,259L1365,402L1509,407Z" fill="#6aa1ce" stroke="#6aa1ce" stroke-width="1.51"/><path d="M1365,402L1473,582L1509,407Z" fill="#5c9acb" stroke="#5c9acb" stroke-width="1.51"/><path d="M1465,950L1363,947L1534,1114Z" fill="#2672b5" stroke="#2672b5" stroke-width="1.51"/><path d="M1363,947L1359,1193L1534,1114Z" fill="#256eb1" stroke="#256eb1" stroke-width="1.51"/><path d="M1365,402L1374,589L1473,582Z" fill="#5499cb" stroke="#5499cb" stroke-width="1.51"/><path d="M1369,206L1365,402L1501,259Z" fill="#74a7d1" stroke="#74a7d1" stroke-width="1.51"/><path d="M1320,132L1369,206L1430,39Z" fill="#86afd8" stroke="#86afd8" stroke-width="1.51"/><path d="M1348,-18L1430,39L1450,-100Z" fill="#8fb2da" stroke="#8fb2da" stroke-width="1.51"/><path d="M1291,735L1429,814L1463,646Z" fill="#3d8bc3" stroke="#3d8bc3" stroke-width="1.51"/><path d="M1429,814L1363,947L1465,950Z" fill="#2e7cbb" stroke="#2e7cbb" stroke-width="1.51"/><path d="M1374,589L1463,646L1473,582Z" fill="#4a91c7" stroke="#4a91c7" stroke-width="1.51"/><path d="M1359,1193L1311,1333L1474,1333Z" fill="#235f9d" stroke="#235f9d" stroke-width="1.51"/><path d="M1221,1104L1359,1193L1363,947Z" fill="#2c74b4" stroke="#2c74b4" stroke-width="1.51"/><path d="M1326,848L1363,947L1429,814Z" fill="#3481be" stroke="#3481be" stroke-width="1.51"/><path d="M1296,-235L1450,-100L1454,-219Z" fill="#99b9dd" stroke="#99b9dd" stroke-width="1.51"/><path d="M1374,589L1291,735L1463,646Z" fill="#4791c6" stroke="#4791c6" stroke-width="1.51"/><path d="M1296,-235L1348,-18L1450,-100Z" fill="#96b8dd" stroke="#96b8dd" stroke-width="1.51"/><path d="M1291,735L1326,848L1429,814Z" fill="#3b88c1" stroke="#3b88c1" stroke-width="1.51"/><path d="M1348,-18L1320,132L1430,39Z" fill="#8bb2d9" stroke="#8bb2d9" stroke-width="1.51"/><path d="M889,1304L755,1291L1007,1340Z" fill="#4873a7" stroke="#4873a7" stroke-width="1.51"/><path d="M1296,-235L1139,-98L1348,-18Z" fill="#9abfdf" stroke="#9abfdf" stroke-width="1.51"/><path d="M1202,38L1320,132L1348,-18Z" fill="#8eb7db" stroke="#8eb7db" stroke-width="1.51"/><path d="M1231,968L1221,1104L1363,947Z" fill="#317cb9" stroke="#317cb9" stroke-width="1.51"/><path d="M1216,392L1169,551L1365,402Z" fill="#66a6d1" stroke="#66a6d1" stroke-width="1.51"/><path d="M1132,277L1216,392L1369,206Z" fill="#7ab0d6" stroke="#7ab0d6" stroke-width="1.51"/><path d="M1216,392L1365,402L1369,206Z" fill="#72aad2" stroke="#72aad2" stroke-width="1.51"/><path d="M1172,655L1291,735L1374,589Z" fill="#4a97c9" stroke="#4a97c9" stroke-width="1.51"/><path d="M1169,551L1172,655L1374,589Z" fill="#539dcc" stroke="#539dcc" stroke-width="1.51"/><path d="M1365,402L1169,551L1374,589Z" fill="#5a9fce" stroke="#5a9fce" stroke-width="1.51"/><path d="M1320,132L1132,277L1369,206Z" fill="#82b2d8" stroke="#82b2d8" stroke-width="1.51"/><path d="M381,-265L530,-215L898,-237Z" fill="#cce2f0" stroke="#cce2f0" stroke-width="1.51"/><path d="M1183,1322L1311,1333L1359,1193Z" fill="#2965a1" stroke="#2965a1" stroke-width="1.51"/><path d="M1326,848L1231,968L1363,947Z" fill="#3381be" stroke="#3381be" stroke-width="1.51"/><path d="M1235,-244L1139,-98L1296,-235Z" fill="#a1c3e2" stroke="#a1c3e2" stroke-width="1.51"/><path d="M1221,1104L1183,1322L1359,1193Z" fill="#2c6dab" stroke="#2c6dab" stroke-width="1.51"/><path d="M1139,-98L1202,38L1348,-18Z" fill="#96bddf" stroke="#96bddf" stroke-width="1.51"/><path d="M1291,735L1171,853L1326,848Z" fill="#3e8cc4" stroke="#3e8cc4" stroke-width="1.51"/><path d="M1171,853L1231,968L1326,848Z" fill="#3a87c1" stroke="#3a87c1" stroke-width="1.51"/><path d="M1202,38L1132,277L1320,132Z" fill="#8ab7db" stroke="#8ab7db" stroke-width="1.51"/><path d="M1077,1174L1183,1322L1221,1104Z" fill="#3471ae" stroke="#3471ae" stroke-width="1.51"/><path d="M1172,655L1171,853L1291,735Z" fill="#4694c7" stroke="#4694c7" stroke-width="1.51"/><path d="M1084,801L1171,853L1172,655Z" fill="#4995c8" stroke="#4995c8" stroke-width="1.51"/><path d="M1027,112L1132,277L1202,38Z" fill="#90bcde" stroke="#90bcde" stroke-width="1.51"/><path d="M1009,1028L1221,1104L1231,968Z" fill="#3a7fbb" stroke="#3a7fbb" stroke-width="1.51"/><path d="M1026,-259L1139,-98L1235,-244Z" fill="#a6c8e5" stroke="#a6c8e5" stroke-width="1.51"/><path d="M1171,853L1009,1028L1231,968Z" fill="#3e87c1" stroke="#3e87c1" stroke-width="1.51"/><path d="M984,395L980,490L1169,551Z" fill="#6eaed6" stroke="#6eaed6" stroke-width="1.51"/><path d="M984,395L1169,551L1216,392Z" fill="#6eadd4" stroke="#6eadd4" stroke-width="1.51"/><path d="M1009,1028L1077,1174L1221,1104Z" fill="#3c7db8" stroke="#3c7db8" stroke-width="1.51"/><path d="M1132,277L984,395L1216,392Z" fill="#7ab3d7" stroke="#7ab3d7" stroke-width="1.51"/><path d="M1139,-98L1046,-98L1202,38Z" fill="#9dc3e2" stroke="#9dc3e2" stroke-width="1.51"/><path d="M1046,-98L1027,112L1202,38Z" fill="#9bc2e1" stroke="#9bc2e1" stroke-width="1.51"/><path d="M1027,112L1005,243L1132,277Z" fill="#8dbcdd" stroke="#8dbcdd" stroke-width="1.51"/><path d="M1026,-259L1046,-98L1139,-98Z" fill="#a6cae5" stroke="#a6cae5" stroke-width="1.51"/><path d="M1084,801L1009,1028L1171,853Z" fill="#468ec5" stroke="#468ec5" stroke-width="1.51"/><path d="M1169,551L1021,709L1172,655Z" fill="#58a0ce" stroke="#58a0ce" stroke-width="1.51"/><path d="M1021,709L1084,801L1172,655Z" fill="#519bcc" stroke="#519bcc" stroke-width="1.51"/><path d="M1077,1174L1007,1340L1183,1322Z" fill="#396da6" stroke="#396da6" stroke-width="1.51"/><path d="M980,490L1021,709L1169,551Z" fill="#61a6d2" stroke="#61a6d2" stroke-width="1.51"/><path d="M1005,243L984,395L1132,277Z" fill="#84b9db" stroke="#84b9db" stroke-width="1.51"/><path d="M830,890L907,1027L1009,1028Z" fill="#4f8ec5" stroke="#4f8ec5" stroke-width="1.51"/><path d="M896,87L1027,112L1046,-98Z" fill="#9fc6e4" stroke="#9fc6e4" stroke-width="1.51"/><path d="M1009,1028L918,1162L1077,1174Z" fill="#437fba" stroke="#437fba" stroke-width="1.51"/><path d="M918,1162L1007,1340L1077,1174Z" fill="#4076b0" stroke="#4076b0" stroke-width="1.51"/><path d="M830,890L1009,1028L1084,801Z" fill="#4d92c7" stroke="#4d92c7" stroke-width="1.51"/><path d="M1021,709L866,742L1084,801Z" fill="#559ecd" stroke="#559ecd" stroke-width="1.51"/><path d="M866,742L830,890L1084,801Z" fill="#579ccc" stroke="#579ccc" stroke-width="1.51"/><path d="M923,275L984,395L1005,243Z" fill="#88bcdc" stroke="#88bcdc" stroke-width="1.51"/><path d="M918,1162L889,1304L1007,1340Z" fill="#4475ab" stroke="#4475ab" stroke-width="1.51"/><path d="M980,490L846,518L1021,709Z" fill="#69acd4" stroke="#69acd4" stroke-width="1.51"/><path d="M846,518L866,742L1021,709Z" fill="#65a8d3" stroke="#65a8d3" stroke-width="1.51"/><path d="M1026,-259L898,-237L1046,-98Z" fill="#adcfe8" stroke="#adcfe8" stroke-width="1.51"/><path d="M898,-237L833,-9L1046,-98Z" fill="#accfe8" stroke="#accfe8" stroke-width="1.51"/><path d="M833,-9L896,87L1046,-98Z" fill="#a6cbe6" stroke="#a6cbe6" stroke-width="1.51"/><path d="M896,87L923,275L1005,243Z" fill="#95c2e1" stroke="#95c2e1" stroke-width="1.51"/><path d="M907,1027L918,1162L1009,1028Z" fill="#4985be" stroke="#4985be" stroke-width="1.51"/><path d="M896,87L1005,243L1027,112Z" fill="#98c2e2" stroke="#98c2e2" stroke-width="1.51"/><path d="M923,275L929,395L984,395Z" fill="#84bbdc" stroke="#84bbdc" stroke-width="1.51"/><path d="M929,395L980,490L984,395Z" fill="#79b5d9" stroke="#79b5d9" stroke-width="1.51"/><path d="M929,395L846,518L980,490Z" fill="#79b5d9" stroke="#79b5d9" stroke-width="1.51"/><path d="M530,-215L702,-155L898,-237Z" fill="#c2dded" stroke="#c2dded" stroke-width="1.51"/><path d="M702,-155L833,-9L898,-237Z" fill="#b6d5ea" stroke="#b6d5ea" stroke-width="1.51"/><path d="M755,1291L889,1304L918,1162Z" fill="#4d7aaf" stroke="#4d7aaf" stroke-width="1.51"/><path d="M907,1027L718,1102L918,1162Z" fill="#5387be" stroke="#5387be" stroke-width="1.51"/><path d="M896,87L724,107L923,275Z" fill="#a1c8e4" stroke="#a1c8e4" stroke-width="1.51"/><path d="M724,107L715,291L923,275Z" fill="#9ec8e2" stroke="#9ec8e2" stroke-width="1.51"/><path d="M727,422L846,518L929,395Z" fill="#83badb" stroke="#83badb" stroke-width="1.51"/><path d="M923,275L715,291L929,395Z" fill="#90c1de" stroke="#90c1de" stroke-width="1.51"/><path d="M715,291L727,422L929,395Z" fill="#90c1de" stroke="#90c1de" stroke-width="1.51"/><path d="M830,890L765,943L907,1027Z" fill="#5995c8" stroke="#5995c8" stroke-width="1.51"/><path d="M718,1102L755,1291L918,1162Z" fill="#5583b9" stroke="#5583b9" stroke-width="1.51"/><path d="M620,1245L442,1277L755,1291Z" fill="#6282b2" stroke="#6282b2" stroke-width="1.51"/><path d="M770,862L830,890L866,742Z" fill="#619fcd" stroke="#619fcd" stroke-width="1.51"/><path d="M846,518L690,744L866,742Z" fill="#6eacd4" stroke="#6eacd4" stroke-width="1.51"/><path d="M765,943L718,1102L907,1027Z" fill="#5a90c4" stroke="#5a90c4" stroke-width="1.51"/><path d="M702,-155L739,-19L833,-9Z" fill="#b6d5e9" stroke="#b6d5e9" stroke-width="1.51"/><path d="M833,-9L724,107L896,87Z" fill="#aacde6" stroke="#aacde6" stroke-width="1.51"/><path d="M681,503L690,744L846,518Z" fill="#7bb5d8" stroke="#7bb5d8" stroke-width="1.51"/><path d="M690,744L770,862L866,742Z" fill="#68a5d0" stroke="#68a5d0" stroke-width="1.51"/><path d="M739,-19L724,107L833,-9Z" fill="#b0d1e8" stroke="#b0d1e8" stroke-width="1.51"/><path d="M727,422L681,503L846,518Z" fill="#85bbdc" stroke="#85bbdc" stroke-width="1.51"/><path d="M770,862L765,943L830,890Z" fill="#609bcb" stroke="#609bcb" stroke-width="1.51"/><path d="M563,591L567,660L681,503Z" fill="#86badc" stroke="#86badc" stroke-width="1.51"/><path d="M681,503L567,660L690,744Z" fill="#7fb6d9" stroke="#7fb6d9" stroke-width="1.51"/><path d="M585,255L715,291L724,107Z" fill="#a9cee4" stroke="#a9cee4" stroke-width="1.51"/><path d="M702,-155L639,-59L739,-19Z" fill="#bcd9eb" stroke="#bcd9eb" stroke-width="1.51"/><path d="M718,1102L620,1245L755,1291Z" fill="#5d84b7" stroke="#5d84b7" stroke-width="1.51"/><path d="M634,999L718,1102L765,943Z" fill="#6395c6" stroke="#6395c6" stroke-width="1.51"/><path d="M630,887L765,943L770,862Z" fill="#679ecd" stroke="#679ecd" stroke-width="1.51"/><path d="M690,744L630,887L770,862Z" fill="#6ca5d0" stroke="#6ca5d0" stroke-width="1.51"/><path d="M593,1159L620,1245L718,1102Z" fill="#638abe" stroke="#638abe" stroke-width="1.51"/><path d="M630,887L634,999L765,943Z" fill="#689ccb" stroke="#689ccb" stroke-width="1.51"/><path d="M639,-59L724,107L739,-19Z" fill="#b7d5ea" stroke="#b7d5ea" stroke-width="1.51"/><path d="M639,-59L554,46L724,107Z" fill="#b9d6ea" stroke="#b9d6ea" stroke-width="1.51"/><path d="M715,291L545,430L727,422Z" fill="#99c7e0" stroke="#99c7e0" stroke-width="1.51"/><path d="M585,255L545,430L715,291Z" fill="#a2cce3" stroke="#a2cce3" stroke-width="1.51"/><path d="M554,46L585,255L724,107Z" fill="#b4d3e8" stroke="#b4d3e8" stroke-width="1.51"/><path d="M545,430L681,503L727,422Z" fill="#91c2de" stroke="#91c2de" stroke-width="1.51"/><path d="M634,999L593,1159L718,1102Z" fill="#6691c4" stroke="#6691c4" stroke-width="1.51"/><path d="M530,-215L639,-59L702,-155Z" fill="#c5deee" stroke="#c5deee" stroke-width="1.51"/><path d="M567,660L630,887L690,744Z" fill="#76add4" stroke="#76add4" stroke-width="1.51"/><path d="M545,430L563,591L681,503Z" fill="#8ec0de" stroke="#8ec0de" stroke-width="1.51"/><path d="M444,691L414,786L567,660Z" fill="#85b5da" stroke="#85b5da" stroke-width="1.51"/><path d="M554,46L460,91L585,255Z" fill="#bad6eb" stroke="#bad6eb" stroke-width="1.51"/><path d="M567,660L414,786L630,887Z" fill="#7caed5" stroke="#7caed5" stroke-width="1.51"/><path d="M630,887L414,1010L634,999Z" fill="#719ecd" stroke="#719ecd" stroke-width="1.51"/><path d="M414,1010L593,1159L634,999Z" fill="#6e96c7" stroke="#6e96c7" stroke-width="1.51"/><path d="M403,-57L554,46L639,-59Z" fill="#c4dcee" stroke="#c4dcee" stroke-width="1.51"/><path d="M530,-215L403,-57L639,-59Z" fill="#c9dfef" stroke="#c9dfef" stroke-width="1.51"/><path d="M-28,-253L179,-212L381,-265Z" fill="#e4eef9" stroke="#e4eef9" stroke-width="1.51"/><path d="M414,786L414,1010L630,887Z" fill="#79a6d2" stroke="#79a6d2" stroke-width="1.51"/><path d="M474,261L545,430L585,255Z" fill="#a9cfe4" stroke="#a9cfe4" stroke-width="1.51"/><path d="M460,91L474,261L585,255Z" fill="#b6d4e9" stroke="#b6d4e9" stroke-width="1.51"/><path d="M414,1010L420,1149L593,1159Z" fill="#7294c6" stroke="#7294c6" stroke-width="1.51"/><path d="M593,1159L442,1277L620,1245Z" fill="#6887b8" stroke="#6887b8" stroke-width="1.51"/><path d="M474,261L430,405L545,430Z" fill="#a7cde4" stroke="#a7cde4" stroke-width="1.51"/><path d="M545,430L422,591L563,591Z" fill="#91c0df" stroke="#91c0df" stroke-width="1.51"/><path d="M420,1149L442,1277L593,1159Z" fill="#6e8cbe" stroke="#6e8cbe" stroke-width="1.51"/><path d="M267,1239L137,1289L442,1277Z" fill="#768ab9" stroke="#768ab9" stroke-width="1.51"/><path d="M430,405L422,591L545,430Z" fill="#9bc6e2" stroke="#9bc6e2" stroke-width="1.51"/><path d="M422,591L444,691L563,591Z" fill="#8cbbdd" stroke="#8cbbdd" stroke-width="1.51"/><path d="M563,591L444,691L567,660Z" fill="#87b8db" stroke="#87b8db" stroke-width="1.51"/><path d="M403,-57L460,91L554,46Z" fill="#c5dcee" stroke="#c5dcee" stroke-width="1.51"/><path d="M317,878L414,1010L414,786Z" fill="#81a9d4" stroke="#81a9d4" stroke-width="1.51"/><path d="M381,-265L403,-57L530,-215Z" fill="#d3e5f3" stroke="#d3e5f3" stroke-width="1.51"/><path d="M381,-265L320,-85L403,-57Z" fill="#d5e5f4" stroke="#d5e5f4" stroke-width="1.51"/><path d="M283,576L422,591L430,405Z" fill="#9cc5e3" stroke="#9cc5e3" stroke-width="1.51"/><path d="M403,-57L293,45L460,91Z" fill="#cbdef1" stroke="#cbdef1" stroke-width="1.51"/><path d="M460,91L294,212L474,261Z" fill="#bdd7ec" stroke="#bdd7ec" stroke-width="1.51"/><path d="M294,212L430,405L474,261Z" fill="#b4d3e8" stroke="#b4d3e8" stroke-width="1.51"/><path d="M294,212L242,355L430,405Z" fill="#b5d4e9" stroke="#b5d4e9" stroke-width="1.51"/><path d="M293,45L294,212L460,91Z" fill="#c7dcef" stroke="#c7dcef" stroke-width="1.51"/><path d="M414,1010L291,1028L420,1149Z" fill="#7a9acb" stroke="#7a9acb" stroke-width="1.51"/><path d="M420,1149L267,1239L442,1277Z" fill="#748dbd" stroke="#748dbd" stroke-width="1.51"/><path d="M422,591L267,641L444,691Z" fill="#92bdde" stroke="#92bdde" stroke-width="1.51"/><path d="M267,641L414,786L444,691Z" fill="#8db8dc" stroke="#8db8dc" stroke-width="1.51"/><path d="M317,878L291,1028L414,1010Z" fill="#80a3d2" stroke="#80a3d2" stroke-width="1.51"/><path d="M291,1028L257,1149L420,1149Z" fill="#7b98c9" stroke="#7b98c9" stroke-width="1.51"/><path d="M283,576L267,641L422,591Z" fill="#98c1e1" stroke="#98c1e1" stroke-width="1.51"/><path d="M242,355L283,576L430,405Z" fill="#a8cce5" stroke="#a8cce5" stroke-width="1.51"/><path d="M233,-178L320,-85L381,-265Z" fill="#dae8f6" stroke="#dae8f6" stroke-width="1.51"/><path d="M257,1149L267,1239L420,1149Z" fill="#7992c3" stroke="#7992c3" stroke-width="1.51"/><path d="M320,-85L293,45L403,-57Z" fill="#d1e1f3" stroke="#d1e1f3" stroke-width="1.51"/><path d="M267,641L317,878L414,786Z" fill="#8ab4da" stroke="#8ab4da" stroke-width="1.51"/><path d="M179,-212L233,-178L381,-265Z" fill="#dfebf7" stroke="#dfebf7" stroke-width="1.51"/><path d="M99,737L112,798L267,641Z" fill="#95bdde" stroke="#95bdde" stroke-width="1.51"/><path d="M242,355L104,518L283,576Z" fill="#a8cce6" stroke="#a8cce6" stroke-width="1.51"/><path d="M293,45L131,81L294,212Z" fill="#ccdef1" stroke="#ccdef1" stroke-width="1.51"/><path d="M131,81L131,194L294,212Z" fill="#cadef0" stroke="#cadef0" stroke-width="1.51"/><path d="M267,641L112,798L317,878Z" fill="#8fb7db" stroke="#8fb7db" stroke-width="1.51"/><path d="M133,979L291,1028L317,878Z" fill="#84a6d3" stroke="#84a6d3" stroke-width="1.51"/><path d="M99,-58L293,45L320,-85Z" fill="#d5e4f3" stroke="#d5e4f3" stroke-width="1.51"/><path d="M233,-178L99,-58L320,-85Z" fill="#d9e8f6" stroke="#d9e8f6" stroke-width="1.51"/><path d="M112,798L133,979L317,878Z" fill="#8baed8" stroke="#8baed8" stroke-width="1.51"/><path d="M141,360L104,518L242,355Z" fill="#b2d2e8" stroke="#b2d2e8" stroke-width="1.51"/><path d="M133,979L257,1149L291,1028Z" fill="#829fce" stroke="#829fce" stroke-width="1.51"/><path d="M99,-58L131,81L293,45Z" fill="#d4e4f4" stroke="#d4e4f4" stroke-width="1.51"/><path d="M131,194L242,355L294,212Z" fill="#c0d9ec" stroke="#c0d9ec" stroke-width="1.51"/><path d="M131,194L141,360L242,355Z" fill="#bdd9eb" stroke="#bdd9eb" stroke-width="1.51"/><path d="M104,518L267,641L283,576Z" fill="#9ec6e3" stroke="#9ec6e3" stroke-width="1.51"/><path d="M86,1156L137,1289L257,1149Z" fill="#7e94c3" stroke="#7e94c3" stroke-width="1.51"/><path d="M133,979L86,1156L257,1149Z" fill="#839dcc" stroke="#839dcc" stroke-width="1.51"/><path d="M104,518L99,737L267,641Z" fill="#9cc3e2" stroke="#9cc3e2" stroke-width="1.51"/><path d="M257,1149L137,1289L267,1239Z" fill="#7b90bf" stroke="#7b90bf" stroke-width="1.51"/><path d="M179,-212L99,-58L233,-178Z" fill="#deeaf7" stroke="#deeaf7" stroke-width="1.51"/><path d="M9,561L99,737L104,518Z" fill="#a2c7e4" stroke="#a2c7e4" stroke-width="1.51"/><path d="M112,798L9,844L133,979Z" fill="#90b2d9" stroke="#90b2d9" stroke-width="1.51"/><path d="M131,194L14,289L141,360Z" fill="#c2dbed" stroke="#c2dbed" stroke-width="1.51"/><path d="M-28,-253L99,-58L179,-212Z" fill="#e3eef8" stroke="#e3eef8" stroke-width="1.51"/><path d="M-28,-253L-22,-58L99,-58Z" fill="#e2edf8" stroke="#e2edf8" stroke-width="1.51"/><path d="M9,561L-28,697L99,737Z" fill="#9fc4e2" stroke="#9fc4e2" stroke-width="1.51"/><path d="M-39,86L131,194L131,81Z" fill="#d2e3f3" stroke="#d2e3f3" stroke-width="1.51"/><path d="M99,-58L-39,86L131,81Z" fill="#d8e6f5" stroke="#d8e6f5" stroke-width="1.51"/><path d="M-46,1020L86,1156L133,979Z" fill="#89a3d0" stroke="#89a3d0" stroke-width="1.51"/><path d="M86,1156L13,1305L137,1289Z" fill="#8091be" stroke="#8091be" stroke-width="1.51"/><path d="M-44,363L104,518L141,360Z" fill="#b5d5ea" stroke="#b5d5ea" stroke-width="1.51"/><path d="M14,289L-44,363L141,360Z" fill="#bfdbec" stroke="#bfdbec" stroke-width="1.51"/><path d="M-22,-58L-39,86L99,-58Z" fill="#dceaf6" stroke="#dceaf6" stroke-width="1.51"/><path d="M9,844L-46,1020L133,979Z" fill="#8eadd7" stroke="#8eadd7" stroke-width="1.51"/><path d="M-39,86L14,289L131,194Z" fill="#cde1f1" stroke="#cde1f1" stroke-width="1.51"/><path d="M-40,1191L13,1305L86,1156Z" fill="#8395c2" stroke="#8395c2" stroke-width="1.51"/><path d="M-44,363L9,561L104,518Z" fill="#b0d1e9" stroke="#b0d1e9" stroke-width="1.51"/><path d="M99,737L9,844L112,798Z" fill="#94b9dd" stroke="#94b9dd" stroke-width="1.51"/><path d="M-46,1020L-40,1191L86,1156Z" fill="#889fcc" stroke="#889fcc" stroke-width="1.51"/><path d="M-28,697L9,844L99,737Z" fill="#98bddf" stroke="#98bddf" stroke-width="1.51"/><path d="M-138,783L-151,1033L-46,1020Z" fill="#94b0d9" stroke="#94b0d9" stroke-width="1.51"/><path d="M-28,-253L-121,-183L-22,-58Z" fill="#e8f2fa" stroke="#e8f2fa" stroke-width="1.51"/><path d="M-44,363L-130,397L9,561Z" fill="#b8d6ea" stroke="#b8d6ea" stroke-width="1.51"/><path d="M-130,397L-173,489L9,561Z" fill="#b5d4ea" stroke="#b5d4ea" stroke-width="1.51"/><path d="M-173,489L-28,697L9,561Z" fill="#a9cce7" stroke="#a9cce7" stroke-width="1.51"/><path d="M-28,697L-138,783L9,844Z" fill="#9abedf" stroke="#9abedf" stroke-width="1.51"/><path d="M-138,783L-46,1020L9,844Z" fill="#95b4db" stroke="#95b4db" stroke-width="1.51"/><path d="M-40,1191L-152,1337L13,1305Z" fill="#8492bb" stroke="#8492bb" stroke-width="1.51"/><path d="M-39,86L-193,290L14,289Z" fill="#cfe2f2" stroke="#cfe2f2" stroke-width="1.51"/><path d="M-193,290L-44,363L14,289Z" fill="#c6dfee" stroke="#c6dfee" stroke-width="1.51"/><path d="M-46,1020L-151,1033L-40,1191Z" fill="#8ea4d0" stroke="#8ea4d0" stroke-width="1.51"/><path d="M-207,92L-193,290L-39,86Z" fill="#d8e7f5" stroke="#d8e7f5" stroke-width="1.51"/><path d="M-173,489L-206,734L-28,697Z" fill="#a8cae5" stroke="#a8cae5" stroke-width="1.51"/><path d="M-186,-51L-39,86L-22,-58Z" fill="#e0ecf8" stroke="#e0ecf8" stroke-width="1.51"/><path d="M-121,-183L-186,-51L-22,-58Z" fill="#e6f0fa" stroke="#e6f0fa" stroke-width="1.51"/><path d="M-151,1033L-222,1095L-40,1191Z" fill="#8fa3cf" stroke="#8fa3cf" stroke-width="1.51"/><path d="M-186,-51L-207,92L-39,86Z" fill="#e0ecf7" stroke="#e0ecf7" stroke-width="1.51"/><path d="M-206,734L-138,783L-28,697Z" fill="#a0c3e2" stroke="#a0c3e2" stroke-width="1.51"/><path d="M-193,290L-130,397L-44,363Z" fill="#c4deee" stroke="#c4deee" stroke-width="1.51"/><path d="M-222,1095L-152,1337L-40,1191Z" fill="#8b9ac6" stroke="#8b9ac6" stroke-width="1.51"/><path d="M-206,734L-222,1095L-151,1033Z" fill="#97b2da" stroke="#97b2da" stroke-width="1.51"/><path d="M-206,734L-151,1033L-138,783Z" fill="#9cbadd" stroke="#9cbadd" stroke-width="1.51"/><path d="M-193,290L-173,489L-130,397Z" fill="#c2dced" stroke="#c2dced" stroke-width="1.51"/><path d="M-193,290L-206,734L-173,489Z" fill="#b7d5eb" stroke="#b7d5eb" stroke-width="1.51"/><path d="M-207,92L-206,734L-193,290Z" fill="#c5dfee" stroke="#c5dfee" stroke-width="1.51"/><path d="M-207,92L-222,1095L-206,734Z" fill="#accce6" stroke="#accce6" stroke-width="1.51"/></svg>