<svg xmlns="http://www.w3.org/2000/svg" width="1920" height="1080"><path d="M-233,-173L-50,-179L249,-212Z" fill="#e8f6e2" stroke="#e8f6e2" stroke-width="1.51"/><path d="M672,1314L25,1339L779,1325Z" fill="#7391a4" stroke="#7391a4" stroke-width="1.51"/><path d="M249,-212L675,-211L847,-222Z" fill="#cfedd0" stroke="#cfedd0" stroke-width="1.51"/><path d="M779,1325L25,1339L1002,1343Z" fill="#6c8ea0" stroke="#6c8ea0" stroke-width="1.51"/><path d="M249,-212L847,-222L1139,-239Z" fill="#c6e9d2" stroke="#c6e9d2" stroke-width="1.51"/><path d="M249,-212L1139,-239L1314,-246Z" fill="#bde5d6" stroke="#bde5d6" stroke-width="1.51"/><path d="M1308,1296L1130,1334L1652,1312Z" fill="#2d77ac" stroke="#2d77ac" stroke-width="1.51"/><path d="M1652,1312L1130,1334L1737,1312Z" fill="#236ea6" stroke="#236ea6" stroke-width="1.51"/><path d="M1130,1334L1002,1343L1737,1312Z" fill="#317aad" stroke="#317aad" stroke-width="1.51"/><path d="M1737,1312L1002,1343L2000,1312Z" fill="#1e69a4" stroke="#1e69a4" stroke-width="1.51"/><path d="M1314,-246L1641,-243L2083,-257Z" fill="#9abbd2" stroke="#9abbd2" stroke-width="1.51"/><path d="M1641,-243L1754,-230L2083,-257Z" fill="#95b1cf" stroke="#95b1cf" stroke-width="1.51"/><path d="M1941,1149L2083,1166L2092,930Z" fill="#1364a5" stroke="#1364a5" stroke-width="1.51"/><path d="M2083,-257L1996,-185L2115,16Z" fill="#899fba" stroke="#899fba" stroke-width="1.51"/><path d="M1996,-185L2008,10L2115,16Z" fill="#869fb8" stroke="#869fb8" stroke-width="1.51"/><path d="M2073,83L1941,154L2117,298Z" fill="#799aad" stroke="#799aad" stroke-width="1.51"/><path d="M2004,454L2068,498L2117,298Z" fill="#6190a8" stroke="#6190a8" stroke-width="1.51"/><path d="M2115,16L2073,83L2117,298Z" fill="#7b97ab" stroke="#7b97ab" stroke-width="1.51"/><path d="M2117,298L2068,498L2124,671Z" fill="#568ba8" stroke="#568ba8" stroke-width="1.51"/><path d="M2092,930L2083,1166L2149,1274Z" fill="#0e5c9e" stroke="#0e5c9e" stroke-width="1.51"/><path d="M2115,16L2117,298L2157,726Z" fill="#678fa1" stroke="#678fa1" stroke-width="1.51"/><path d="M2124,671L1934,769L2157,726Z" fill="#3881b1" stroke="#3881b1" stroke-width="1.51"/><path d="M1934,769L2092,930L2157,726Z" fill="#2e7bb0" stroke="#2e7bb0" stroke-width="1.51"/><path d="M2092,930L2149,1274L2157,726Z" fill="#1c67a3" stroke="#1c67a3" stroke-width="1.51"/><path d="M2117,298L2124,671L2157,726Z" fill="#4c86a8" stroke="#4c86a8" stroke-width="1.51"/><path d="M1900,994L1941,1149L2092,930Z" fill="#186dab" stroke="#186dab" stroke-width="1.51"/><path d="M2083,1166L2000,1312L2149,1274Z" fill="#0a5295" stroke="#0a5295" stroke-width="1.51"/><path d="M1936,353L2004,454L2117,298Z" fill="#6896aa" stroke="#6896aa" stroke-width="1.51"/><path d="M1941,154L1936,353L2117,298Z" fill="#739aac" stroke="#739aac" stroke-width="1.51"/><path d="M2068,498L1909,617L2124,671Z" fill="#4a8bb0" stroke="#4a8bb0" stroke-width="1.51"/><path d="M1909,617L1934,769L2124,671Z" fill="#3e89b7" stroke="#3e89b7" stroke-width="1.51"/><path d="M1754,-230L1996,-185L2083,-257Z" fill="#91a9c7" stroke="#91a9c7" stroke-width="1.51"/><path d="M2008,10L2073,83L2115,16Z" fill="#819cb2" stroke="#819cb2" stroke-width="1.51"/><path d="M272,1300L25,1339L672,1314Z" fill="#7c95aa" stroke="#7c95aa" stroke-width="1.51"/><path d="M1941,1149L2000,1312L2083,1166Z" fill="#0a5b9e" stroke="#0a5b9e" stroke-width="1.51"/><path d="M1934,769L1900,994L2092,930Z" fill="#2578b2" stroke="#2578b2" stroke-width="1.51"/><path d="M2004,454L1909,617L2068,498Z" fill="#5391b1" stroke="#5391b1" stroke-width="1.51"/><path d="M2008,10L1941,154L2073,83Z" fill="#809fb4" stroke="#809fb4" stroke-width="1.51"/><path d="M1314,-246L1503,-221L1641,-243Z" fill="#a0c7d8" stroke="#a0c7d8" stroke-width="1.51"/><path d="M1818,261L1936,353L1941,154Z" fill="#76a2b4" stroke="#76a2b4" stroke-width="1.51"/><path d="M1808,493L1909,617L2004,454Z" fill="#5698b7" stroke="#5698b7" stroke-width="1.51"/><path d="M1996,-185L1727,-66L2008,10Z" fill="#8aa9c3" stroke="#8aa9c3" stroke-width="1.51"/><path d="M1727,-66L1941,154L2008,10Z" fill="#86a8be" stroke="#86a8be" stroke-width="1.51"/><path d="M1754,-230L1727,-66L1996,-185Z" fill="#91b0ca" stroke="#91b0ca" stroke-width="1.51"/><path d="M1941,1149L1784,1161L2000,1312Z" fill="#0961a5" stroke="#0961a5" stroke-width="1.51"/><path d="M1784,1161L1737,1312L2000,1312Z" fill="#0e60a2" stroke="#0e60a2" stroke-width="1.51"/><path d="M1936,353L1808,493L2004,454Z" fill="#629ab3" stroke="#629ab3" stroke-width="1.51"/><path d="M1741,958L1900,994L1934,769Z" fill="#257fb9" stroke="#257fb9" stroke-width="1.51"/><path d="M1760,743L1741,958L1934,769Z" fill="#308abe" stroke="#308abe" stroke-width="1.51"/><path d="M1909,617L1839,659L1934,769Z" fill="#4090bd" stroke="#4090bd" stroke-width="1.51"/><path d="M1732,162L1818,261L1941,154Z" fill="#7ea9b9" stroke="#7ea9b9" stroke-width="1.51"/><path d="M1727,-66L1732,162L1941,154Z" fill="#86adbf" stroke="#86adbf" stroke-width="1.51"/><path d="M1900,994L1784,1161L1941,1149Z" fill="#116daf" stroke="#116daf" stroke-width="1.51"/><path d="M1839,659L1760,743L1934,769Z" fill="#3a91c0" stroke="#3a91c0" stroke-width="1.51"/><path d="M1818,261L1808,493L1936,353Z" fill="#6ba1b4" stroke="#6ba1b4" stroke-width="1.51"/><path d="M1741,958L1784,1161L1900,994Z" fill="#1c77b4" stroke="#1c77b4" stroke-width="1.51"/><path d="M1808,493L1839,659L1909,617Z" fill="#4e98bb" stroke="#4e98bb" stroke-width="1.51"/><path d="M1727,-66L1625,11L1732,162Z" fill="#8bb4c4" stroke="#8bb4c4" stroke-width="1.51"/><path d="M1650,778L1741,958L1760,743Z" fill="#3390c1" stroke="#3390c1" stroke-width="1.51"/><path d="M1657,250L1561,464L1808,493Z" fill="#6babba" stroke="#6babba" stroke-width="1.51"/><path d="M1657,250L1808,493L1818,261Z" fill="#72a8b5" stroke="#72a8b5" stroke-width="1.51"/><path d="M1808,493L1567,670L1839,659Z" fill="#4f9ebf" stroke="#4f9ebf" stroke-width="1.51"/><path d="M1567,670L1760,743L1839,659Z" fill="#439ac3" stroke="#439ac3" stroke-width="1.51"/><path d="M1741,958L1665,952L1784,1161Z" fill="#217cb6" stroke="#217cb6" stroke-width="1.51"/><path d="M1561,464L1567,670L1808,493Z" fill="#59a7bf" stroke="#59a7bf" stroke-width="1.51"/><path d="M1732,162L1657,250L1818,261Z" fill="#7dadba" stroke="#7dadba" stroke-width="1.51"/><path d="M1650,778L1665,952L1741,958Z" fill="#2d8abe" stroke="#2d8abe" stroke-width="1.51"/><path d="M1665,952L1576,1129L1784,1161Z" fill="#1f7bb6" stroke="#1f7bb6" stroke-width="1.51"/><path d="M1641,-243L1727,-66L1754,-230Z" fill="#96b8cf" stroke="#96b8cf" stroke-width="1.51"/><path d="M1567,670L1650,778L1760,743Z" fill="#3e9bc6" stroke="#3e9bc6" stroke-width="1.51"/><path d="M1652,1312L1737,1312L1784,1161Z" fill="#1667a6" stroke="#1667a6" stroke-width="1.51"/><path d="M1576,1129L1652,1312L1784,1161Z" fill="#1970ae" stroke="#1970ae" stroke-width="1.51"/><path d="M1625,11L1576,85L1732,162Z" fill="#8ab7c3" stroke="#8ab7c3" stroke-width="1.51"/><path d="M1508,326L1561,464L1657,250Z" fill="#75b3bb" stroke="#75b3bb" stroke-width="1.51"/><path d="M1641,-243L1625,11L1727,-66Z" fill="#92b9cc" stroke="#92b9cc" stroke-width="1.51"/><path d="M1576,85L1657,250L1732,162Z" fill="#84b4bf" stroke="#84b4bf" stroke-width="1.51"/><path d="M1503,-221L1418,-81L1625,11Z" fill="#97c3d0" stroke="#97c3d0" stroke-width="1.51"/><path d="M1503,-221L1625,11L1641,-243Z" fill="#97bfd0" stroke="#97bfd0" stroke-width="1.51"/><path d="M1459,793L1469,939L1650,778Z" fill="#399ac6" stroke="#399ac6" stroke-width="1.51"/><path d="M1427,1241L1308,1296L1652,1312Z" fill="#2774ac" stroke="#2774ac" stroke-width="1.51"/><path d="M1576,1129L1427,1241L1652,1312Z" fill="#2074ae" stroke="#2074ae" stroke-width="1.51"/><path d="M1576,85L1508,326L1657,250Z" fill="#81b7bf" stroke="#81b7bf" stroke-width="1.51"/><path d="M1493,1099L1576,1129L1665,952Z" fill="#2582ba" stroke="#2582ba" stroke-width="1.51"/><path d="M1469,939L1493,1099L1665,952Z" fill="#2b8abd" stroke="#2b8abd" stroke-width="1.51"/><path d="M1650,778L1469,939L1665,952Z" fill="#3191c1" stroke="#3191c1" stroke-width="1.51"/><path d="M1561,464L1457,578L1567,670Z" fill="#59adc4" stroke="#59adc4" stroke-width="1.51"/><path d="M1435,115L1508,326L1576,85Z" fill="#88bdc3" stroke="#88bdc3" stroke-width="1.51"/><path d="M1567,670L1459,793L1650,778Z" fill="#3fa0c9" stroke="#3fa0c9" stroke-width="1.51"/><path d="M1418,-81L1576,85L1625,11Z" fill="#91bfca" stroke="#91bfca" stroke-width="1.51"/><path d="M1508,326L1421,443L1561,464Z" fill="#70b6c0" stroke="#70b6c0" stroke-width="1.51"/><path d="M1418,-81L1435,115L1576,85Z" fill="#92c2ca" stroke="#92c2ca" stroke-width="1.51"/><path d="M1493,1099L1427,1241L1576,1129Z" fill="#257fb8" stroke="#257fb8" stroke-width="1.51"/><path d="M1421,443L1457,578L1561,464Z" fill="#65b3c3" stroke="#65b3c3" stroke-width="1.51"/><path d="M1457,578L1459,793L1567,670Z" fill="#4da8c9" stroke="#4da8c9" stroke-width="1.51"/><path d="M1457,578L1269,746L1459,793Z" fill="#4eadcd" stroke="#4eadcd" stroke-width="1.51"/><path d="M1346,1148L1427,1241L1493,1099Z" fill="#2a83ba" stroke="#2a83ba" stroke-width="1.51"/><path d="M1469,939L1331,964L1493,1099Z" fill="#3290c1" stroke="#3290c1" stroke-width="1.51"/><path d="M1314,-246L1418,-81L1503,-221Z" fill="#a0ccd8" stroke="#a0ccd8" stroke-width="1.51"/><path d="M1347,134L1253,289L1508,326Z" fill="#87c4c4" stroke="#87c4c4" stroke-width="1.51"/><path d="M1334,428L1421,443L1508,326Z" fill="#75bbc2" stroke="#75bbc2" stroke-width="1.51"/><path d="M1253,289L1334,428L1508,326Z" fill="#7dc1c2" stroke="#7dc1c2" stroke-width="1.51"/><path d="M1435,115L1347,134L1508,326Z" fill="#8ac2c5" stroke="#8ac2c5" stroke-width="1.51"/><path d="M1263,620L1269,746L1457,578Z" fill="#58b5ce" stroke="#58b5ce" stroke-width="1.51"/><path d="M1331,964L1346,1148L1493,1099Z" fill="#328dc0" stroke="#328dc0" stroke-width="1.51"/><path d="M1418,-81L1347,134L1435,115Z" fill="#95c7cc" stroke="#95c7cc" stroke-width="1.51"/><path d="M1269,746L1331,964L1459,793Z" fill="#43a5cc" stroke="#43a5cc" stroke-width="1.51"/><path d="M1459,793L1331,964L1469,939Z" fill="#3a9bc6" stroke="#3a9bc6" stroke-width="1.51"/><path d="M1298,-96L1347,134L1418,-81Z" fill="#9accd1" stroke="#9accd1" stroke-width="1.51"/><path d="M1314,-246L1298,-96L1418,-81Z" fill="#a1cfd8" stroke="#a1cfd8" stroke-width="1.51"/><path d="M1421,443L1334,428L1457,578Z" fill="#6ab9c5" stroke="#6ab9c5" stroke-width="1.51"/><path d="M1334,428L1263,620L1457,578Z" fill="#64bac9" stroke="#64bac9" stroke-width="1.51"/><path d="M1346,1148L1308,1296L1427,1241Z" fill="#2e7fb5" stroke="#2e7fb5" stroke-width="1.51"/><path d="M1086,-29L1111,100L1298,-96Z" fill="#a2d5d1" stroke="#a2d5d1" stroke-width="1.51"/><path d="M1269,746L1111,948L1331,964Z" fill="#47a7cb" stroke="#47a7cb" stroke-width="1.51"/><path d="M1151,413L1263,620L1334,428Z" fill="#70c2c9" stroke="#70c2c9" stroke-width="1.51"/><path d="M1081,1163L1308,1296L1346,1148Z" fill="#3789ba" stroke="#3789ba" stroke-width="1.51"/><path d="M1331,964L1111,948L1346,1148Z" fill="#3c9ac6" stroke="#3c9ac6" stroke-width="1.51"/><path d="M1111,948L1081,1163L1346,1148Z" fill="#4296c1" stroke="#4296c1" stroke-width="1.51"/><path d="M1298,-96L1111,100L1347,134Z" fill="#9bd1d1" stroke="#9bd1d1" stroke-width="1.51"/><path d="M1111,100L1253,289L1347,134Z" fill="#94cfca" stroke="#94cfca" stroke-width="1.51"/><path d="M1139,-239L1298,-96L1314,-246Z" fill="#a8d6dd" stroke="#a8d6dd" stroke-width="1.51"/><path d="M1253,289L1151,413L1334,428Z" fill="#7fc7c5" stroke="#7fc7c5" stroke-width="1.51"/><path d="M1067,842L1111,948L1269,746Z" fill="#52aecb" stroke="#52aecb" stroke-width="1.51"/><path d="M1081,1163L1130,1334L1308,1296Z" fill="#3f85b2" stroke="#3f85b2" stroke-width="1.51"/><path d="M249,-212L521,-186L675,-211Z" fill="#d5efd3" stroke="#d5efd3" stroke-width="1.51"/><path d="M1151,413L1167,654L1263,620Z" fill="#6ac1cb" stroke="#6ac1cb" stroke-width="1.51"/><path d="M1263,620L1167,654L1269,746Z" fill="#5bb9d0" stroke="#5bb9d0" stroke-width="1.51"/><path d="M1139,-239L1086,-29L1298,-96Z" fill="#a8d8d7" stroke="#a8d8d7" stroke-width="1.51"/><path d="M1111,100L1082,272L1253,289Z" fill="#94d1c6" stroke="#94d1c6" stroke-width="1.51"/><path d="M1167,654L1067,842L1269,746Z" fill="#57b7d1" stroke="#57b7d1" stroke-width="1.51"/><path d="M1082,272L1151,413L1253,289Z" fill="#8acdc2" stroke="#8acdc2" stroke-width="1.51"/><path d="M990,171L1082,272L1111,100Z" fill="#9cd5c5" stroke="#9cd5c5" stroke-width="1.51"/><path d="M998,957L1081,1163L1111,948Z" fill="#4fa1c1" stroke="#4fa1c1" stroke-width="1.51"/><path d="M847,-222L921,-173L1139,-239Z" fill="#b7e2d6" stroke="#b7e2d6" stroke-width="1.51"/><path d="M921,-173L1086,-29L1139,-239Z" fill="#b0ddd5" stroke="#b0ddd5" stroke-width="1.51"/><path d="M899,497L1013,643L1151,413Z" fill="#7bcac5" stroke="#7bcac5" stroke-width="1.51"/><path d="M1151,413L1013,643L1167,654Z" fill="#6fc4c9" stroke="#6fc4c9" stroke-width="1.51"/><path d="M1013,643L1067,842L1167,654Z" fill="#62bcce" stroke="#62bcce" stroke-width="1.51"/><path d="M1081,1163L1002,1343L1130,1334Z" fill="#4787ae" stroke="#4787ae" stroke-width="1.51"/><path d="M1082,272L899,497L1151,413Z" fill="#88cec1" stroke="#88cec1" stroke-width="1.51"/><path d="M998,957L921,1062L1081,1163Z" fill="#53a0be" stroke="#53a0be" stroke-width="1.51"/><path d="M1013,643L927,729L1067,842Z" fill="#65becc" stroke="#65becc" stroke-width="1.51"/><path d="M966,230L899,497L1082,272Z" fill="#92d3bd" stroke="#92d3bd" stroke-width="1.51"/><path d="M904,-48L990,171L1086,-29Z" fill="#a9dccb" stroke="#a9dccb" stroke-width="1.51"/><path d="M1086,-29L990,171L1111,100Z" fill="#a3d8ca" stroke="#a3d8ca" stroke-width="1.51"/><path d="M1067,842L998,957L1111,948Z" fill="#55abc6" stroke="#55abc6" stroke-width="1.51"/><path d="M921,1062L1002,1343L1081,1163Z" fill="#4f94b6" stroke="#4f94b6" stroke-width="1.51"/><path d="M990,171L966,230L1082,272Z" fill="#9bd6c2" stroke="#9bd6c2" stroke-width="1.51"/><path d="M921,-173L904,-48L1086,-29Z" fill="#b0dfd0" stroke="#b0dfd0" stroke-width="1.51"/><path d="M927,729L998,957L1067,842Z" fill="#5fb5c8" stroke="#5fb5c8" stroke-width="1.51"/><path d="M825,1063L779,1325L921,1062Z" fill="#5f9cb6" stroke="#5f9cb6" stroke-width="1.51"/><path d="M815,477L899,497L966,230Z" fill="#90d3be" stroke="#90d3be" stroke-width="1.51"/><path d="M760,257L815,477L966,230Z" fill="#9cd8bb" stroke="#9cd8bb" stroke-width="1.51"/><path d="M904,-48L774,168L990,171Z" fill="#acdec5" stroke="#acdec5" stroke-width="1.51"/><path d="M927,729L810,836L998,957Z" fill="#66b8c6" stroke="#66b8c6" stroke-width="1.51"/><path d="M921,1062L779,1325L1002,1343Z" fill="#5791ae" stroke="#5791ae" stroke-width="1.51"/><path d="M829,660L927,729L1013,643Z" fill="#72c4c8" stroke="#72c4c8" stroke-width="1.51"/><path d="M899,497L829,660L1013,643Z" fill="#7acac5" stroke="#7acac5" stroke-width="1.51"/><path d="M810,836L806,1006L998,957Z" fill="#64b0c0" stroke="#64b0c0" stroke-width="1.51"/><path d="M806,1006L921,1062L998,957Z" fill="#5da8be" stroke="#5da8be" stroke-width="1.51"/><path d="M763,-8L774,168L904,-48Z" fill="#b4e2c6" stroke="#b4e2c6" stroke-width="1.51"/><path d="M774,168L966,230L990,171Z" fill="#a4dbc1" stroke="#a4dbc1" stroke-width="1.51"/><path d="M774,168L760,257L966,230Z" fill="#a6dcbe" stroke="#a6dcbe" stroke-width="1.51"/><path d="M815,477L829,660L899,497Z" fill="#84cec2" stroke="#84cec2" stroke-width="1.51"/><path d="M847,-222L904,-48L921,-173Z" fill="#b9e3d1" stroke="#b9e3d1" stroke-width="1.51"/><path d="M806,1006L825,1063L921,1062Z" fill="#62a6bb" stroke="#62a6bb" stroke-width="1.51"/><path d="M829,660L810,836L927,729Z" fill="#72c3c9" stroke="#72c3c9" stroke-width="1.51"/><path d="M847,-222L763,-8L904,-48Z" fill="#b9e4cd" stroke="#b9e4cd" stroke-width="1.51"/><path d="M605,1145L672,1314L779,1325Z" fill="#6894a8" stroke="#6894a8" stroke-width="1.51"/><path d="M641,438L580,665L815,477Z" fill="#92d4bd" stroke="#92d4bd" stroke-width="1.51"/><path d="M760,257L641,438L815,477Z" fill="#9dd8b9" stroke="#9dd8b9" stroke-width="1.51"/><path d="M605,1145L779,1325L825,1063Z" fill="#689cb2" stroke="#689cb2" stroke-width="1.51"/><path d="M815,477L580,665L829,660Z" fill="#88cec2" stroke="#88cec2" stroke-width="1.51"/><path d="M626,736L810,836L829,660Z" fill="#7ac5c7" stroke="#7ac5c7" stroke-width="1.51"/><path d="M669,-73L763,-8L847,-222Z" fill="#bee6cb" stroke="#bee6cb" stroke-width="1.51"/><path d="M675,-211L669,-73L847,-222Z" fill="#c4e8ce" stroke="#c4e8ce" stroke-width="1.51"/><path d="M661,1010L806,1006L810,836Z" fill="#6db1bd" stroke="#6db1bd" stroke-width="1.51"/><path d="M661,1010L605,1145L825,1063Z" fill="#6ea7b7" stroke="#6ea7b7" stroke-width="1.51"/><path d="M580,665L626,736L829,660Z" fill="#85cac3" stroke="#85cac3" stroke-width="1.51"/><path d="M-50,-179L141,-187L249,-212Z" fill="#e4f5de" stroke="#e4f5de" stroke-width="1.51"/><path d="M806,1006L661,1010L825,1063Z" fill="#6aaaba" stroke="#6aaaba" stroke-width="1.51"/><path d="M763,-8L590,66L774,168Z" fill="#b9e4c1" stroke="#b9e4c1" stroke-width="1.51"/><path d="M626,736L661,1010L810,836Z" fill="#78bbc0" stroke="#78bbc0" stroke-width="1.51"/><path d="M568,273L641,438L760,257Z" fill="#a9deb5" stroke="#a9deb5" stroke-width="1.51"/><path d="M568,273L760,257L774,168Z" fill="#aedfba" stroke="#aedfba" stroke-width="1.51"/><path d="M590,66L568,273L774,168Z" fill="#b7e3bb" stroke="#b7e3bb" stroke-width="1.51"/><path d="M452,1232L272,1300L672,1314Z" fill="#7697aa" stroke="#7697aa" stroke-width="1.51"/><path d="M669,-73L590,66L763,-8Z" fill="#bfe6c4" stroke="#bfe6c4" stroke-width="1.51"/><path d="M507,490L477,580L580,665Z" fill="#98d5c2" stroke="#98d5c2" stroke-width="1.51"/><path d="M520,240L568,273L590,66Z" fill="#bae4bd" stroke="#bae4bd" stroke-width="1.51"/><path d="M499,111L520,240L590,66Z" fill="#c0e6bf" stroke="#c0e6bf" stroke-width="1.51"/><path d="M507,490L580,665L641,438Z" fill="#99d6be" stroke="#99d6be" stroke-width="1.51"/><path d="M626,736L466,981L661,1010Z" fill="#7eb9be" stroke="#7eb9be" stroke-width="1.51"/><path d="M507,6L590,66L669,-73Z" fill="#c4e8c5" stroke="#c4e8c5" stroke-width="1.51"/><path d="M605,1145L452,1232L672,1314Z" fill="#719aac" stroke="#719aac" stroke-width="1.51"/><path d="M521,-186L669,-73L675,-211Z" fill="#caeacc" stroke="#caeacc" stroke-width="1.51"/><path d="M408,757L466,981L626,736Z" fill="#88c3c5" stroke="#88c3c5" stroke-width="1.51"/><path d="M470,1077L605,1145L661,1010Z" fill="#76a9b7" stroke="#76a9b7" stroke-width="1.51"/><path d="M521,-186L507,6L669,-73Z" fill="#caeaca" stroke="#caeaca" stroke-width="1.51"/><path d="M466,981L470,1077L661,1010Z" fill="#7cafbb" stroke="#7cafbb" stroke-width="1.51"/><path d="M568,273L507,490L641,438Z" fill="#a6dcba" stroke="#a6dcba" stroke-width="1.51"/><path d="M580,665L408,757L626,736Z" fill="#8cccc7" stroke="#8cccc7" stroke-width="1.51"/><path d="M470,1077L452,1232L605,1145Z" fill="#78a3b6" stroke="#78a3b6" stroke-width="1.51"/><path d="M344,271L507,490L520,240Z" fill="#b4e2ba" stroke="#b4e2ba" stroke-width="1.51"/><path d="M520,240L507,490L568,273Z" fill="#afe0b8" stroke="#afe0b8" stroke-width="1.51"/><path d="M507,6L499,111L590,66Z" fill="#c4e8c3" stroke="#c4e8c3" stroke-width="1.51"/><path d="M477,580L408,757L580,665Z" fill="#93d0c5" stroke="#93d0c5" stroke-width="1.51"/><path d="M408,757L309,816L466,981Z" fill="#8dc3c6" stroke="#8dc3c6" stroke-width="1.51"/><path d="M344,271L355,516L507,490Z" fill="#aedfbf" stroke="#aedfbf" stroke-width="1.51"/><path d="M499,111L344,271L520,240Z" fill="#bfe6bf" stroke="#bfe6bf" stroke-width="1.51"/><path d="M286,-60L507,6L521,-186Z" fill="#d1edcd" stroke="#d1edcd" stroke-width="1.51"/><path d="M249,-212L286,-60L521,-186Z" fill="#daf1d3" stroke="#daf1d3" stroke-width="1.51"/><path d="M286,177L344,271L499,111Z" fill="#c5e8c1" stroke="#c5e8c1" stroke-width="1.51"/><path d="M286,-60L286,177L499,111Z" fill="#ceecc7" stroke="#ceecc7" stroke-width="1.51"/><path d="M286,-60L499,111L507,6Z" fill="#cdebc8" stroke="#cdebc8" stroke-width="1.51"/><path d="M355,516L477,580L507,490Z" fill="#a1d9c2" stroke="#a1d9c2" stroke-width="1.51"/><path d="M302,608L408,757L477,580Z" fill="#9bd4c7" stroke="#9bd4c7" stroke-width="1.51"/><path d="M309,816L285,958L466,981Z" fill="#8bbdc3" stroke="#8bbdc3" stroke-width="1.51"/><path d="M273,1115L452,1232L470,1077Z" fill="#7fa7b9" stroke="#7fa7b9" stroke-width="1.51"/><path d="M466,981L285,958L470,1077Z" fill="#84b4bf" stroke="#84b4bf" stroke-width="1.51"/><path d="M355,516L302,608L477,580Z" fill="#a2d9c5" stroke="#a2d9c5" stroke-width="1.51"/><path d="M285,958L273,1115L470,1077Z" fill="#86b1bf" stroke="#86b1bf" stroke-width="1.51"/><path d="M273,1115L272,1300L452,1232Z" fill="#80a1b4" stroke="#80a1b4" stroke-width="1.51"/><path d="M302,608L309,816L408,757Z" fill="#98d0cc" stroke="#98d0cc" stroke-width="1.51"/><path d="M183,-33L286,177L286,-60Z" fill="#d4eecd" stroke="#d4eecd" stroke-width="1.51"/><path d="M302,608L160,817L309,816Z" fill="#99d0d0" stroke="#99d0d0" stroke-width="1.51"/><path d="M81,519L158,584L355,516Z" fill="#aaddca" stroke="#aaddca" stroke-width="1.51"/><path d="M93,321L81,519L355,516Z" fill="#b4e1c7" stroke="#b4e1c7" stroke-width="1.51"/><path d="M158,584L302,608L355,516Z" fill="#a6dac8" stroke="#a6dac8" stroke-width="1.51"/><path d="M344,271L93,321L355,516Z" fill="#b9e4c1" stroke="#b9e4c1" stroke-width="1.51"/><path d="M286,177L93,321L344,271Z" fill="#c5e8c3" stroke="#c5e8c3" stroke-width="1.51"/><path d="M143,1260L25,1339L272,1300Z" fill="#8299b1" stroke="#8299b1" stroke-width="1.51"/><path d="M143,1260L272,1300L273,1115Z" fill="#82a1b7" stroke="#82a1b7" stroke-width="1.51"/><path d="M186,1061L273,1115L285,958Z" fill="#89b2c2" stroke="#89b2c2" stroke-width="1.51"/><path d="M160,817L155,930L285,958Z" fill="#91c1ca" stroke="#91c1ca" stroke-width="1.51"/><path d="M183,-33L94,86L286,177Z" fill="#d4eecd" stroke="#d4eecd" stroke-width="1.51"/><path d="M249,-212L183,-33L286,-60Z" fill="#dbf1d4" stroke="#dbf1d4" stroke-width="1.51"/><path d="M158,584L160,817L302,608Z" fill="#a1d5cf" stroke="#a1d5cf" stroke-width="1.51"/><path d="M160,817L285,958L309,816Z" fill="#92c4ca" stroke="#92c4ca" stroke-width="1.51"/><path d="M141,-187L183,-33L249,-212Z" fill="#dff3d9" stroke="#dff3d9" stroke-width="1.51"/><path d="M155,930L186,1061L285,958Z" fill="#8db9c5" stroke="#8db9c5" stroke-width="1.51"/><path d="M94,86L93,321L286,177Z" fill="#ccebc9" stroke="#ccebc9" stroke-width="1.51"/><path d="M186,1061L143,1260L273,1115Z" fill="#86aabf" stroke="#86aabf" stroke-width="1.51"/><path d="M19,186L93,321L94,86Z" fill="#cfeccc" stroke="#cfeccc" stroke-width="1.51"/><path d="M-27,591L-20,748L158,584Z" fill="#a9d9d3" stroke="#a9d9d3" stroke-width="1.51"/><path d="M158,584L-20,748L160,817Z" fill="#a1d4d4" stroke="#a1d4d4" stroke-width="1.51"/><path d="M141,-187L7,10L183,-33Z" fill="#ddf2d7" stroke="#ddf2d7" stroke-width="1.51"/><path d="M7,10L94,86L183,-33Z" fill="#d9f0d3" stroke="#d9f0d3" stroke-width="1.51"/><path d="M155,930L19,1064L186,1061Z" fill="#8eb6c7" stroke="#8eb6c7" stroke-width="1.51"/><path d="M19,1064L143,1260L186,1061Z" fill="#8aacc3" stroke="#8aacc3" stroke-width="1.51"/><path d="M-15,459L81,519L93,321Z" fill="#bae4ca" stroke="#bae4ca" stroke-width="1.51"/><path d="M19,186L23,294L93,321Z" fill="#caebca" stroke="#caebca" stroke-width="1.51"/><path d="M-50,-179L7,10L141,-187Z" fill="#e2f4dd" stroke="#e2f4dd" stroke-width="1.51"/><path d="M14,901L19,1064L155,930Z" fill="#92bccc" stroke="#92bccc" stroke-width="1.51"/><path d="M81,519L-27,591L158,584Z" fill="#adddcf" stroke="#adddcf" stroke-width="1.51"/><path d="M14,901L155,930L160,817Z" fill="#95c4ce" stroke="#95c4ce" stroke-width="1.51"/><path d="M-20,748L14,901L160,817Z" fill="#9bcbd3" stroke="#9bcbd3" stroke-width="1.51"/><path d="M19,1064L25,1339L143,1260Z" fill="#88a3bd" stroke="#88a3bd" stroke-width="1.51"/><path d="M19,1064L-192,1242L25,1339Z" fill="#8ca5c1" stroke="#8ca5c1" stroke-width="1.51"/><path d="M23,294L-15,459L93,321Z" fill="#c2e7c9" stroke="#c2e7c9" stroke-width="1.51"/><path d="M7,10L19,186L94,86Z" fill="#d7f0d1" stroke="#d7f0d1" stroke-width="1.51"/><path d="M-15,459L-27,591L81,519Z" fill="#b2e1cf" stroke="#b2e1cf" stroke-width="1.51"/><path d="M-50,-179L-167,-63L7,10Z" fill="#e4f5de" stroke="#e4f5de" stroke-width="1.51"/><path d="M-20,748L-221,781L14,901Z" fill="#a0ced8" stroke="#a0ced8" stroke-width="1.51"/><path d="M-204,1153L-192,1242L19,1064Z" fill="#91adca" stroke="#91adca" stroke-width="1.51"/><path d="M14,901L-208,947L19,1064Z" fill="#96becf" stroke="#96becf" stroke-width="1.51"/><path d="M7,10L-258,115L19,186Z" fill="#dbf1d5" stroke="#dbf1d5" stroke-width="1.51"/><path d="M19,186L-138,350L23,294Z" fill="#ccebcc" stroke="#ccebcc" stroke-width="1.51"/><path d="M-138,350L-15,459L23,294Z" fill="#c4e8cc" stroke="#c4e8cc" stroke-width="1.51"/><path d="M-167,-63L-258,115L7,10Z" fill="#e2f4db" stroke="#e2f4db" stroke-width="1.51"/><path d="M-221,781L-208,947L14,901Z" fill="#9fc8d7" stroke="#9fc8d7" stroke-width="1.51"/><path d="M-208,947L-204,1153L19,1064Z" fill="#95b7ce" stroke="#95b7ce" stroke-width="1.51"/><path d="M-258,115L-138,350L19,186Z" fill="#d5efd2" stroke="#d5efd2" stroke-width="1.51"/><path d="M-27,591L-185,582L-20,748Z" fill="#addbd7" stroke="#addbd7" stroke-width="1.51"/><path d="M-185,582L-221,781L-20,748Z" fill="#aad8dc" stroke="#aad8dc" stroke-width="1.51"/><path d="M-138,350L-199,466L-15,459Z" fill="#c1e6d0" stroke="#c1e6d0" stroke-width="1.51"/><path d="M-185,582L-27,591L-15,459Z" fill="#b4e1d3" stroke="#b4e1d3" stroke-width="1.51"/><path d="M-199,466L-185,582L-15,459Z" fill="#bae4d3" stroke="#bae4d3" stroke-width="1.51"/><path d="M-233,-173L-167,-63L-50,-179Z" fill="#ebf7e4" stroke="#ebf7e4" stroke-width="1.51"/><path d="M-258,115L-199,466L-138,350Z" fill="#cfedd1" stroke="#cfedd1" stroke-width="1.51"/><path d="M-233,-173L-258,115L-167,-63Z" fill="#e8f6e1" stroke="#e8f6e1" stroke-width="1.51"/><path d="M-199,466L-221,781L-185,582Z" fill="#b3deda" stroke="#b3deda" stroke-width="1.51"/><path d="M-258,115L-221,781L-199,466Z" fill="#c2e7d5" stroke="#c2e7d5" stroke-width="1.51"/><path d="M-208,947L-221,781L-204,1153Z" fill="#9cc1d4" stroke="#9cc1d4" stroke-width="1.51"/></svg>